<?xml version="1.0" encoding="utf-8"?>
<!-- Generator: Adobe Illustrator 22.0.0, SVG Export Plug-In . SVG Version: 6.00 Build 0)  -->
<svg version="1.1" id="图层_1" xmlns="http://www.w3.org/2000/svg" xmlns:xlink="http://www.w3.org/1999/xlink" x="0px" y="0px"
	 viewBox="0 0 838 544" style="enable-background:new 0 0 838 544;" xml:space="preserve">
<style type="text/css">
	.st0{opacity:0.1;}
	.st1{clip-path:url(#SVGID_2_);}
	.st2{clip-path:url(#SVGID_14_);}
	.st3{clip-path:url(#SVGID_16_);}
	.st4{fill:#00CCFF;}
	.st5{fill:#00F9FB;}
	.st6{clip-path:url(#SVGID_18_);fill:#00F9FB;}
	.st7{fill:#01AAE5;}
	.st8{fill:none;stroke:#00F9FB;stroke-miterlimit:10;stroke-dasharray:1.9981,1.9981;}
	.st9{fill:none;}
	.st10{fill:none;stroke:#FA3F92;stroke-width:16;stroke-miterlimit:10;stroke-dasharray:5;}
	.st11{opacity:0.1;fill:none;stroke:#65BBE5;stroke-width:12;stroke-miterlimit:10;}
	.st12{opacity:0.2;fill:none;stroke:#02C2F3;stroke-miterlimit:10;}
</style>
<g class="st0">
	<g>
		<g>
			<defs>
				<rect id="SVGID_1_" x="296.4" y="107.6" width="313" height="318.1"/>
			</defs>
			<clipPath id="SVGID_2_">
				<use xlink:href="#SVGID_1_"  style="overflow:visible;"/>
			</clipPath>
			<g class="st1">
				<g>
					<defs>
						<rect id="SVGID_3_" x="425.3" y="108.7" width="6.3" height="5.9"/>
					</defs>
					<clipPath id="SVGID_4_">
						<use xlink:href="#SVGID_3_"  style="overflow:visible;"/>
					</clipPath>
				</g>
			</g>
			<g class="st1">
				<g>
					<defs>
						<rect id="SVGID_5_" x="411.7" y="111" width="8.5" height="14.4"/>
					</defs>
					<clipPath id="SVGID_6_">
						<use xlink:href="#SVGID_5_"  style="overflow:visible;"/>
					</clipPath>
				</g>
			</g>
			<g class="st1">
				<g>
					<defs>
						<rect id="SVGID_7_" x="398.4" y="114.5" width="12.2" height="22.8"/>
					</defs>
					<clipPath id="SVGID_8_">
						<use xlink:href="#SVGID_7_"  style="overflow:visible;"/>
					</clipPath>
				</g>
			</g>
			<g class="st1">
				<g>
					<defs>
						<rect id="SVGID_9_" x="385.5" y="119.2" width="13.8" height="22.6"/>
					</defs>
					<clipPath id="SVGID_10_">
						<use xlink:href="#SVGID_9_"  style="overflow:visible;"/>
					</clipPath>
				</g>
			</g>
			<g class="st1">
				<g>
					<defs>
						<rect id="SVGID_11_" x="350.1" y="139.6" width="14.1" height="15.8"/>
					</defs>
					<clipPath id="SVGID_12_">
						<use xlink:href="#SVGID_11_"  style="overflow:visible;"/>
					</clipPath>
				</g>
			</g>
		</g>
	</g>
</g>
<g>
	<defs>
		<polygon id="SVGID_13_" points="651,44 638,67 609,73 574,106.7 577,135 650,141 739,127 775,81 744,51 		"/>
	</defs>
	<clipPath id="SVGID_14_">
		<use xlink:href="#SVGID_13_"  style="overflow:visible;"/>
	</clipPath>
	<g class="st2">
		<defs>
			<rect id="SVGID_15_" x="549" y="-47.5" width="187" height="208"/>
		</defs>
		<clipPath id="SVGID_16_">
			<use xlink:href="#SVGID_15_"  style="overflow:visible;"/>
		</clipPath>
		<g id="XMLID_1_" class="st3">
			<g>
				<g id="XMLID_143_">
					<g id="XMLID_144_">
						<g id="XMLID_145_">
							<path id="XMLID_146_" class="st4" d="M763.3,76.4v0.4C763.3,76.6,763.3,76.5,763.3,76.4L763.3,76.4z M751.3,92.8
								c0.8-0.2,1.5-0.5,2.2-0.9C752.8,92.2,752.1,92.5,751.3,92.8z"/>
						</g>
					</g>
				</g>
				<path id="XMLID_142_" class="st5" d="M821.9,27.9c-2.6,0-4.7,1.9-5.1,4.4h-23.4l-39.6,39.6c-0.9-1-2.2-1.6-3.7-1.6
					c-2.6,0-4.7,1.9-5.1,4.4H626.8L595,106.6c-0.9-0.6-1.9-1-3.1-1c-2.8,0-5.2,2.3-5.2,5.2s2.3,5.2,5.2,5.2c2.8,0,5.2-2.3,5.2-5.2
					c0-1.1-0.4-2.2-1-3.1l27.3-27.3H645h6.5h22.6l-0.1-0.1l4-4H745c0.4,2.5,2.5,4.4,5.1,4.4c2.8,0,5.2-2.3,5.2-5.2
					c0-0.8-0.2-1.6-0.6-2.3L794,33.8h22.8c0.4,2.5,2.5,4.4,5.1,4.4c2.8,0,5.2-2.3,5.2-5.2S824.7,27.9,821.9,27.9z"/>
				<polyline id="XMLID_141_" class="st5" points="559.2,59.8 564.4,62.8 564.4,60.3 642.1,60.3 654.4,72.6 718.4,72.6 718.4,71.9 
					654.7,71.9 642.4,59.5 564.4,59.5 564.4,56.9 				"/>
				<g id="XMLID_133_">
					<polygon id="XMLID_140_" class="st5" points="661.5,68.5 655,64.8 661.5,61 					"/>
					<polygon id="XMLID_139_" class="st5" points="669.6,68.5 663.1,64.8 669.6,61 					"/>
					<polygon id="XMLID_138_" class="st5" points="677.8,68.5 671.2,64.8 677.8,61 					"/>
					<polygon id="XMLID_137_" class="st5" points="685.9,68.5 679.3,64.8 685.9,61 					"/>
					<polygon id="XMLID_136_" class="st5" points="694,68.5 687.4,64.8 694,61 					"/>
					<polygon id="XMLID_135_" class="st5" points="702.1,68.5 695.6,64.8 702.1,61 					"/>
					<polygon id="XMLID_134_" class="st5" points="710.2,68.5 703.7,64.8 710.2,61 					"/>
				</g>
			</g>
		</g>
	</g>
</g>
<g>
	<g>
		<defs>
			<rect id="SVGID_17_" x="283.3" y="97.7" width="334" height="334"/>
		</defs>
		<clipPath id="SVGID_18_">
			<use xlink:href="#SVGID_17_"  style="overflow:visible;"/>
		</clipPath>
		<path class="st6" d="M450.3,97.7c-92.1,0-167,74.9-167,167c0,92.1,74.9,167,167,167c92,0,167-74.9,167-167
			C617.3,172.6,542.4,97.7,450.3,97.7 M450.3,427.8c-90.1,0-163.2-73-163.2-163.1c0-90.1,73.1-163.1,163.2-163.1
			c90.1,0,163.1,73,163.1,163.1C613.4,354.8,540.4,427.8,450.3,427.8"/>
	</g>
</g>
<path class="st7" d="M660.5,265.5c0-8.2-0.5-16.4-1.4-24.4"/>
<path class="st5" d="M524.3,459.2l-5.1-14.2c-7,2.5-14.3,4.6-21.7,6.4c-30.1,7-60.2,6.5-88.4-0.2l-3.5,14.7
	c30.4,7.2,62.8,7.7,95.2,0.2"/>
<g>
	<g>
		<path class="st5" d="M643.1,218.2c4.1,17.6,5.6,35.2,4.8,52.4l15.1,0.7c0.8-18.5-0.8-37.5-5.2-56.4c-19.4-84.1-87-144.5-166.8-159
			l-2.7,14.9C562.4,84.1,625.1,140.2,643.1,218.2"/>
	</g>
</g>
<path class="st5" d="M264.4,305.8c-16.4-71,8.4-142,58.8-187.7L313,106.8c-54.3,49.3-81,125.8-63.3,202.3
	c5.2,22.6,13.9,43.5,25.4,62.3l12.9-7.9C277.3,346.2,269.2,326.8,264.4,305.8"/>
<g>
	<path class="st5" d="M640.6,265.1h-3.8v-0.3h-2.7c0-0.9,0-1.7,0-2.6l1.5,0v-0.4l-1.5,0c0-0.9-0.1-1.9-0.1-2.8l1.5,0l0-0.4l-1.5,0
		c0-0.9-0.1-1.9-0.1-2.8l1.5-0.1l0-0.4l-1.5,0.1c-0.1-0.9-0.1-1.9-0.2-2.8l1.4-0.1l0-0.4l-1.5,0.1c-0.1-0.9-0.1-1.9-0.2-2.8l1.5-0.1
		l0-0.4l-1.5,0.1c-0.1-0.9-0.2-1.9-0.3-2.8l1.4-0.2l0-0.4l-1.4,0.2c-0.1-0.9-0.2-1.9-0.3-2.8l1.4-0.2l0-0.4l-1.4,0.2
		c-0.1-0.9-0.3-1.9-0.4-2.8l1.4-0.2l0-0.4l-1.4,0.2c-0.1-0.9-0.3-1.9-0.4-2.8l1.4-0.2l0-0.4l-1.4,0.2c-0.1-0.8-0.3-1.7-0.4-2.5
		l2.6-0.5l0-0.3l3.7-0.7l-0.1-0.3l-3.7,0.7l-0.1-0.3l-2.6,0.4c-0.1-0.8-0.3-1.7-0.5-2.5l1.4-0.3l-0.1-0.4l-1.4,0.3
		c-0.2-0.9-0.4-1.8-0.5-2.8l1.4-0.3l-0.1-0.4l-1.4,0.3c-0.2-0.9-0.4-1.8-0.6-2.8l1.3-0.3l-0.1-0.4l-1.4,0.3
		c-0.2-0.9-0.4-1.8-0.7-2.8l1.4-0.3l-0.1-0.4l-1.4,0.3c-0.2-0.9-0.5-1.8-0.7-2.7l1.3-0.4l-0.1-0.4l-1.4,0.4
		c-0.3-0.9-0.5-1.8-0.8-2.7l1.3-0.4l-0.1-0.4l-1.3,0.4c-0.3-0.9-0.5-1.8-0.8-2.7l1.3-0.4l-0.1-0.4l-1.3,0.4
		c-0.3-0.9-0.6-1.8-0.9-2.7l1.3-0.4l-0.1-0.4l-1.3,0.4c-0.3-0.9-0.6-1.8-0.9-2.7l1.3-0.5l-0.1-0.4l-1.3,0.5
		c-0.3-0.8-0.6-1.6-0.9-2.4l2.4-0.9l-0.1-0.3l3.5-1.3l-0.1-0.3l-3.5,1.3l-0.1-0.3l-2.4,0.9c-0.3-0.8-0.6-1.6-0.9-2.4l1.3-0.5
		l-0.1-0.4l-1.3,0.5c-0.3-0.9-0.7-1.7-1.1-2.6l1.3-0.5l-0.1-0.4l-1.3,0.5c-0.3-0.9-0.7-1.7-1.1-2.6l1.3-0.5l-0.1-0.4l-1.3,0.5
		c-0.4-0.9-0.7-1.7-1.1-2.6l1.2-0.6l-0.2-0.4l-1.2,0.6c-0.4-0.9-0.8-1.7-1.2-2.6l1.2-0.6l-0.2-0.3l-1.2,0.6
		c-0.4-0.9-0.8-1.7-1.2-2.5l1.2-0.6l-0.2-0.3l-1.3,0.6c-0.4-0.8-0.8-1.7-1.3-2.5l1.2-0.6l-0.2-0.3l-1.2,0.6
		c-0.4-0.8-0.8-1.7-1.3-2.5l1.2-0.6l-0.2-0.3l-1.2,0.6c-0.4-0.8-0.9-1.6-1.4-2.5l1.2-0.7l-0.2-0.3l-1.2,0.7
		c-0.4-0.7-0.8-1.5-1.3-2.2l2.2-1.3l-0.1-0.2l3.3-1.9l-0.1-0.3l-3.3,1.9l-0.1-0.2l-2.3,1.3c-0.4-0.7-0.9-1.5-1.3-2.2l1.2-0.7
		l-0.2-0.3l-1.2,0.7c-0.5-0.8-1-1.6-1.5-2.4l1.2-0.7l-0.2-0.3l-1.2,0.7c-0.5-0.8-1-1.6-1.5-2.4l1.2-0.8l-0.2-0.3l-1.2,0.8
		c-0.5-0.8-1-1.6-1.6-2.4l1.2-0.8l-0.2-0.3l-1.2,0.8c-0.5-0.8-1-1.5-1.6-2.3l1.2-0.8l-0.2-0.3L601,160c-0.5-0.8-1.1-1.5-1.7-2.3
		l1.2-0.8l-0.2-0.3l-1.2,0.8c-0.6-0.8-1.1-1.5-1.7-2.3l1.1-0.9l-0.2-0.3l-1.1,0.9c-0.6-0.7-1.1-1.5-1.7-2.2l1.1-0.9l-0.2-0.3
		l-1.1,0.9c-0.6-0.7-1.2-1.5-1.8-2.2l1.1-0.9l-0.2-0.3l-1.1,0.9c-0.5-0.7-1.1-1.3-1.6-2l2-1.7l-0.2-0.2l2.9-2.4l-0.2-0.3l-2.9,2.4
		l-0.2-0.2l-2,1.7c-0.6-0.6-1.1-1.3-1.7-1.9l1.1-0.9l-0.2-0.3l-1.1,1c-0.6-0.7-1.2-1.4-1.9-2.1l1.1-1l-0.2-0.3l-1.1,1
		c-0.6-0.7-1.3-1.4-1.9-2.1l1.1-1l-0.2-0.3l-1.1,1c-0.6-0.7-1.3-1.4-1.9-2l1-1l-0.3-0.3l-1.1,1c-0.7-0.7-1.3-1.4-2-2l1-1l-0.3-0.3
		l-1,1c-0.7-0.7-1.3-1.3-2-2l1-1.1l-0.3-0.3l-1,1.1c-0.7-0.7-1.4-1.3-2-1.9l1-1.1l-0.3-0.3l-1,1.1c-0.7-0.6-1.4-1.3-2.1-1.9l1-1.1
		l-0.3-0.2l-1,1.1c-0.7-0.6-1.4-1.2-2.1-1.9l1-1.1l-0.3-0.3l-1,1.1c-0.7-0.6-1.3-1.1-2-1.7l1.7-2l-0.2-0.2l2.4-2.9l-0.2-0.2
		l-2.4,2.9l-0.2-0.2l-1.7,2c-0.6-0.6-1.3-1.1-2-1.6l0.9-1.1l-0.3-0.2l-0.9,1.1c-0.7-0.6-1.5-1.2-2.2-1.8l0.9-1.1l-0.3-0.2l-0.9,1.1
		c-0.7-0.6-1.5-1.1-2.2-1.7l0.9-1.1l-0.3-0.2l-0.9,1.1c-0.8-0.6-1.5-1.1-2.3-1.7l0.8-1.1l-0.3-0.2l-0.8,1.2
		c-0.8-0.6-1.5-1.1-2.3-1.7l0.8-1.1l-0.3-0.2l-0.8,1.2c-0.8-0.5-1.5-1.1-2.3-1.6l0.8-1.2l-0.3-0.2l-0.8,1.2c-0.8-0.5-1.6-1-2.4-1.6
		l0.8-1.2l-0.3-0.2l-0.8,1.2c-0.8-0.5-1.6-1-2.4-1.5l0.7-1.2l-0.3-0.2l-0.8,1.2c-0.8-0.5-1.6-1-2.4-1.5l0.7-1.2l-0.3-0.2l-0.7,1.2
		c-0.7-0.4-1.5-0.9-2.2-1.3l1.3-2.3l-0.2-0.1l1.9-3.3l-0.3-0.2l-1.9,3.3l-0.2-0.1l-1.3,2.3c-0.7-0.4-1.5-0.8-2.2-1.3l0.7-1.2
		l-0.3-0.2l-0.7,1.2c-0.8-0.5-1.6-0.9-2.5-1.4l0.6-1.2l-0.3-0.2l-0.6,1.2c-0.8-0.4-1.7-0.9-2.5-1.3l0.6-1.2l-0.3-0.2l-0.6,1.2
		c-0.9-0.4-1.7-0.8-2.5-1.3l0.6-1.2l-0.3-0.2l-0.6,1.2c-0.8-0.4-1.7-0.8-2.5-1.2l0.6-1.2l-0.4-0.2l-0.6,1.2
		c-0.9-0.4-1.7-0.8-2.5-1.2l0.5-1.3l-0.4-0.2l-0.5,1.2c-0.9-0.4-1.7-0.7-2.6-1.1l0.6-1.3l-0.4-0.2l-0.5,1.3
		c-0.9-0.4-1.7-0.7-2.6-1.1l0.5-1.3L520,94l-0.5,1.3c-0.9-0.4-1.7-0.7-2.6-1l0.5-1.3l-0.4-0.1l-0.5,1.3c-0.8-0.3-1.6-0.6-2.4-0.9
		l0.9-2.4l-0.2-0.1l1.3-3.5l-0.3-0.1l-1.3,3.5l-0.2-0.1l-0.9,2.4c-0.8-0.3-1.6-0.6-2.4-0.8l0.4-1.3l-0.4-0.1l-0.4,1.3
		c-0.9-0.3-1.8-0.6-2.7-0.9l0.4-1.3l-0.4-0.1l-0.4,1.3c-0.9-0.3-1.8-0.6-2.7-0.9l0.4-1.3l-0.4-0.1l-0.4,1.3
		c-0.9-0.3-1.8-0.5-2.7-0.8l0.4-1.3l-0.4-0.1l-0.4,1.3c-0.9-0.3-1.8-0.5-2.7-0.8l0.4-1.3l-0.4-0.1l-0.4,1.3
		c-0.9-0.2-1.8-0.5-2.7-0.7l0.3-1.3l-0.4-0.1l-0.3,1.4c-0.9-0.2-1.8-0.4-2.7-0.7l0.3-1.4l-0.4-0.1l-0.3,1.4
		c-0.9-0.2-1.8-0.4-2.7-0.6l0.3-1.4l-0.4-0.1l-0.3,1.4c-0.9-0.2-1.8-0.4-2.8-0.5l0.3-1.4l-0.4-0.1l-0.3,1.4
		c-0.8-0.2-1.7-0.3-2.5-0.5l0.5-2.6l-0.3,0l0.6-3.7l-0.3-0.1l-0.7,3.7l-0.3,0l-0.4,2.6c-0.8-0.2-1.7-0.3-2.5-0.4l0.2-1.4l-0.4-0.1
		l-0.2,1.4c-0.9-0.1-1.9-0.3-2.8-0.4l0.2-1.4l-0.4-0.1l-0.2,1.4c-0.9-0.1-1.9-0.3-2.8-0.4l0.2-1.4l-0.4-0.1l-0.2,1.4
		c-0.9-0.1-1.9-0.2-2.8-0.3l0.2-1.4l-0.4,0l-0.2,1.4c-0.9-0.1-1.9-0.2-2.8-0.3l0.1-1.5l-0.4,0l-0.1,1.5c-0.9-0.1-1.9-0.2-2.8-0.2
		l0.1-1.5l-0.4,0l-0.1,1.5c-0.9-0.1-1.9-0.1-2.8-0.2l0.1-1.4l-0.4,0l-0.1,1.5c-0.9,0-1.9-0.1-2.8-0.1l0.1-1.5l-0.4,0l-0.1,1.5
		c-0.9,0-1.9-0.1-2.8-0.1l0-1.5l-0.4,0l0,1.5c-0.9,0-1.7,0-2.6,0v-2.7h-0.3v-3.8h-0.3v3.8h-0.3v2.7c-0.9,0-1.7,0-2.6,0l0-1.5h0v0
		l0,0l-0.3,0v0h0l0,1.5c-0.9,0-1.9,0-2.8,0.1l-0.1-1.5h0h0l-0.4,0l0.1,1.5c-0.9,0-1.9,0-2.8,0.1l-0.1-1.4h0h0l-0.4,0v0l0.1,1.4
		c-0.9,0.1-1.9,0.1-2.8,0.2l-0.1-1.4h0h0l-0.4,0v0h0l0.1,1.5c-0.9,0.1-1.9,0.1-2.8,0.2l-0.1-1.5l0,0h0l-0.4,0v0l0,0l0.1,1.5
		c-0.9,0.1-1.9,0.2-2.8,0.3l-0.1-1.4h0h0l-0.4,0v0l0,0l0.1,1.4c-0.9,0.1-1.9,0.2-2.8,0.3l-0.2-1.4h0h0l-0.4,0v0l0.2,1.4
		c-0.9,0.1-1.9,0.2-2.8,0.4l-0.2-1.4h0h0l-0.3,0v0l0.2,1.4c-0.9,0.1-1.9,0.3-2.8,0.4l-0.2-1.4h0l0,0l-0.4,0h0h0l0.2,1.4
		c-0.9,0.1-1.7,0.3-2.5,0.4l-0.5-2.6l-0.3,0l-0.7-3.7l-0.3,0.1l0.7,3.7l-0.3,0.1l0.5,2.6c-0.8,0.1-1.7,0.3-2.5,0.5L416,84h0l0,0
		l-0.3,0.1v0l0.3,1.4c-0.9,0.2-1.8,0.4-2.7,0.5l-0.3-1.4l0,0v0l0,0l-0.3,0.1l0,0l0.3,1.4c-0.9,0.2-1.8,0.4-2.7,0.6l-0.3-1.4h0l0,0
		l-0.4,0.1v0l0.3,1.4c-0.9,0.2-1.8,0.4-2.7,0.6l-0.3-1.3l0,0l0,0l-0.4,0.1v0l0.3,1.4c-0.9,0.2-1.8,0.5-2.7,0.7l-0.4-1.3h0l0,0
		l-0.4,0.1v0l0,0l0.4,1.3c-0.9,0.3-1.8,0.5-2.7,0.8l-0.4-1.3l-0.4,0.1l0.4,1.3c-0.9,0.3-1.8,0.5-2.7,0.8l-0.4-1.3l-0.4,0.1l0.4,1.3
		c-0.9,0.3-1.8,0.6-2.7,0.9l-0.4-1.3l-0.4,0.1l0.4,1.3c-0.9,0.3-1.8,0.6-2.7,0.9l-0.4-1.3l-0.4,0.1l0.4,1.3
		c-0.8,0.3-1.6,0.6-2.4,0.8l-0.9-2.4l-0.3,0.1l-1.3-3.5l-0.3,0.1l1.3,3.5l-0.3,0.1l0.9,2.4c-0.8,0.3-1.6,0.6-2.4,0.9l-0.5-1.3
		l-0.4,0.1l0.5,1.3c-0.9,0.3-1.7,0.7-2.6,1L382,94l-0.4,0.1l0.5,1.3c-0.9,0.4-1.7,0.7-2.6,1.1l-0.5-1.3l-0.4,0.1l0.5,1.3
		c-0.9,0.4-1.7,0.7-2.6,1.1l-0.6-1.2l-0.4,0.1l0.6,1.3c-0.9,0.4-1.7,0.8-2.6,1.2l-0.6-1.2l-0.3,0.1l0.6,1.2
		c-0.9,0.4-1.7,0.8-2.5,1.2l-0.6-1.2l-0.3,0.2l0.6,1.2c-0.8,0.4-1.7,0.8-2.5,1.3l-0.6-1.2l-0.3,0.2l0.6,1.2
		c-0.8,0.4-1.7,0.9-2.5,1.3l-0.6-1.2l-0.3,0.2l0.6,1.2c-0.8,0.5-1.6,0.9-2.5,1.4l-0.7-1.2l-0.3,0.2l0.7,1.2
		c-0.8,0.4-1.5,0.8-2.2,1.3l-1.3-2.3l-0.3,0.1l-1.9-3.3l-0.3,0.2l1.9,3.3l-0.2,0.1l1.3,2.3c-0.7,0.4-1.5,0.9-2.2,1.3l-0.7-1.2
		l-0.3,0.2l0.7,1.2c-0.8,0.5-1.6,1-2.4,1.5l-0.7-1.2l-0.3,0.2l0.7,1.2c-0.8,0.5-1.6,1-2.4,1.5l-0.8-1.2l-0.3,0.2l0.8,1.2
		c-0.8,0.5-1.6,1-2.3,1.6l-0.8-1.2l-0.3,0.2l0.8,1.2c-0.8,0.5-1.6,1.1-2.3,1.6l-0.8-1.2l-0.3,0.2l0.8,1.2c-0.8,0.5-1.5,1.1-2.3,1.6
		l-0.9-1.2l-0.3,0.2l0.8,1.2c-0.7,0.6-1.5,1.1-2.3,1.7l-0.9-1.1l-0.3,0.2l0.9,1.2c-0.8,0.6-1.5,1.1-2.2,1.7l-0.9-1.1l-0.3,0.2
		l0.9,1.1c-0.7,0.6-1.5,1.2-2.2,1.8l-0.9-1.1l-0.3,0.2l0.9,1.1c-0.7,0.5-1.3,1.1-2,1.6l-1.7-2l-0.2,0.2l-2.4-2.9l-0.2,0.2l2.4,2.9
		l-0.2,0.2l1.7,2c-0.7,0.6-1.3,1.1-2,1.7l-1-1.1l-0.3,0.3l1,1.1c-0.7,0.6-1.4,1.2-2.1,1.9l-1-1.1l-0.3,0.2l1,1.1
		c-0.7,0.6-1.4,1.3-2.1,1.9l-1-1.1l-0.3,0.3l1,1.1c-0.7,0.6-1.4,1.3-2,1.9l-1-1l-0.3,0.3l1,1.1c-0.7,0.6-1.4,1.3-2,2l-1-1l-0.3,0.3
		l1,1c-0.7,0.7-1.3,1.3-2,2l-1-1l-0.3,0.3l1.1,1c-0.6,0.7-1.3,1.3-1.9,2l-1.1-1l-0.3,0.3l1.1,1c-0.6,0.7-1.3,1.4-1.9,2.1l-1.1-1
		l-0.3,0.3l1.1,1c-0.6,0.7-1.3,1.4-1.9,2.1l-1.1-1l-0.2,0.3l1.1,1c-0.6,0.6-1.1,1.3-1.7,2l-2-1.7l-0.2,0.2l-2.9-2.4l-0.2,0.3
		l2.9,2.4l-0.2,0.2l2,1.7c-0.6,0.7-1.1,1.3-1.6,2l-1.1-0.9l-0.2,0.3l1.1,0.9c-0.6,0.7-1.2,1.5-1.8,2.2l-1.1-0.9l-0.2,0.3l1.1,0.9
		c-0.6,0.7-1.1,1.5-1.7,2.2l-1.1-0.9l-0.2,0.3l1.2,0.9c-0.6,0.8-1.1,1.5-1.7,2.3l-1.2-0.8l-0.2,0.3l1.2,0.8
		c-0.6,0.8-1.1,1.5-1.6,2.3l-1.2-0.8l-0.2,0.3l1.1,0.8c-0.5,0.8-1.1,1.6-1.6,2.3l-1.2-0.8l-0.2,0.3l1.2,0.8
		c-0.5,0.8-1.1,1.6-1.6,2.4l-1.2-0.8l-0.2,0.3l1.2,0.8c-0.5,0.8-1,1.6-1.5,2.4l-1.2-0.7l-0.2,0.3l1.2,0.8c-0.5,0.8-1,1.6-1.5,2.4
		l-1.2-0.7l-0.2,0.3l1.2,0.7c-0.5,0.7-0.9,1.5-1.3,2.2l-2.3-1.3l-0.1,0.2l-3.3-1.9l-0.2,0.3l3.3,1.9l-0.1,0.2l2.3,1.3
		c-0.4,0.7-0.9,1.5-1.3,2.2l-1.2-0.7l-0.2,0.3l1.2,0.7c-0.5,0.8-0.9,1.6-1.4,2.5l-1.2-0.6l-0.2,0.3l1.2,0.6
		c-0.4,0.8-0.9,1.7-1.3,2.5l-1.2-0.6l-0.2,0.3l1.2,0.6c-0.4,0.8-0.8,1.7-1.3,2.5l-1.2-0.6l-0.2,0.3l1.2,0.6
		c-0.4,0.8-0.8,1.7-1.2,2.5l-1.2-0.6l-0.2,0.3l1.2,0.6c-0.4,0.9-0.8,1.7-1.2,2.6l-1.2-0.6l-0.2,0.3l1.2,0.6
		c-0.4,0.8-0.7,1.7-1.1,2.6l-1.3-0.5l-0.1,0.4l1.3,0.5c-0.4,0.9-0.7,1.7-1.1,2.6l-1.3-0.5l-0.1,0.3l1.3,0.5c-0.3,0.9-0.7,1.7-1,2.6
		l-1.3-0.5l-0.1,0.4l1.3,0.5c-0.3,0.8-0.6,1.6-0.9,2.4l-2.4-0.9l-0.1,0.3l-3.5-1.3l-0.1,0.3l3.5,1.3l-0.1,0.3l2.4,0.9
		c-0.3,0.8-0.6,1.6-0.8,2.4l-1.3-0.5l-0.1,0.4l1.3,0.5c-0.3,0.9-0.6,1.8-0.9,2.7l-1.3-0.4l-0.1,0.4l1.3,0.4
		c-0.3,0.9-0.6,1.8-0.9,2.7l-1.3-0.4l-0.1,0.4l1.3,0.4c-0.3,0.9-0.5,1.8-0.8,2.7l-1.3-0.4l-0.1,0.4l1.3,0.4
		c-0.3,0.9-0.5,1.8-0.7,2.7l-1.3-0.4l-0.1,0.4l1.3,0.4c-0.2,0.9-0.5,1.8-0.7,2.7l-1.4-0.3l-0.1,0.4l1.3,0.3
		c-0.2,0.9-0.4,1.8-0.6,2.7l-1.4-0.3l-0.1,0.4l1.4,0.3c-0.2,0.9-0.4,1.8-0.6,2.7l-1.4-0.3l-0.1,0.4l1.4,0.3
		c-0.2,0.9-0.4,1.8-0.6,2.8l-1.4-0.3l-0.1,0.4l1.4,0.3c-0.2,0.8-0.3,1.7-0.5,2.5l-2.6-0.4l-0.1,0.3l-3.7-0.7l-0.1,0.3l3.7,0.7
		l-0.1,0.3l2.6,0.5c-0.1,0.8-0.3,1.7-0.4,2.5l-1.4-0.2l-0.1,0.4l1.4,0.2c-0.1,0.9-0.3,1.9-0.4,2.8l-1.4-0.2l-0.1,0.4l1.4,0.2
		c-0.1,0.9-0.3,1.9-0.4,2.8l-1.4-0.2l-0.1,0.4l1.4,0.2c-0.1,0.9-0.2,1.9-0.3,2.8l-1.4-0.2l0,0.4l1.4,0.2c-0.1,0.9-0.2,1.9-0.2,2.8
		l-1.5-0.1l0,0.4l1.5,0.1c-0.1,0.9-0.1,1.9-0.2,2.8l-1.4-0.1l0,0.4l1.5,0.1c-0.1,0.9-0.1,1.9-0.2,2.8l-1.5-0.1l0,0.4l1.5,0.1
		c-0.1,0.9-0.1,1.9-0.1,2.8l-1.5-0.1l0,0.4l1.5,0c0,0.9,0,1.9-0.1,2.8l-1.5,0l0,0.4l1.5,0c0,0.9,0,1.7,0,2.6h-2.7v0.3h-3.8v0.3h3.8
		v0.3h2.7c0,0.9,0,1.7,0,2.6l-1.5,0l0,0.4l1.5,0c0,0.9,0,1.9,0.1,2.8l-1.5,0.1l0,0.4l1.5,0c0,0.9,0.1,1.9,0.1,2.8l-1.5,0.1l0,0.4
		l1.5-0.1c0,0.9,0.1,1.9,0.2,2.8l-1.5,0.1l0,0.4l1.4-0.1c0.1,0.9,0.1,1.9,0.2,2.8l-1.5,0.1l0,0.4l1.5-0.1c0.1,0.9,0.2,1.9,0.2,2.8
		l-1.4,0.1l0,0.4l1.4-0.2c0.1,0.9,0.2,1.9,0.3,2.8l-1.4,0.2l0.1,0.4l1.4-0.2c0.1,0.9,0.2,1.9,0.4,2.8l-1.4,0.2l0.1,0.4l1.4-0.2
		c0.1,0.9,0.3,1.9,0.4,2.8l-1.4,0.2l0.1,0.4l1.4-0.2c0.1,0.9,0.3,1.7,0.4,2.5l-2.6,0.5l0.1,0.3l-3.7,0.7l0.1,0.3l3.7-0.7l0.1,0.3
		l2.6-0.5c0.1,0.8,0.3,1.7,0.5,2.5l-1.4,0.3l0.1,0.4l1.4-0.3c0.2,0.9,0.4,1.8,0.6,2.8l-1.4,0.3l0.1,0.4l1.4-0.3
		c0.2,0.9,0.4,1.8,0.6,2.7l-1.4,0.3l0.1,0.4l1.4-0.3c0.2,0.9,0.4,1.8,0.6,2.7l-1.3,0.3l0.1,0.4l1.4-0.3c0.2,0.9,0.5,1.8,0.7,2.7
		l-1.3,0.4l0.1,0.4l1.3-0.4c0.2,0.9,0.5,1.8,0.7,2.7l-1.3,0.4l0.1,0.4l1.3-0.4c0.3,0.9,0.5,1.8,0.8,2.7l-1.3,0.4l0.1,0.4l1.3-0.4
		c0.3,0.9,0.6,1.8,0.9,2.7l-1.3,0.4l0.1,0.4l1.3-0.4c0.3,0.9,0.6,1.8,0.9,2.7l-1.3,0.4l0.1,0.4l1.3-0.4c0.3,0.8,0.5,1.6,0.8,2.4
		l-2.4,0.9l0.1,0.3l-3.5,1.3l0.1,0.3l3.5-1.3l0.1,0.3l2.4-0.9c0.3,0.8,0.6,1.6,0.9,2.4l-1.3,0.5l0.1,0.4l1.3-0.5
		c0.3,0.9,0.7,1.7,1,2.6l-1.3,0.5l0.1,0.4l1.3-0.5c0.3,0.9,0.7,1.7,1.1,2.6l-1.3,0.5l0.1,0.4l1.3-0.5c0.4,0.9,0.7,1.7,1.1,2.6
		l-1.2,0.5l0.2,0.4l1.2-0.6c0.4,0.9,0.8,1.7,1.2,2.6l-1.2,0.6l0.2,0.4l1.2-0.6c0.4,0.8,0.8,1.7,1.2,2.5L285,346l0.2,0.3l1.2-0.6
		c0.4,0.8,0.8,1.7,1.3,2.5l-1.2,0.6l0.2,0.3l1.2-0.6c0.4,0.8,0.9,1.7,1.3,2.5l-1.2,0.6l0.2,0.3l1.2-0.6c0.4,0.8,0.9,1.6,1.4,2.5
		l-1.2,0.7l0.2,0.3l1.2-0.7c0.4,0.8,0.8,1.5,1.3,2.2l-2.3,1.3l0.1,0.2l-3.3,1.9l0.2,0.3l3.3-1.9l0.1,0.2l2.3-1.3
		c0.4,0.7,0.8,1.5,1.3,2.2l-1.2,0.7l0.2,0.3l1.2-0.7c0.5,0.8,1,1.6,1.5,2.4l-1.2,0.7l0.2,0.3l1.2-0.7c0.5,0.8,1,1.6,1.5,2.4
		l-1.2,0.8l0.2,0.3l1.2-0.8c0.5,0.8,1,1.6,1.6,2.3l-1.2,0.8l0.2,0.3l1.2-0.8c0.5,0.8,1.1,1.6,1.6,2.3l-1.1,0.8l0.2,0.3l1.2-0.8
		c0.5,0.8,1.1,1.5,1.6,2.3l-1.2,0.8l0.2,0.3l1.2-0.8c0.6,0.8,1.1,1.5,1.7,2.3l-1.2,0.9l0.2,0.3l1.1-0.9c0.6,0.7,1.1,1.5,1.7,2.2
		l-1.1,0.9l0.2,0.3l1.1-0.9c0.6,0.7,1.2,1.5,1.8,2.2l-1.1,0.9l0.2,0.3l1.1-0.9c0.5,0.7,1.1,1.3,1.6,2l-2,1.7l0.2,0.2l-2.9,2.4
		l0.2,0.2l2.9-2.4l0.2,0.2l2-1.7c0.5,0.7,1.1,1.3,1.7,2l-1.1,0.9l0.3,0.3l1.1-1c0.6,0.7,1.2,1.4,1.9,2.1l-1.1,1l0.3,0.3l1.1-1
		c0.6,0.7,1.3,1.4,1.9,2.1l-1.1,1l0.3,0.3l1.1-1c0.6,0.7,1.3,1.4,1.9,2l-1.1,1l0.3,0.3l1-1c0.7,0.7,1.3,1.4,2,2l-1,1l0.3,0.3l1-1
		c0.7,0.7,1.3,1.3,2,2l-1,1l0.3,0.3l1-1.1c0.7,0.6,1.4,1.3,2,1.9l-1,1.1l0.3,0.3l1-1.1c0.7,0.6,1.4,1.3,2.1,1.9l-1,1.1l0.3,0.3
		l1-1.1c0.7,0.6,1.4,1.2,2.1,1.9l-1,1.1l0.3,0.3l1-1.1c0.6,0.6,1.3,1.1,2,1.7l-1.7,2l0.2,0.2l-2.4,2.9l0.2,0.2l2.4-2.9l0.2,0.2
		l1.7-2c0.7,0.5,1.3,1.1,2,1.6l-0.9,1.1l0.3,0.2l0.9-1.1c0.7,0.6,1.4,1.2,2.2,1.8l-0.9,1.1l0.3,0.2l0.9-1.1c0.7,0.6,1.5,1.1,2.2,1.7
		l-0.9,1.2l0.3,0.2l0.9-1.1c0.7,0.6,1.5,1.1,2.3,1.7l-0.8,1.2l0.3,0.2l0.9-1.2c0.8,0.6,1.5,1.1,2.3,1.7l-0.8,1.1l0.3,0.2l0.8-1.2
		c0.8,0.5,1.5,1.1,2.3,1.6l-0.8,1.2l0.3,0.2l0.8-1.2c0.8,0.5,1.6,1,2.3,1.6l-0.8,1.2l0.3,0.2l0.8-1.2c0.8,0.5,1.6,1,2.4,1.5
		l-0.7,1.2l0.3,0.2l0.8-1.2c0.8,0.5,1.6,1,2.4,1.5l-0.7,1.2l0.3,0.2l0.7-1.2c0.7,0.4,1.5,0.9,2.2,1.3l-1.3,2.3l0.2,0.1l-1.9,3.3
		l0.3,0.2l1.9-3.3l0.3,0.1l1.3-2.2c0.7,0.4,1.5,0.8,2.2,1.3l-0.7,1.2l0.3,0.2l0.7-1.2c0.8,0.4,1.6,0.9,2.5,1.4l-0.6,1.2l0.3,0.2
		l0.6-1.2c0.8,0.4,1.7,0.9,2.5,1.3l-0.6,1.2l0.3,0.2l0.6-1.2c0.9,0.4,1.7,0.8,2.5,1.3l-0.6,1.2l0.3,0.2l0.6-1.2
		c0.8,0.4,1.7,0.8,2.5,1.2l-0.6,1.3l0.4,0.2l0.6-1.2c0.9,0.4,1.7,0.8,2.6,1.2l-0.6,1.2l0.4,0.2l0.6-1.3c0.9,0.4,1.7,0.8,2.6,1.1
		l-0.5,1.3l0.4,0.1l0.5-1.3c0.9,0.4,1.7,0.7,2.6,1.1l-0.5,1.3l0.4,0.1l0.5-1.3c0.9,0.4,1.7,0.7,2.6,1l-0.5,1.3l0.4,0.1l0.5-1.3
		c0.8,0.3,1.6,0.6,2.4,0.9l-0.9,2.4l0.3,0.1l-1.3,3.5l0.3,0.1l1.3-3.5l0.3,0.1l0.9-2.4c0.8,0.3,1.6,0.6,2.4,0.8l-0.4,1.3l0.4,0.1
		l0.4-1.3c0.9,0.3,1.8,0.6,2.7,0.9l-0.4,1.3l0.4,0.1l0.4-1.3c0.9,0.3,1.8,0.6,2.7,0.9l-0.4,1.3l0.4,0.1l0.4-1.3
		c0.9,0.3,1.8,0.5,2.7,0.8l-0.4,1.3l0.4,0.1l0.4-1.3c0.9,0.3,1.8,0.5,2.7,0.7l-0.4,1.4l0.4,0.1l0.4-1.3c0.9,0.2,1.8,0.5,2.7,0.7
		l-0.3,1.4l0.4,0.1l0.3-1.4c0.9,0.2,1.8,0.4,2.7,0.6l-0.3,1.4l0.4,0.1l0.3-1.4c0.9,0.2,1.8,0.4,2.8,0.6l-0.3,1.4l0.4,0.1l0.3-1.4
		c0.9,0.2,1.8,0.4,2.8,0.6l-0.3,1.4l0.4,0.1l0.3-1.4c0.8,0.2,1.7,0.3,2.5,0.5l-0.5,2.6l0.3,0l-0.7,3.7l0.3,0.1l0.7-3.7l0.3,0
		l0.5-2.6c0.8,0.1,1.7,0.3,2.5,0.4l-0.2,1.4l0.4,0.1l0.2-1.4c0.9,0.1,1.9,0.3,2.8,0.4l-0.2,1.4l0.4,0.1l0.2-1.4
		c0.9,0.1,1.9,0.3,2.8,0.4l-0.2,1.4l0.4,0.1l0.2-1.4c0.9,0.1,1.9,0.2,2.8,0.3l-0.1,1.4l0.4,0.1l0.1-1.4c0.9,0.1,1.9,0.2,2.8,0.3
		l-0.1,1.5l0.4,0l0.1-1.5c0.9,0.1,1.9,0.2,2.8,0.2l-0.1,1.5l0.4,0l0.1-1.5c0.9,0.1,1.9,0.1,2.8,0.2l-0.1,1.5l0.4,0l0.1-1.5
		c0.9,0,1.9,0.1,2.8,0.1l-0.1,1.5l0.4,0l0.1-1.5c0.9,0,1.9,0.1,2.8,0.1l0,1.5l0.4,0l0-1.5c0.9,0,1.7,0,2.6,0v2.7h0.3v3.8h0.3v-3.8
		h0.3v-2.7c0.9,0,1.7,0,2.6,0l0,1.5l0.4,0l0-1.5c0.9,0,1.9,0,2.8-0.1l0.1,1.5l0.4,0l-0.1-1.5c0.9,0,1.9-0.1,2.8-0.1l0.1,1.5l0.4,0
		l-0.1-1.5c0.9,0,1.9-0.1,2.8-0.2l0.1,1.5l0.4,0l-0.1-1.5c0.9-0.1,1.9-0.1,2.8-0.2l0.1,1.4l0.4,0l-0.1-1.5c0.9-0.1,1.9-0.2,2.8-0.3
		l0.2,1.4l0.4,0l-0.2-1.5c0.9-0.1,1.9-0.2,2.8-0.3l0.2,1.4l0.4,0l-0.2-1.4c0.9-0.1,1.9-0.2,2.8-0.4l0.2,1.4l0.4,0l-0.2-1.4
		c0.9-0.1,1.9-0.3,2.8-0.4l0.2,1.4l0.4-0.1l-0.2-1.4c0.8-0.1,1.7-0.2,2.5-0.4l0.4,2.6l0.3,0l0.7,3.7l0.3-0.1l-0.6-3.7l0.3,0
		l-0.5-2.6c0.8-0.2,1.7-0.3,2.5-0.5l0.3,1.4l0.4-0.1l-0.3-1.4c0.9-0.2,1.8-0.4,2.7-0.6l0.3,1.4l0.4-0.1l-0.3-1.4
		c0.9-0.2,1.8-0.4,2.8-0.6l0.3,1.4l0.4-0.1l-0.3-1.4c0.9-0.2,1.8-0.4,2.7-0.6l0.3,1.3l0.4-0.1l-0.3-1.4c0.9-0.2,1.8-0.5,2.7-0.7
		l0.4,1.3l0.4-0.1l-0.4-1.4c0.9-0.2,1.8-0.5,2.7-0.7l0.4,1.3l0.4-0.1l-0.4-1.3c0.9-0.3,1.8-0.5,2.7-0.8l0.4,1.3l0.4-0.1l-0.4-1.3
		c0.9-0.3,1.8-0.6,2.7-0.8l0.4,1.3l0.4-0.1l-0.4-1.3c0.9-0.3,1.8-0.6,2.7-0.9l0.4,1.3l0.4-0.1l-0.5-1.3c0.8-0.3,1.6-0.5,2.4-0.8
		l0.9,2.4l0.2-0.1l1.3,3.5l0.3-0.1l-1.3-3.5l0.2-0.1l-0.9-2.4c0.8-0.3,1.6-0.6,2.4-0.9l0.5,1.3l0.4-0.1l-0.5-1.3
		c0.9-0.3,1.7-0.7,2.6-1l0.5,1.3l0.4-0.1l-0.5-1.3c0.9-0.4,1.7-0.7,2.6-1.1l0.5,1.3l0.3-0.1l-0.5-1.3c0.9-0.4,1.7-0.7,2.6-1.1
		l0.6,1.2l0.3-0.1l-0.5-1.3c0.8-0.4,1.7-0.8,2.5-1.2l0.6,1.2l0.4-0.2l-0.6-1.2c0.8-0.4,1.7-0.8,2.5-1.2l0.6,1.2l0.4-0.2l-0.6-1.2
		c0.9-0.4,1.7-0.8,2.5-1.3l0.6,1.2l0.4-0.2l-0.6-1.2c0.8-0.4,1.7-0.9,2.5-1.3l0.6,1.2l0.3-0.2l-0.6-1.2c0.8-0.4,1.6-0.9,2.5-1.4
		l0.7,1.2l0.4-0.2l-0.7-1.2c0.7-0.4,1.5-0.8,2.2-1.3l1.3,2.3l0.2-0.1l1.9,3.3l0.3-0.2l-1.9-3.3l0.2-0.1l-1.3-2.3
		c0.7-0.4,1.5-0.9,2.2-1.3l0.7,1.2l0.3-0.2l-0.7-1.2c0.8-0.5,1.6-1,2.4-1.5l0.7,1.2l0.3-0.2l-0.8-1.2c0.8-0.5,1.6-1,2.4-1.5l0.8,1.2
		l0.3-0.2l-0.8-1.2c0.8-0.5,1.6-1,2.4-1.6l0.8,1.2l0.3-0.2l-0.8-1.2c0.8-0.5,1.6-1.1,2.3-1.6l0.8,1.1l0.3-0.2l-0.8-1.2
		c0.8-0.5,1.5-1.1,2.3-1.6l0.8,1.2l0.3-0.2l-0.9-1.2c0.8-0.5,1.5-1.1,2.3-1.7l0.8,1.1l0.3-0.2l-0.9-1.2c0.7-0.6,1.5-1.1,2.2-1.7
		l0.9,1.1l0.3-0.2l-0.9-1.1c0.7-0.6,1.5-1.2,2.2-1.8l0.9,1.1l0.3-0.2l-0.9-1.1c0.7-0.5,1.3-1.1,2-1.6l1.7,2.1l0.2-0.2l2.4,2.9
		l0.2-0.2l-2.4-2.9l0.2-0.2l-1.7-2c0.7-0.6,1.3-1.1,1.9-1.7l1,1.1l0.3-0.3l-1-1.1c0.7-0.6,1.4-1.2,2.1-1.9l1,1.1l0.3-0.3l-1-1.1
		c0.7-0.6,1.4-1.3,2.1-1.9l1,1.1l0.3-0.3l-1-1.1c0.7-0.6,1.4-1.3,2-1.9l1,1.1l0.3-0.3l-1-1.1c0.7-0.7,1.4-1.3,2-2l1,1l0.3-0.3l-1-1
		c0.7-0.7,1.3-1.3,2-2l1,1l0.3-0.3l-1.1-1c0.7-0.7,1.3-1.4,1.9-2l1.1,1l0.3-0.3l-1.1-1c0.6-0.7,1.3-1.4,1.9-2.1l1.1,1l0.3-0.3
		l-1.1-1c0.6-0.7,1.3-1.4,1.9-2.1l1.1,1l0.2-0.3l-1.1-1c0.6-0.7,1.1-1.3,1.7-2l2,1.7l0.2-0.2l2.9,2.4l0.2-0.2l-2.9-2.4l0.2-0.2
		l-2-1.7c0.5-0.7,1.1-1.3,1.6-2l1.1,0.9l0.2-0.3l-1.1-0.9c0.6-0.7,1.2-1.5,1.8-2.2l1.1,0.9l0.3-0.3l-1.1-0.9
		c0.6-0.7,1.1-1.5,1.7-2.2l1.1,0.9l0.2-0.3l-1.1-0.9c0.6-0.8,1.1-1.5,1.7-2.3l1.2,0.8l0.2-0.3l-1.2-0.8c0.6-0.8,1.1-1.5,1.7-2.3
		l1.1,0.8l0.2-0.3l-1.2-0.8c0.6-0.8,1.1-1.5,1.6-2.3l1.2,0.8l0.2-0.3l-1.2-0.8c0.5-0.8,1.1-1.6,1.6-2.3l1.2,0.8l0.2-0.3l-1.2-0.8
		c0.5-0.8,1-1.6,1.5-2.4l1.2,0.7l0.2-0.3l-1.2-0.7c0.5-0.8,1-1.6,1.5-2.4l1.2,0.7l0.2-0.3l-1.2-0.7c0.4-0.7,0.9-1.5,1.3-2.2l2.3,1.3
		l0.1-0.2l3.3,1.9l0.1-0.3L612,358l0.1-0.2l-2.2-1.3c0.4-0.7,0.8-1.5,1.3-2.2l1.2,0.7l0.2-0.3l-1.2-0.7c0.5-0.8,0.9-1.6,1.4-2.5
		l1.2,0.6l0.2-0.3l-1.2-0.6c0.4-0.8,0.9-1.7,1.3-2.5l1.2,0.6l0.2-0.3l-1.2-0.6c0.4-0.8,0.9-1.7,1.3-2.5l1.2,0.6l0.2-0.3l-1.2-0.6
		c0.4-0.9,0.8-1.7,1.2-2.5l1.2,0.6l0.2-0.3l-1.2-0.6c0.4-0.9,0.8-1.7,1.2-2.6l1.2,0.6l0.2-0.4l-1.2-0.6c0.4-0.9,0.7-1.7,1.1-2.6
		l1.3,0.5l0.1-0.4l-1.3-0.5c0.4-0.9,0.7-1.7,1.1-2.6l1.3,0.5l0.1-0.4l-1.3-0.5c0.3-0.9,0.7-1.7,1-2.6l1.3,0.5l0.1-0.4l-1.3-0.5
		c0.3-0.8,0.6-1.6,0.9-2.4l2.4,0.9l0.1-0.3l3.5,1.3l0.1-0.3l-3.5-1.3l0.1-0.3l-2.4-0.9c0.3-0.8,0.6-1.6,0.9-2.4l1.3,0.4l0.1-0.4
		l-1.3-0.4c0.3-0.9,0.6-1.8,0.9-2.7l1.3,0.4l0.1-0.4l-1.3-0.4c0.3-0.9,0.6-1.8,0.9-2.7l1.3,0.4l0.1-0.4l-1.3-0.4
		c0.3-0.9,0.5-1.8,0.8-2.7l1.3,0.4l0.1-0.4l-1.3-0.4c0.3-0.9,0.5-1.8,0.8-2.7l1.3,0.4l0.1-0.4l-1.3-0.4c0.2-0.9,0.5-1.8,0.7-2.7
		l1.4,0.3l0.1-0.4l-1.4-0.3c0.2-0.9,0.4-1.8,0.7-2.7l1.4,0.3l0.1-0.4l-1.4-0.3c0.2-0.9,0.4-1.8,0.6-2.8l1.4,0.3l0.1-0.4l-1.4-0.3
		c0.2-0.9,0.4-1.8,0.5-2.8l1.4,0.3l0.1-0.4l-1.4-0.3c0.2-0.8,0.3-1.7,0.5-2.5l2.6,0.5l0.1-0.3l3.7,0.6l0.1-0.3l-3.7-0.7l0-0.3
		l-2.6-0.5c0.1-0.8,0.3-1.7,0.4-2.5l1.4,0.2l0.1-0.4l-1.4-0.2c0.1-0.9,0.3-1.9,0.4-2.8l1.4,0.2l0.1-0.4l-1.4-0.2
		c0.1-0.9,0.2-1.9,0.4-2.8l1.4,0.2l0-0.4l-1.4-0.2c0.1-0.9,0.2-1.9,0.3-2.8l1.4,0.2l0-0.4l-1.4-0.1c0.1-0.9,0.2-1.9,0.3-2.8l1.4,0.1
		l0-0.4l-1.5-0.1c0.1-0.9,0.2-1.9,0.2-2.8l1.4,0.1l0-0.4l-1.4-0.1c0.1-0.9,0.1-1.9,0.2-2.8l1.4,0.1l0-0.4l-1.5-0.1
		c0-0.9,0.1-1.9,0.1-2.8l1.4,0.1l0-0.4l-1.5,0c0-0.9,0.1-1.9,0.1-2.8l1.5,0l0-0.4l-1.5,0c0-0.8,0-1.7,0-2.6h2.7v-0.3l3.8,0V265.1z
		 M633.3,268.2l-1.4,0v0.4l1.4,0c0,0.9-0.1,1.9-0.1,2.8l-1.4,0l0,0.4l1.4,0.1c0,0.9-0.1,1.9-0.1,2.8l-1.5-0.1l0,0.4l1.4,0.1
		c0,0.9-0.1,1.9-0.2,2.8l-1.4-0.1l0,0.4l1.4,0.1c-0.1,0.9-0.1,1.9-0.2,2.8l-1.5-0.1l0,0.4l1.5,0.1c-0.1,0.9-0.2,1.9-0.3,2.8
		l-1.5-0.2l0,0.4l1.5,0.2c-0.1,0.9-0.2,1.9-0.3,2.8l-1.4-0.2l0,0.4l1.4,0.2c-0.1,0.9-0.2,1.9-0.4,2.8l-1.4-0.2l-0.1,0.4l1.4,0.2
		c-0.1,0.9-0.2,1.9-0.4,2.8l-1.5-0.2l-0.1,0.4l1.4,0.2c-0.1,0.8-0.3,1.7-0.4,2.5l-2.6-0.5l-0.1,0.3l-3.7-0.7l-0.1,0.3l3.7,0.7l0,0.3
		l2.6,0.5c-0.2,0.8-0.3,1.7-0.5,2.5l-1.4-0.3l-0.1,0.4l1.4,0.3c-0.2,0.9-0.4,1.8-0.6,2.7l-1.4-0.3l-0.1,0.4l1.4,0.3
		c-0.2,0.9-0.4,1.8-0.6,2.7l-1.4-0.3l-0.1,0.4l1.4,0.3c-0.2,0.9-0.4,1.8-0.7,2.7l-1.4-0.4l-0.1,0.4l1.4,0.4
		c-0.2,0.9-0.4,1.8-0.7,2.7l-1.4-0.4l-0.1,0.4l1.4,0.4c-0.2,0.9-0.5,1.8-0.7,2.7l-1.4-0.4l-0.1,0.4l1.4,0.4
		c-0.2,0.9-0.5,1.8-0.8,2.7l-1.4-0.4l-0.1,0.4l1.4,0.4c-0.3,0.9-0.5,1.8-0.8,2.7l-1.4-0.4l-0.1,0.4l1.4,0.5
		c-0.3,0.9-0.6,1.8-0.9,2.7l-1.4-0.5l-0.1,0.4l1.4,0.5c-0.3,0.8-0.6,1.6-0.9,2.4l-2.5-0.9l-0.1,0.3l-3.5-1.3l-0.1,0.3l3.5,1.3
		l-0.1,0.3l2.5,0.9c-0.3,0.8-0.6,1.6-0.9,2.4l-1.4-0.5l-0.1,0.4l1.4,0.5c-0.3,0.9-0.7,1.7-1,2.6l-1.4-0.5l-0.1,0.4l1.3,0.5
		c-0.4,0.9-0.7,1.7-1.1,2.6l-1.4-0.6l-0.1,0.3l1.3,0.6c-0.4,0.9-0.8,1.7-1.1,2.6l-1.3-0.6l-0.1,0.3l1.3,0.6
		c-0.4,0.9-0.8,1.7-1.2,2.6l-1.3-0.6l-0.1,0.3l1.3,0.6c-0.4,0.8-0.8,1.7-1.2,2.5l-1.3-0.6l-0.2,0.4l1.3,0.6
		c-0.4,0.8-0.8,1.7-1.3,2.5l-1.3-0.6l-0.2,0.3l1.3,0.7c-0.4,0.8-0.9,1.6-1.3,2.5l-1.3-0.7l-0.2,0.3l1.3,0.7
		c-0.4,0.8-0.9,1.6-1.4,2.5l-1.2-0.7l-0.2,0.3l1.2,0.7c-0.4,0.8-0.8,1.5-1.3,2.2l-2.3-1.3l-0.1,0.2l-3.3-1.9l-0.2,0.3l3.3,1.9
		l-0.1,0.2l2.2,1.3c-0.4,0.7-0.8,1.5-1.3,2.2l-1.2-0.7l-0.2,0.3l1.2,0.7c-0.5,0.8-1,1.6-1.5,2.4l-1.2-0.7l-0.2,0.3l1.2,0.7
		c-0.5,0.8-1,1.6-1.5,2.4l-1.2-0.8l-0.2,0.3l1.2,0.8c-0.5,0.8-1,1.6-1.5,2.3l-1.2-0.8l-0.2,0.3l1.2,0.8c-0.5,0.8-1.1,1.5-1.6,2.3
		l-1.1-0.8l-0.2,0.3l1.1,0.8c-0.5,0.8-1.1,1.5-1.6,2.3l-1.1-0.8l-0.2,0.3l1.1,0.8c-0.5,0.8-1.1,1.5-1.7,2.3l-1.1-0.8l-0.2,0.3
		l1.1,0.8c-0.6,0.7-1.1,1.5-1.7,2.2l-1.1-0.9l-0.2,0.3l1.1,0.8c-0.6,0.7-1.2,1.5-1.8,2.2l-1.1-0.9l-0.2,0.3l1.1,0.9
		c-0.5,0.7-1.1,1.3-1.6,2l-2-1.7l-0.2,0.2l-2.9-2.4l-0.2,0.3l2.9,2.4l-0.2,0.2l2,1.6c-0.5,0.7-1.1,1.3-1.7,2l-1-0.9l-0.2,0.3l1,0.9
		c-0.6,0.7-1.2,1.4-1.9,2.1l-1-0.9l-0.2,0.3l1,0.9c-0.6,0.7-1.3,1.4-1.9,2.1l-1-0.9l-0.2,0.3l1,0.9c-0.6,0.7-1.3,1.4-1.9,2l-1-0.9
		L581,391l1,0.9c-0.6,0.7-1.3,1.3-1.9,2l-1-1l-0.3,0.3l1,1c-0.7,0.7-1.3,1.3-2,2l-1-1l-0.3,0.3l0.9,1c-0.7,0.7-1.4,1.3-2,1.9l-0.9-1
		l-0.3,0.3l0.9,1c-0.7,0.6-1.4,1.3-2.1,1.9l-0.9-1l-0.3,0.3l0.9,1c-0.7,0.6-1.4,1.2-2.1,1.9l-0.9-1l-0.3,0.3l0.9,1
		c-0.6,0.6-1.3,1.1-1.9,1.7l-1.6-2l-0.2,0.2l-2.4-2.9l-0.3,0.2l2.4,2.9l-0.2,0.2l1.7,2c-0.6,0.6-1.3,1.1-2,1.6l-0.9-1.1l-0.3,0.2
		l0.9,1.1c-0.7,0.6-1.5,1.2-2.2,1.8l-0.9-1.1l-0.3,0.2l0.8,1.1c-0.7,0.6-1.5,1.1-2.2,1.7l-0.9-1.1l-0.3,0.2l0.8,1.1
		c-0.8,0.6-1.5,1.1-2.3,1.7l-0.8-1.1l-0.3,0.2l0.8,1.1c-0.8,0.6-1.5,1.1-2.3,1.6l-0.8-1.1l-0.3,0.2l0.8,1.1
		c-0.8,0.5-1.5,1.1-2.3,1.6l-0.8-1.2l-0.3,0.2l0.8,1.2c-0.8,0.5-1.6,1-2.3,1.5l-0.8-1.2l-0.3,0.2l0.8,1.2c-0.8,0.5-1.6,1-2.4,1.5
		l-0.7-1.2l-0.3,0.2l0.7,1.2c-0.8,0.5-1.6,1-2.4,1.5l-0.7-1.2l-0.3,0.2l0.7,1.2c-0.7,0.4-1.4,0.9-2.2,1.3l-1.3-2.3l-0.2,0.1
		l-1.9-3.3l-0.3,0.2l1.9,3.3l-0.2,0.1l1.3,2.3c-0.7,0.4-1.5,0.8-2.2,1.3l-0.7-1.2l-0.3,0.2l0.7,1.2c-0.8,0.5-1.6,0.9-2.5,1.3
		l-0.7-1.3l-0.3,0.2l0.7,1.3c-0.8,0.4-1.7,0.9-2.5,1.3l-0.6-1.3l-0.3,0.2l0.7,1.3c-0.8,0.4-1.7,0.8-2.5,1.2l-0.6-1.3l-0.3,0.2
		l0.6,1.3c-0.8,0.4-1.7,0.8-2.5,1.2l-0.6-1.3l-0.3,0.2l0.6,1.3c-0.8,0.4-1.7,0.8-2.5,1.2l-0.6-1.3l-0.4,0.2l0.6,1.3
		c-0.9,0.4-1.7,0.8-2.6,1.1l-0.6-1.3l-0.4,0.1l0.6,1.3c-0.9,0.4-1.7,0.7-2.6,1.1l-0.6-1.3l-0.3,0.1l0.5,1.3c-0.9,0.4-1.7,0.7-2.6,1
		l-0.5-1.3l-0.3,0.1l0.5,1.4c-0.8,0.3-1.6,0.6-2.4,0.9l-0.9-2.5l-0.3,0.1l-1.3-3.5l-0.3,0.1l1.3,3.5l-0.3,0.1l0.9,2.5
		c-0.8,0.3-1.6,0.6-2.4,0.9l-0.5-1.4l-0.4,0.1l0.5,1.4c-0.9,0.3-1.8,0.6-2.7,0.9l-0.5-1.4l-0.4,0.1l0.5,1.4
		c-0.9,0.3-1.8,0.6-2.7,0.8l-0.4-1.4l-0.4,0.1l0.4,1.4c-0.9,0.3-1.8,0.5-2.7,0.8l-0.4-1.4l-0.4,0.1l0.4,1.4
		c-0.9,0.3-1.8,0.5-2.7,0.7l-0.4-1.4l-0.4,0.1l0.4,1.4c-0.9,0.2-1.8,0.5-2.7,0.7l-0.3-1.4l-0.4,0.1l0.3,1.4
		c-0.9,0.2-1.8,0.5-2.7,0.7l-0.3-1.4l-0.4,0.1l0.3,1.4c-0.9,0.2-1.8,0.4-2.7,0.6l-0.3-1.4l-0.4,0.1l0.3,1.4
		c-0.9,0.2-1.8,0.4-2.7,0.6l-0.3-1.4l-0.4,0.1l0.3,1.4c-0.9,0.1-1.7,0.3-2.5,0.5l-0.5-2.6l-0.3,0l-0.7-3.7l-0.3,0.1l0.6,3.7
		l-0.3,0.1l0.5,2.6c-0.9,0.1-1.7,0.3-2.5,0.4l-0.2-1.5l-0.4,0.1l0.2,1.5c-0.9,0.1-1.8,0.3-2.8,0.4l-0.2-1.4l-0.4,0.1l0.2,1.4
		c-0.9,0.1-1.9,0.2-2.8,0.4l-0.2-1.4l-0.4,0l0.2,1.5c-0.9,0.1-1.9,0.2-2.8,0.3l-0.1-1.4l-0.4,0l0.2,1.5c-0.9,0.1-1.9,0.2-2.8,0.3
		l-0.1-1.4l-0.4,0l0.1,1.5c-0.9,0.1-1.9,0.2-2.8,0.2l-0.1-1.5l-0.4,0l0.1,1.4c-0.9,0.1-1.9,0.1-2.8,0.2l-0.1-1.4l-0.4,0l0.1,1.5
		c-0.9,0.1-1.9,0.1-2.8,0.1l-0.1-1.4l-0.4,0l0.1,1.4c-0.9,0-1.9,0.1-2.8,0.1l0-1.4l-0.4,0l0,1.4c-0.8,0-1.7,0-2.6,0v-2.7h-0.3v-3.8
		l-0.3,0v3.8h-0.3v2.7c-0.9,0-1.7,0-2.6,0l0-1.4l-0.4,0l0,1.4c-0.9,0-1.9,0-2.8-0.1l0-1.4l-0.4,0l-0.1,1.4c-0.9,0-1.9,0-2.8-0.1
		l0.1-1.5l-0.4,0l-0.1,1.4c-0.9,0-1.9-0.1-2.8-0.2l0.1-1.4l-0.4,0l-0.1,1.5c-0.9-0.1-1.9-0.2-2.8-0.2l0.1-1.5l-0.4,0l-0.1,1.4
		c-0.9-0.1-1.9-0.2-2.8-0.3l0.2-1.5l-0.4,0l-0.2,1.4c-0.9-0.1-1.9-0.2-2.8-0.3l0.2-1.4l-0.4,0l-0.2,1.4c-0.9-0.1-1.9-0.2-2.8-0.4
		l0.2-1.4l-0.4-0.1l-0.2,1.4c-0.9-0.1-1.8-0.3-2.8-0.4l0.2-1.5l-0.4-0.1l-0.2,1.4c-0.8-0.1-1.7-0.3-2.5-0.4l0.5-2.6l-0.3,0l0.7-3.7
		l-0.3-0.1l-0.6,3.7l-0.3,0l-0.5,2.6c-0.8-0.1-1.7-0.3-2.5-0.5l0.3-1.4l-0.4-0.1l-0.3,1.4c-0.9-0.2-1.8-0.4-2.7-0.6l0.3-1.4
		l-0.4-0.1l-0.3,1.4c-0.9-0.2-1.8-0.4-2.7-0.6l0.3-1.4l-0.4-0.1l-0.3,1.4c-0.9-0.2-1.8-0.4-2.7-0.7l0.4-1.4l-0.4-0.1l-0.4,1.4
		c-0.9-0.2-1.8-0.5-2.7-0.7l0.4-1.4l-0.4-0.1l-0.4,1.4c-0.9-0.2-1.8-0.5-2.7-0.7l0.4-1.4l-0.4-0.1l-0.4,1.4
		c-0.9-0.3-1.8-0.5-2.7-0.8l0.4-1.4l-0.4-0.1l-0.4,1.4c-0.9-0.3-1.8-0.6-2.7-0.8l0.5-1.4l-0.4-0.1l-0.5,1.4
		c-0.9-0.3-1.8-0.6-2.7-0.9l0.5-1.4l-0.4-0.1l-0.5,1.4c-0.8-0.3-1.6-0.6-2.4-0.9l0.9-2.5l-0.3-0.1l1.3-3.5l-0.3-0.1l-1.3,3.5
		l-0.3-0.1l-0.9,2.5c-0.8-0.3-1.6-0.6-2.4-0.9l0.5-1.4l-0.3-0.1l-0.5,1.3c-0.9-0.3-1.7-0.7-2.6-1l0.5-1.3l-0.4-0.1l-0.5,1.3
		c-0.9-0.4-1.7-0.7-2.6-1.1l0.6-1.3l-0.4-0.1l-0.6,1.3c-0.9-0.4-1.7-0.7-2.6-1.1l0.6-1.3l-0.3-0.1l-0.6,1.3
		c-0.9-0.4-1.7-0.8-2.6-1.2l0.6-1.3l-0.4-0.2l-0.6,1.3c-0.8-0.4-1.7-0.8-2.5-1.2l0.6-1.3l-0.3-0.2l-0.6,1.3
		c-0.8-0.4-1.7-0.8-2.5-1.2l0.7-1.3l-0.3-0.2l-0.6,1.3c-0.8-0.4-1.7-0.9-2.5-1.3l0.7-1.3l-0.4-0.2l-0.7,1.2
		c-0.8-0.4-1.7-0.9-2.5-1.3l0.7-1.2l-0.3-0.2l-0.7,1.2c-0.7-0.4-1.5-0.8-2.2-1.2l1.3-2.3l-0.2-0.1l1.9-3.3l-0.3-0.2l-1.9,3.3
		l-0.2-0.1l-1.3,2.3c-0.7-0.4-1.5-0.9-2.2-1.3l0.7-1.2l-0.3-0.2l-0.7,1.2c-0.8-0.5-1.6-1-2.4-1.5l0.7-1.2l-0.3-0.2l-0.7,1.2
		c-0.8-0.5-1.6-1-2.4-1.5l0.8-1.2l-0.3-0.2l-0.8,1.2c-0.8-0.5-1.6-1-2.3-1.5l0.8-1.2l-0.3-0.2l-0.8,1.2c-0.8-0.5-1.5-1.1-2.3-1.6
		l0.8-1.1l-0.3-0.2l-0.8,1.1c-0.8-0.5-1.5-1.1-2.3-1.6l0.8-1.1l-0.3-0.2l-0.8,1.1c-0.8-0.6-1.5-1.1-2.3-1.7l0.8-1.1l-0.3-0.2
		l-0.8,1.1c-0.8-0.6-1.5-1.1-2.2-1.7l0.8-1.1l-0.3-0.2l-0.9,1.1c-0.7-0.6-1.4-1.2-2.2-1.7l0.9-1.1l-0.3-0.2l-0.9,1.1
		c-0.7-0.5-1.3-1.1-2-1.6l1.7-2l-0.2-0.2l2.4-2.9l-0.2-0.2l-2.4,2.9l-0.2-0.2l-1.7,2c-0.6-0.6-1.3-1.1-2-1.7l0.9-1l-0.3-0.3l-0.9,1
		c-0.7-0.6-1.4-1.2-2.1-1.9l0.9-1l-0.3-0.3l-0.9,1c-0.7-0.6-1.4-1.3-2.1-1.9l0.9-1l-0.3-0.3l-0.9,1c-0.7-0.6-1.4-1.3-2-1.9l0.9-1
		l-0.3-0.3l-0.9,1c-0.7-0.7-1.3-1.3-2-2l1-1l-0.3-0.3l-1,1c-0.7-0.7-1.3-1.3-2-2l1-0.9l-0.3-0.3l-1,0.9c-0.6-0.7-1.3-1.4-1.9-2
		l1-0.9l-0.3-0.3l-1,0.9c-0.6-0.7-1.3-1.4-1.9-2.1l1-0.9l-0.3-0.3l-1,0.9c-0.6-0.7-1.2-1.4-1.9-2.1l1-0.9l-0.3-0.3l-1,0.9
		c-0.6-0.6-1.1-1.3-1.7-2l2-1.6l-0.2-0.2l2.9-2.4l-0.2-0.3l-2.9,2.4l-0.2-0.2l-2,1.7c-0.6-0.6-1.1-1.3-1.6-2l1.1-0.9l-0.2-0.3
		l-1.1,0.9c-0.6-0.7-1.2-1.4-1.8-2.2l1.1-0.9l-0.2-0.3l-1.1,0.8c-0.6-0.7-1.1-1.5-1.7-2.2l1.1-0.8l-0.2-0.3l-1.1,0.8
		c-0.6-0.8-1.1-1.5-1.7-2.3l1.1-0.8l-0.2-0.3l-1.1,0.8c-0.5-0.8-1.1-1.5-1.6-2.3l1.1-0.8l-0.2-0.3l-1.1,0.8
		c-0.5-0.8-1.1-1.5-1.6-2.3l1.2-0.8l-0.2-0.3l-1.2,0.8c-0.5-0.8-1-1.6-1.5-2.3l1.2-0.8l-0.2-0.3l-1.2,0.8c-0.5-0.8-1-1.6-1.5-2.4
		l1.2-0.7l-0.2-0.3l-1.2,0.7c-0.5-0.8-1-1.6-1.5-2.4l1.2-0.7l-0.2-0.3l-1.2,0.7c-0.4-0.7-0.9-1.5-1.3-2.2l2.3-1.3l-0.1-0.2l3.3-1.9
		l-0.1-0.3l-3.3,1.9l-0.1-0.2l-2.3,1.3c-0.4-0.7-0.9-1.5-1.3-2.2l1.2-0.7l-0.2-0.3l-1.2,0.7c-0.4-0.8-0.9-1.6-1.3-2.5l1.3-0.7
		l-0.2-0.3l-1.3,0.7c-0.4-0.8-0.9-1.6-1.3-2.5l1.3-0.7l-0.2-0.3l-1.3,0.6c-0.4-0.8-0.8-1.7-1.2-2.5l1.3-0.6l-0.2-0.4L287,345
		c-0.4-0.8-0.8-1.7-1.2-2.5l1.3-0.6l-0.2-0.3l-1.3,0.6c-0.4-0.9-0.8-1.7-1.2-2.5l1.3-0.6l-0.1-0.3l-1.3,0.6
		c-0.4-0.8-0.8-1.7-1.1-2.6l1.4-0.6l-0.1-0.3l-1.4,0.6c-0.4-0.9-0.7-1.7-1.1-2.6l1.4-0.5l-0.1-0.3l-1.3,0.5c-0.4-0.9-0.7-1.7-1-2.6
		l1.4-0.5l-0.2-0.4l-1.3,0.5c-0.3-0.8-0.6-1.6-0.9-2.4l2.5-0.9l-0.1-0.3l3.5-1.3l-0.1-0.3l-3.5,1.3l-0.1-0.3l-2.5,0.9
		c-0.3-0.8-0.6-1.6-0.9-2.4l1.4-0.5l-0.1-0.4l-1.4,0.5c-0.3-0.9-0.6-1.8-0.9-2.7l1.4-0.5l-0.1-0.4l-1.4,0.4
		c-0.3-0.9-0.6-1.8-0.9-2.7l1.4-0.4l-0.1-0.4l-1.4,0.4c-0.3-0.9-0.5-1.8-0.8-2.7l1.4-0.4l-0.1-0.4l-1.4,0.4
		c-0.3-0.9-0.5-1.8-0.7-2.7l1.4-0.4l-0.1-0.4l-1.4,0.4c-0.2-0.9-0.5-1.8-0.7-2.7l1.4-0.3l-0.1-0.4l-1.4,0.4
		c-0.2-0.9-0.5-1.8-0.7-2.7l1.4-0.3l-0.1-0.4l-1.4,0.3c-0.2-0.9-0.4-1.8-0.6-2.7l1.4-0.3l-0.1-0.4l-1.4,0.3
		c-0.2-0.9-0.4-1.8-0.6-2.7l1.4-0.3l-0.1-0.4l-1.4,0.3c-0.2-0.8-0.3-1.7-0.5-2.5l2.6-0.5l0-0.3l3.7-0.7l-0.1-0.3l-3.7,0.7l0-0.3
		l-2.7,0.5c-0.1-0.8-0.3-1.7-0.4-2.5l1.4-0.2l-0.1-0.4l-1.4,0.2c-0.1-0.9-0.3-1.8-0.4-2.8l1.5-0.2l-0.1-0.4l-1.4,0.2
		c-0.1-0.9-0.3-1.9-0.4-2.8l1.5-0.2l-0.1-0.4l-1.4,0.2c-0.1-0.9-0.2-1.9-0.3-2.8l1.4-0.2l0-0.4l-1.4,0.2c-0.1-0.9-0.2-1.9-0.3-2.8
		l1.4-0.1l0-0.4l-1.4,0.1c-0.1-0.9-0.2-1.9-0.2-2.8l1.5-0.1l0-0.4l-1.4,0.1c-0.1-0.9-0.1-1.9-0.2-2.8l1.4-0.1l0-0.4l-1.4,0.1
		c-0.1-0.9-0.1-1.9-0.1-2.8l1.4-0.1l0-0.4l-1.4,0c0-0.9-0.1-1.9-0.1-2.8l1.4,0l0-0.4l-1.4,0c0-0.9,0-1.7,0-2.6h2.6v-0.3h3.8v-0.3
		h-3.8v-0.3h-2.7c0-0.9,0-1.7,0-2.6l1.4,0v-0.4l-1.4,0c0-0.9,0-1.9,0.1-2.8l1.4,0l0-0.4l-1.4-0.1c0-0.9,0-1.9,0.1-2.8l1.4,0.1l0-0.4
		l-1.4-0.1c0.1-0.9,0.1-1.9,0.2-2.8l1.4,0.1l0-0.4l-1.5-0.1c0.1-0.9,0.1-1.9,0.2-2.8l1.4,0.1l0-0.4l-1.4-0.1
		c0.1-0.9,0.1-1.9,0.3-2.8l1.5,0.2l0-0.4l-1.4-0.2c0.1-0.9,0.2-1.9,0.3-2.8l1.4,0.2l0.1-0.4l-1.5-0.2c0.1-0.9,0.2-1.9,0.4-2.8
		l1.4,0.2l0.1-0.4l-1.5-0.2c0.1-0.9,0.3-1.8,0.4-2.8l1.4,0.2l0.1-0.4l-1.4-0.2c0.1-0.9,0.3-1.7,0.4-2.5l2.7,0.5l0-0.3l3.7,0.7
		l0.1-0.3l-3.7-0.7l0-0.3l-2.6-0.5c0.1-0.8,0.3-1.7,0.5-2.5l1.4,0.3l0.1-0.4l-1.4-0.3c0.2-0.9,0.4-1.8,0.6-2.7l1.4,0.3l0.1-0.4
		l-1.4-0.3c0.2-0.9,0.4-1.8,0.6-2.7l1.4,0.3l0.1-0.4l-1.4-0.3c0.2-0.9,0.4-1.8,0.7-2.7l1.4,0.4l0.1-0.4l-1.4-0.4
		c0.2-0.9,0.5-1.8,0.7-2.7l1.4,0.4l0.1-0.4l-1.4-0.4c0.2-0.9,0.5-1.8,0.7-2.7l1.4,0.4l0.1-0.4l-1.4-0.4c0.3-0.9,0.5-1.8,0.8-2.7
		l1.4,0.4l0.1-0.4l-1.4-0.4c0.3-0.9,0.6-1.8,0.9-2.7l1.4,0.4l0.1-0.4l-1.4-0.4c0.3-0.9,0.6-1.8,0.9-2.7l1.4,0.5l0.1-0.4l-1.4-0.5
		c0.3-0.8,0.6-1.6,0.9-2.4l2.5,0.9l0.1-0.3l3.5,1.3l0.1-0.3l-3.5-1.3l0.1-0.3l-2.5-0.9c0.3-0.8,0.6-1.6,0.9-2.4l1.4,0.5l0.1-0.4
		l-1.4-0.5c0.3-0.9,0.7-1.7,1-2.6l1.3,0.5l0.1-0.3l-1.4-0.5c0.4-0.9,0.7-1.7,1.1-2.6l1.4,0.6l0.1-0.3l-1.4-0.6
		c0.4-0.9,0.8-1.7,1.1-2.6l1.3,0.6l0.1-0.4l-1.3-0.6c0.4-0.9,0.8-1.7,1.2-2.5l1.3,0.6l0.2-0.3l-1.3-0.6c0.4-0.9,0.8-1.7,1.2-2.5
		l1.3,0.6l0.2-0.3l-1.3-0.6c0.4-0.8,0.8-1.7,1.2-2.5l1.3,0.6l0.2-0.3l-1.3-0.6c0.4-0.8,0.9-1.7,1.3-2.5l1.3,0.7l0.2-0.3l-1.3-0.7
		c0.4-0.8,0.9-1.6,1.3-2.5l1.3,0.7l0.2-0.3l-1.2-0.7c0.4-0.7,0.8-1.5,1.3-2.2l2.3,1.3l0.1-0.2l3.3,1.9l0.1-0.3l-3.3-1.9l0.1-0.3
		l-2.3-1.3c0.4-0.7,0.9-1.5,1.3-2.2l1.2,0.7l0.2-0.3l-1.2-0.7c0.5-0.8,1-1.6,1.5-2.4l1.2,0.7l0.2-0.3l-1.2-0.7
		c0.5-0.8,1-1.6,1.5-2.4l1.2,0.8l0.2-0.3l-1.2-0.8c0.5-0.8,1-1.6,1.5-2.3l1.2,0.8l0.2-0.3l-1.2-0.8c0.5-0.8,1.1-1.5,1.6-2.3l1.1,0.8
		l0.2-0.3l-1.1-0.8c0.5-0.8,1.1-1.5,1.6-2.3l1.1,0.8l0.2-0.3l-1.1-0.8c0.6-0.7,1.1-1.5,1.7-2.2l1.1,0.8l0.2-0.3l-1.1-0.8
		c0.6-0.7,1.1-1.5,1.7-2.2l1.1,0.9l0.2-0.3l-1.1-0.8c0.6-0.7,1.2-1.5,1.8-2.2l1.1,0.9l0.2-0.3l-1.1-0.9c0.5-0.7,1.1-1.3,1.6-2l2,1.7
		l0.2-0.2l2.9,2.4l0.2-0.3l-2.9-2.4l0.2-0.2l-2-1.7c0.5-0.7,1.1-1.3,1.7-2l1,0.9l0.3-0.3l-1-0.9c0.6-0.7,1.2-1.4,1.9-2.1l1,0.9
		l0.3-0.3l-1-0.9c0.6-0.7,1.3-1.4,1.9-2.1l1,0.9l0.3-0.3l-1-0.9c0.6-0.7,1.3-1.4,1.9-2l1,0.9l0.3-0.3l-1-0.9c0.7-0.7,1.3-1.3,2-2
		l1,1l0.3-0.3l-1-1c0.7-0.7,1.3-1.3,2-2l1,1l0.3-0.3l-0.9-1c0.7-0.7,1.4-1.3,2-1.9l0.9,1l0.3-0.3l-0.9-1c0.7-0.6,1.4-1.3,2.1-1.9
		l0.9,1l0.3-0.3l-0.9-1c0.7-0.6,1.4-1.2,2.1-1.9l0.9,1l0.3-0.2l-0.9-1c0.6-0.6,1.3-1.1,2-1.6l1.7,2l0.2-0.2l2.4,2.9l0.2-0.2
		l-2.4-2.9l0.2-0.2l-1.7-2c0.7-0.5,1.3-1.1,2-1.6l0.9,1.1l0.3-0.2l-0.9-1.1c0.7-0.6,1.4-1.2,2.2-1.7l0.9,1.1l0.3-0.2l-0.8-1.1
		c0.7-0.6,1.5-1.1,2.2-1.7l0.8,1.1l0.3-0.2l-0.8-1.1c0.7-0.6,1.5-1.1,2.3-1.7l0.8,1.1l0.3-0.2l-0.8-1.1c0.8-0.6,1.5-1.1,2.3-1.6
		l0.8,1.1l0.3-0.2l-0.8-1.1c0.8-0.5,1.5-1.1,2.3-1.6l0.8,1.2l0.3-0.2l-0.8-1.1c0.8-0.5,1.6-1,2.3-1.6l0.8,1.2l0.3-0.2l-0.8-1.2
		c0.8-0.5,1.6-1,2.4-1.5l0.7,1.2l0.3-0.2l-0.7-1.2c0.8-0.5,1.6-1,2.4-1.5l0.7,1.2l0.3-0.2l-0.7-1.2c0.7-0.4,1.5-0.9,2.2-1.3l1.3,2.3
		l0.2-0.1l1.9,3.3l0.3-0.2l-1.9-3.3l0.2-0.1l-1.3-2.3c0.7-0.4,1.5-0.8,2.2-1.3l0.7,1.2l0.3-0.2l-0.7-1.2c0.8-0.5,1.6-0.9,2.5-1.3
		l0.7,1.3l0.4-0.2l-0.7-1.3c0.8-0.4,1.7-0.9,2.5-1.3l0.6,1.3l0.3-0.2l-0.7-1.3c0.8-0.4,1.7-0.8,2.5-1.3l0.6,1.3l0.3-0.2l-0.6-1.3
		c0.8-0.4,1.7-0.8,2.5-1.2l0.6,1.3l0.4-0.2l-0.6-1.3c0.8-0.4,1.7-0.8,2.6-1.2l0.6,1.3l0.3-0.2l-0.6-1.3c0.9-0.4,1.7-0.8,2.6-1.1
		l0.6,1.3l0.4-0.1l-0.6-1.3c0.9-0.4,1.7-0.7,2.6-1.1l0.5,1.3l0.4-0.1l-0.5-1.3c0.9-0.4,1.7-0.7,2.6-1l0.5,1.4l0.3-0.1l-0.5-1.4
		c0.8-0.3,1.6-0.6,2.4-0.9l0.9,2.5l0.3-0.1l1.3,3.5l0.3-0.1l-1.3-3.5l0.3-0.1l-0.9-2.5c0.8-0.3,1.6-0.6,2.4-0.9l0.5,1.4l0.4-0.1
		l-0.5-1.4c0.9-0.3,1.8-0.6,2.7-0.9l0.5,1.4l0.4-0.1l-0.5-1.4c0.9-0.3,1.8-0.6,2.7-0.8l0.4,1.4l0.4-0.1l-0.4-1.4
		c0.9-0.3,1.8-0.5,2.7-0.8l0.4,1.4l0.4-0.1l-0.4-1.4c0.9-0.3,1.8-0.5,2.7-0.7l0.4,1.4l0.4-0.1v0L404,89c0.9-0.2,1.8-0.5,2.7-0.7
		l0.4,1.4l0.4-0.1l-0.4-1.4c0.9-0.2,1.8-0.5,2.7-0.7l0.3,1.4l0.4-0.1v0l-0.3-1.4c0.9-0.2,1.8-0.4,2.7-0.6l0.3,1.4l0.4-0.1l-0.3-1.4
		c0.9-0.2,1.8-0.4,2.7-0.5l0.3,1.4l0.4-0.1l-0.3-1.4c0.8-0.2,1.7-0.3,2.5-0.5l0.5,2.6l0.3,0l0.6,3.7l0.3,0l-0.7-3.7l0.3-0.1
		l-0.5-2.6c0.8-0.2,1.7-0.3,2.5-0.4l0.2,1.5l0.4-0.1l-0.2-1.5c0.9-0.1,1.8-0.3,2.8-0.4l0.2,1.4L426,86l-0.2-1.4
		c0.9-0.1,1.8-0.3,2.8-0.4l0.2,1.4l0.4,0l-0.2-1.4c0.9-0.1,1.9-0.2,2.8-0.3l0.2,1.4l0.4,0v0l-0.2-1.4c0.9-0.1,1.9-0.2,2.8-0.2
		L435,85l0.4,0v0l-0.1-1.4c0.9-0.1,1.9-0.2,2.8-0.2l0.1,1.5l0.4,0v0l-0.1-1.4c0.9-0.1,1.9-0.1,2.8-0.2l0.1,1.5l0.4,0l-0.1-1.5
		c0.9,0,1.9-0.1,2.8-0.1l0.1,1.4l0.4,0h0l0-1.4c0.9,0,1.9-0.1,2.8-0.1l0,1.4l0.4,0l0-1.4c0.9,0,1.7,0,2.5,0v2.7h0.3v3.8h0.3v-3.8
		h0.3v-2.7c0.9,0,1.7,0,2.6,0l0,1.4l0.4,0l0-1.4c0.9,0,1.9,0,2.8,0.1l-0.1,1.4l0.4,0l0.1-1.4c0.9,0,1.9,0.1,2.8,0.1l-0.1,1.5l0.4,0
		l0.1-1.4c0.9,0,1.9,0.1,2.8,0.2l-0.1,1.4l0.4,0l0.1-1.5c0.9,0.1,1.9,0.1,2.8,0.2l-0.1,1.4l0.4,0l0.1-1.4c0.9,0.1,1.9,0.2,2.8,0.2
		l-0.2,1.5l0.4,0l0.1-1.4c0.9,0.1,1.9,0.2,2.8,0.3l-0.2,1.4l0.4,0l0.2-1.4c0.9,0.1,1.9,0.2,2.8,0.4L476,86l0.4,0l0.2-1.4
		c0.9,0.1,1.9,0.3,2.8,0.4l-0.2,1.4l0.4,0.1l0.2-1.4c0.9,0.1,1.7,0.3,2.5,0.4l-0.5,2.6l0.3,0.1l-0.6,3.7l0.3,0l0.7-3.7l0.3,0
		l0.5-2.6c0.8,0.1,1.7,0.3,2.5,0.5l-0.3,1.4l0.4,0.1l0.3-1.4c0.9,0.2,1.8,0.4,2.7,0.5l-0.3,1.4l0.4,0.1l0.3-1.4
		c0.9,0.2,1.8,0.4,2.7,0.6l-0.3,1.4l0.4,0.1l0.3-1.4c0.9,0.2,1.8,0.4,2.7,0.7l-0.3,1.4l0.4,0.1l0.4-1.4c0.9,0.2,1.8,0.5,2.7,0.7
		l-0.4,1.4l0.4,0.1l0.4-1.4c0.9,0.2,1.8,0.5,2.7,0.7l-0.4,1.4l0.4,0.1l0.4-1.4c0.9,0.3,1.8,0.5,2.7,0.8l-0.4,1.4l0.4,0.1l0.4-1.4
		c0.9,0.3,1.8,0.6,2.7,0.8l-0.4,1.4l0.3,0.1l0.5-1.4c0.9,0.3,1.8,0.6,2.7,0.9l-0.5,1.4l0.4,0.1l0.5-1.4c0.8,0.3,1.6,0.6,2.4,0.9
		l-0.9,2.5l0.3,0.1l-1.3,3.5l0.3,0.1l1.3-3.5l0.3,0.1l0.9-2.5c0.8,0.3,1.6,0.6,2.4,0.9l-0.5,1.4l0.3,0.1l0.5-1.4
		c0.9,0.3,1.7,0.7,2.6,1l-0.6,1.3l0.3,0.1l0.6-1.3c0.9,0.4,1.7,0.7,2.6,1.1l-0.6,1.3l0.4,0.1l0.6-1.3c0.9,0.4,1.7,0.7,2.6,1.1
		l-0.6,1.3l0.4,0.1l0.6-1.3c0.9,0.4,1.7,0.8,2.5,1.2l-0.6,1.3l0.3,0.2l0.6-1.3c0.8,0.4,1.7,0.8,2.5,1.2l-0.6,1.3l0.3,0.2l0.6-1.3
		c0.8,0.4,1.7,0.8,2.5,1.2L533,104l0.3,0.2l0.6-1.3c0.8,0.4,1.7,0.9,2.5,1.3l-0.7,1.3l0.3,0.2l0.7-1.2c0.8,0.4,1.6,0.9,2.5,1.3
		l-0.7,1.2l0.3,0.2l0.7-1.2c0.7,0.4,1.5,0.8,2.2,1.2l-1.3,2.3l0.2,0.1l-1.9,3.3l0.3,0.2l1.9-3.3l0.2,0.1l1.3-2.3
		c0.7,0.4,1.5,0.9,2.2,1.3L544,110l0.3,0.2l0.7-1.2c0.8,0.5,1.6,1,2.4,1.5l-0.7,1.2l0.3,0.2l0.7-1.2c0.8,0.5,1.6,1,2.4,1.5l-0.8,1.2
		l0.3,0.2l0.8-1.2c0.8,0.5,1.6,1,2.3,1.5l-0.8,1.1l0.3,0.2l0.8-1.2c0.8,0.5,1.5,1.1,2.3,1.6l-0.8,1.1l0.3,0.2l0.8-1.1
		c0.8,0.5,1.5,1.1,2.3,1.6l-0.8,1.1l0.3,0.2l0.8-1.1c0.7,0.6,1.5,1.1,2.2,1.7l-0.8,1.1l0.3,0.2l0.9-1.1c0.7,0.6,1.5,1.1,2.2,1.7
		l-0.9,1.1l0.3,0.2l0.9-1.1c0.7,0.6,1.5,1.2,2.2,1.7l-0.9,1.1l0.3,0.2l0.9-1.1c0.6,0.5,1.3,1.1,1.9,1.6l-1.7,2l0.2,0.2l-2.4,2.9
		l0.3,0.2l2.4-2.9l0.2,0.2l1.6-2c0.7,0.5,1.3,1.1,1.9,1.6l-0.9,1.1l0.3,0.2l0.9-1c0.7,0.6,1.4,1.2,2.1,1.9l-0.9,1l0.3,0.3l0.9-1
		c0.7,0.6,1.4,1.3,2.1,1.9l-0.9,1l0.3,0.3l0.9-1c0.7,0.6,1.4,1.3,2,1.9l-1,1l0.3,0.3l0.9-1c0.7,0.6,1.4,1.3,2,2l-1,1l0.3,0.3l1-1
		c0.7,0.7,1.3,1.3,2,2l-1,1l0.3,0.3l1-0.9c0.6,0.7,1.3,1.4,1.9,2l-1,0.9l0.2,0.3l1-0.9c0.6,0.7,1.3,1.4,1.9,2.1l-1,0.9l0.2,0.3
		l1-0.9c0.6,0.7,1.2,1.4,1.9,2.1l-1,0.9l0.2,0.3l1.1-0.9c0.6,0.6,1.1,1.3,1.6,1.9l-2,1.7l0.2,0.2l-2.9,2.4l0.2,0.3l2.9-2.4l0.2,0.2
		l2-1.7c0.5,0.7,1.1,1.3,1.6,2l-1.1,0.9l0.2,0.3l1.1-0.9c0.6,0.7,1.2,1.5,1.7,2.2l-1.1,0.9l0.2,0.3l1.1-0.8c0.6,0.7,1.1,1.5,1.7,2.2
		l-1.1,0.8l0.2,0.3l1.1-0.8c0.6,0.7,1.1,1.5,1.6,2.2l-1.1,0.8l0.2,0.3l1.1-0.8c0.6,0.8,1.1,1.5,1.6,2.3l-1.1,0.8l0.2,0.3l1.2-0.8
		c0.5,0.8,1.1,1.5,1.6,2.3l-1.2,0.8l0.2,0.3l1.2-0.8c0.5,0.8,1,1.6,1.5,2.3l-1.2,0.8l0.2,0.3l1.2-0.7c0.5,0.8,1,1.6,1.5,2.4
		l-1.2,0.7l0.2,0.3l1.2-0.7c0.5,0.8,1,1.6,1.5,2.4l-1.2,0.7l0.2,0.3l1.2-0.7c0.4,0.7,0.9,1.5,1.3,2.2l-2.2,1.3l0.1,0.2l-3.3,1.9
		l0.2,0.3l3.3-1.9l0.1,0.2l2.3-1.3c0.4,0.7,0.8,1.5,1.3,2.2l-1.2,0.7l0.2,0.3l1.2-0.7c0.4,0.8,0.9,1.6,1.3,2.5l-1.3,0.7l0.2,0.3
		l1.3-0.7c0.4,0.8,0.9,1.6,1.3,2.5l-1.3,0.6l0.2,0.3l1.3-0.6c0.4,0.8,0.8,1.7,1.2,2.5l-1.3,0.6l0.2,0.3l1.3-0.6
		c0.4,0.8,0.8,1.7,1.2,2.5l-1.3,0.6l0.1,0.3l1.3-0.6c0.4,0.8,0.8,1.7,1.2,2.5l-1.3,0.6l0.2,0.4l1.3-0.6c0.4,0.9,0.7,1.7,1.1,2.6
		l-1.3,0.6l0.2,0.3l1.3-0.6c0.4,0.9,0.7,1.7,1.1,2.6l-1.3,0.5l0.1,0.3l1.4-0.5c0.4,0.9,0.7,1.7,1,2.6l-1.4,0.5l0.1,0.4l1.4-0.5
		c0.3,0.8,0.6,1.6,0.9,2.4l-2.5,0.9l0.1,0.3l-3.5,1.3l0.1,0.3l3.5-1.3l0.1,0.3l2.5-0.9c0.3,0.8,0.6,1.6,0.9,2.4l-1.4,0.5l0.1,0.4
		l1.4-0.5c0.3,0.9,0.6,1.8,0.9,2.7l-1.4,0.5l0.1,0.4l1.4-0.4c0.3,0.9,0.6,1.8,0.9,2.7l-1.4,0.4l0.1,0.4l1.4-0.4
		c0.3,0.9,0.5,1.8,0.8,2.7l-1.4,0.4l0.1,0.4l1.4-0.4c0.3,0.9,0.5,1.8,0.7,2.7l-1.4,0.4l0.1,0.4l1.4-0.4c0.2,0.9,0.5,1.8,0.7,2.7
		l-1.4,0.4l0.1,0.4l1.4-0.4c0.2,0.9,0.4,1.8,0.7,2.7l-1.4,0.3l0.1,0.4l1.4-0.3c0.2,0.9,0.4,1.8,0.6,2.7l-1.4,0.3l0.1,0.4l1.4-0.3
		c0.2,0.9,0.4,1.8,0.5,2.7l-1.4,0.3l0.1,0.4l1.4-0.3c0.2,0.8,0.3,1.7,0.5,2.5l-2.7,0.5l0.1,0.3l-3.7,0.7l0.1,0.3l3.7-0.7l0.1,0.3
		l2.6-0.5c0.1,0.8,0.3,1.7,0.4,2.5l-1.5,0.2l0.1,0.4l1.5-0.2c0.1,0.9,0.3,1.8,0.4,2.8l-1.4,0.2l0.1,0.4l1.4-0.2
		c0.1,0.9,0.3,1.9,0.4,2.8l-1.5,0.2l0,0.4l1.4-0.2c0.1,0.9,0.2,1.8,0.3,2.8l-1.5,0.2l0,0.4l1.4-0.2c0.1,0.9,0.2,1.9,0.3,2.8
		l-1.5,0.1l0,0.4l1.5-0.1c0.1,0.9,0.1,1.9,0.2,2.8l-1.5,0.1l0.1,0.4l1.4-0.1c0.1,0.9,0.1,1.9,0.2,2.8l-1.4,0.1l0,0.4l1.5-0.1
		c0,0.9,0.1,1.9,0.1,2.8l-1.4,0.1l0,0.4l1.4,0c0,0.9,0.1,1.9,0.1,2.8l-1.5,0l0,0.4l1.4,0c0,0.8,0,1.7,0,2.6h-2.7v0.3h-3.8v0.3h3.8
		v0.3h2.7C633.4,266.5,633.4,267.4,633.3,268.2"/>
</g>
<g>
	<circle class="st8" cx="449" cy="264" r="152"/>
</g>
<path class="st9" d="M562.9,332.4c-2.9,4.8-6.1,9.4-9.6,13.7"/>
<g id="XMLID_3112_">
	<g id="XMLID_3199_">
		<path id="XMLID_3200_" class="st5" d="M810,455.7c0,5.1-4.2,9.3-9.3,9.3c-5.1,0-9.3-4.2-9.3-9.3s4.2-9.3,9.3-9.3
			C805.8,446.4,810,450.6,810,455.7z M809.1,455.7c0-4.6-3.8-8.4-8.4-8.4c-4.6,0-8.4,3.8-8.4,8.4c0,4.6,3.8,8.4,8.4,8.4
			C805.3,464.1,809.1,460.3,809.1,455.7z"/>
	</g>
	<g id="XMLID_3169_">
		<g id="XMLID_3180_">
			<g id="XMLID_3193_">
				<path id="XMLID_3195_" class="st5" d="M746.3,413.7c0-0.2,0-0.3,0-0.4L746.3,413.7L746.3,413.7z M736.6,398.1
					c-0.7-0.4-1.5-0.7-2.2-0.9C735.1,397.5,735.8,397.8,736.6,398.1z M715.8,424.6c-0.5-0.6-1-1.3-1.4-2
					C714.8,423.3,715.2,424,715.8,424.6z"/>
				<path id="XMLID_3194_" class="st5" d="M729,430.9c-3.3,0-6.3-0.9-8.9-2.5c-0.5-0.3-0.9-0.6-1.4-0.9c-0.2-0.1-0.4-0.3-0.6-0.5
					c-0.2-0.2-0.4-0.3-0.6-0.5c-0.3-0.3-0.6-0.5-0.9-0.9c-0.3-0.3-0.6-0.6-0.8-0.9c-0.5-0.6-1-1.3-1.4-2c-0.4-0.6-0.7-1.2-1-1.9
					c-1-2.1-1.5-4.5-1.5-7l-6-0.1v0.1c0,3.4,0.7,6.6,2,9.5c0.2,0.5,0.5,1.1,0.8,1.6c0,0,0,0.1,0.1,0.1c0.2,0.4,0.5,0.8,0.7,1.3
					c0.1,0.2,0.2,0.4,0.4,0.6c0.2,0.3,0.4,0.6,0.7,1c0.2,0.3,0.4,0.5,0.6,0.8c0,0.1,0.1,0.1,0.1,0.2c0.4,0.5,0.9,1.1,1.4,1.6
					c0.3,0.3,0.5,0.5,0.8,0.8c0.5,0.5,1.1,1,1.7,1.4c0.7,0.5,1.4,1,2.1,1.4c0.1,0.1,0.2,0.1,0.3,0.2c3.4,2,7.4,3.1,11.5,3.1
					L729,430.9z"/>
			</g>
			<g id="XMLID_3183_">
				<path id="XMLID_3184_" class="st5" d="M740.7,393.5L740.7,393.5c-0.2-0.1-0.4-0.2-0.5-0.3C740.4,393.3,740.5,393.4,740.7,393.5
					L740.7,393.5z M717.5,400.9l-4.1-4.5c-1.8,1.6-3.3,3.5-4.6,5.7c-1.2,2.1-2.1,4.4-2.6,6.8l5.9,1.2c0.4-1.7,1-3.4,1.9-5
					C715,403.5,716.2,402.1,717.5,400.9z M750.5,404.6c-0.1-0.2-0.1-0.3-0.2-0.5l0,0C750.4,404.3,750.5,404.5,750.5,404.6z
					 M752.4,413.7l-1,0l-5-0.1v0c0,1.2-0.1,2.4-0.4,3.5l5.9,1.3C752.2,416.9,752.4,415.3,752.4,413.7z M712.6,430.1
					c-0.5-0.5-1-1-1.4-1.6C711.6,429,712.1,429.6,712.6,430.1z M715.1,432.2c-0.6-0.4-1.2-0.9-1.7-1.4
					C714,431.4,714.5,431.8,715.1,432.2z M717.5,433.8L717.5,433.8c-0.1-0.1-0.2-0.1-0.3-0.2C717.3,433.7,717.4,433.8,717.5,433.8z
					 M744.7,430.9l-4-4.5c-2.7,2.4-6.1,4-9.7,4.3l0.6,6C736.4,436.3,741.1,434.2,744.7,430.9z"/>
			</g>
			<g id="XMLID_3181_">
				<path id="XMLID_3182_" class="st5" d="M750.3,404.2c-2-4.5-5.4-8.3-9.6-10.7c-0.2-0.1-0.3-0.2-0.5-0.3c-0.6-0.3-1.2-0.6-1.8-0.9
					c-0.2-0.1-0.3-0.2-0.5-0.2c-0.4-0.2-0.9-0.3-1.3-0.5c-0.5-0.2-1-0.3-1.4-0.4c-0.4-0.1-0.9-0.2-1.3-0.3c-0.1,0-0.2-0.1-0.4-0.1
					c-0.4-0.1-0.8-0.2-1.3-0.2c0,0,0,0,0,0c-0.4-0.1-0.9-0.1-1.3-0.1c-0.6-0.1-1.1-0.1-1.7-0.1v6c0.3,0,0.6,0,0.9,0
					c0.3,0,0.6,0,0.8,0.1c0.6,0.1,1.2,0.1,1.7,0.3c0.5,0.1,1,0.2,1.4,0.4c0.1,0,0.2,0.1,0.3,0.1c0.8,0.2,1.5,0.5,2.2,0.9
					c0.3,0.1,0.5,0.2,0.7,0.4c3.3,1.8,6,4.7,7.5,8.1L750.3,404.2z"/>
			</g>
		</g>
		<g id="XMLID_3170_">
			<g id="XMLID_3176_">
				<path id="XMLID_3177_" class="st5" d="M745,413.7c0,8.8-7.1,15.9-15.9,15.9c-8.8,0-15.9-7.1-15.9-15.9c0-8.8,7.1-15.9,15.9-15.9
					C737.9,397.7,745,404.9,745,413.7z M743.5,413.7c0-7.9-6.5-14.4-14.4-14.4c-7.9,0-14.4,6.5-14.4,14.4c0,7.9,6.5,14.4,14.4,14.4
					C737,428.1,743.5,421.6,743.5,413.7z"/>
			</g>
			<g id="XMLID_3171_">
				<path id="XMLID_3172_" class="st5" d="M724.8,406.1c-2.7,1.5-4.4,4.4-4.4,7.5l-3,0c0-4.2,2.3-8.1,5.9-10.2L724.8,406.1z
					 M740.8,413.7L740.8,413.7h-3c0-3.1-1.7-6-4.3-7.5l1.5-2.6C738.6,405.6,740.8,409.5,740.8,413.7z M733.4,421.2l1.5,2.6
					c-3.6,2-8.2,2-11.7,0l1.5-2.6C727.3,422.7,730.8,422.7,733.4,421.2z"/>
			</g>
		</g>
	</g>
	<path id="XMLID_3168_" class="st5" d="M800.9,461.1c-2.6,0-4.7-1.9-5.1-4.4h-23.4l-39.6-39.6c-0.9,1-2.2,1.6-3.7,1.6
		c-2.6,0-4.7-1.9-5.1-4.4H605.8L574,382.5c-0.9,0.6-1.9,1-3.1,1c-2.8,0-5.2-2.3-5.2-5.2c0-2.8,2.3-5.2,5.2-5.2
		c2.8,0,5.2,2.3,5.2,5.2c0,1.1-0.4,2.2-1,3.1l27.3,27.3H624h6.5h22.6l-0.1,0.1l4,4H724c0.4-2.5,2.5-4.4,5.1-4.4
		c2.8,0,5.2,2.3,5.2,5.2c0,0.8-0.2,1.6-0.6,2.3l39.3,39.3h22.8c0.4-2.5,2.5-4.4,5.1-4.4c2.8,0,5.2,2.3,5.2,5.2
		C806,458.8,803.7,461.1,800.9,461.1z"/>
	<polygon id="XMLID_3167_" class="st5" points="637.7,418.1 625.4,430.5 547.4,430.5 547.4,433.1 542.2,430.2 547.4,427.2 
		547.4,429.7 625.1,429.7 637.4,417.4 701.4,417.4 701.4,418.1 	"/>
	<g id="XMLID_3159_">
		<polygon id="XMLID_3166_" class="st5" points="644.5,421.5 638,425.3 644.5,429 		"/>
		<polygon id="XMLID_3165_" class="st5" points="652.6,421.5 646.1,425.3 652.6,429 		"/>
		<polygon id="XMLID_3164_" class="st5" points="660.8,421.5 654.2,425.3 660.8,429 		"/>
		<polygon id="XMLID_3163_" class="st5" points="668.9,421.5 662.3,425.3 668.9,429 		"/>
		<polygon id="XMLID_3162_" class="st5" points="677,421.5 670.4,425.3 677,429 		"/>
		<polygon id="XMLID_3161_" class="st5" points="685.1,421.5 678.6,425.3 685.1,429 		"/>
		<polygon id="XMLID_3160_" class="st5" points="693.2,421.5 686.7,425.3 693.2,429 		"/>
	</g>
	<g id="XMLID_3151_">
		<polygon id="XMLID_3158_" class="st5" points="792.5,359.6 794.4,352.3 787.1,354.2 		"/>
		<polygon id="XMLID_3157_" class="st5" points="786.7,365.3 788.7,358 781.4,360 		"/>
		<polygon id="XMLID_3156_" class="st5" points="781,371.1 782.9,363.8 775.6,365.7 		"/>
		<polygon id="XMLID_3155_" class="st5" points="775.2,376.8 777.2,369.5 769.9,371.5 		"/>
		<polygon id="XMLID_3154_" class="st5" points="769.5,382.6 771.4,375.2 764.1,377.2 		"/>
		<polygon id="XMLID_3153_" class="st5" points="763.7,388.3 765.7,381 758.4,382.9 		"/>
		<polygon id="XMLID_3152_" class="st5" points="758,394 760,386.7 752.6,388.7 		"/>
	</g>
	<polygon id="XMLID_3150_" class="st5" points="792.3,343 790.8,348.8 789,346.9 743.8,392.1 743.2,391.6 788.4,346.4 786.6,344.6 	
		"/>
</g>
<g id="XMLID_4717_">
	<g id="XMLID_4804_">
		<path id="XMLID_4805_" class="st5" d="M13.1,87c0-5.5,4.5-10,10-10c5.5,0,10,4.5,10,10s-4.5,10-10,10C17.6,97,13.1,92.5,13.1,87z
			 M14.1,87c0,5,4,9,9,9s9-4,9-9c0-5-4-9-9-9S14.1,82,14.1,87z"/>
	</g>
	<g id="XMLID_4774_">
		<g id="XMLID_4785_">
			<g id="XMLID_4798_">
				<path id="XMLID_4800_" class="st5" d="M81.6,132.2c0,0.2,0,0.3,0,0.5L81.6,132.2L81.6,132.2z M92.1,148.9c0.8,0.4,1.6,0.7,2.4,1
					C93.7,149.6,92.8,149.3,92.1,148.9z M114.4,120.4c0.6,0.7,1.1,1.4,1.5,2.2C115.5,121.8,115,121.1,114.4,120.4z"/>
				<path id="XMLID_4799_" class="st5" d="M100.2,113.7c3.5,0,6.8,1,9.6,2.7c0.5,0.3,1,0.6,1.5,1c0.2,0.1,0.5,0.3,0.7,0.5
					c0.2,0.2,0.5,0.4,0.7,0.6c0.3,0.3,0.7,0.6,0.9,0.9c0.3,0.3,0.6,0.7,0.9,1c0.6,0.7,1.1,1.4,1.5,2.2c0.4,0.6,0.8,1.3,1.1,2
					c1,2.3,1.6,4.9,1.6,7.6l6.5,0.1v-0.1c0-3.6-0.8-7.1-2.2-10.2c-0.3-0.6-0.5-1.1-0.8-1.7c0,0,0-0.1-0.1-0.1
					c-0.3-0.5-0.5-0.9-0.8-1.4c-0.1-0.2-0.3-0.4-0.4-0.6c-0.2-0.3-0.5-0.7-0.7-1c-0.2-0.3-0.4-0.5-0.6-0.8c0-0.1-0.1-0.1-0.1-0.2
					c-0.5-0.6-1-1.2-1.5-1.7c-0.3-0.3-0.6-0.6-0.9-0.8c-0.6-0.5-1.2-1-1.8-1.5c-0.7-0.6-1.5-1.1-2.3-1.5c-0.1-0.1-0.2-0.1-0.3-0.2
					c-3.7-2.1-7.9-3.3-12.4-3.4L100.2,113.7z"/>
			</g>
			<g id="XMLID_4788_">
				<path id="XMLID_4789_" class="st5" d="M87.6,153.9L87.6,153.9c0.2,0.1,0.4,0.2,0.6,0.3C88,154.1,87.8,154,87.6,153.9L87.6,153.9
					z M112.5,146l4.4,4.8c1.9-1.8,3.6-3.8,4.9-6.1c1.3-2.3,2.2-4.7,2.8-7.3l-6.4-1.3c-0.4,1.9-1.1,3.7-2.1,5.4
					C115.2,143.1,114,144.7,112.5,146z M77,141.9c0.1,0.2,0.1,0.3,0.2,0.5l0,0C77.2,142.2,77.1,142.1,77,141.9z M75.1,132.1l1.1,0
					l5.4,0.1v0c0-1.3,0.1-2.6,0.4-3.8l-6.3-1.4C75.3,128.7,75.1,130.4,75.1,132.1z M117.8,114.5c0.5,0.5,1.1,1.1,1.5,1.7
					C118.9,115.7,118.4,115.1,117.8,114.5z M115.1,112.2c0.6,0.5,1.2,1,1.8,1.5C116.4,113.2,115.8,112.7,115.1,112.2z M112.6,110.5
					L112.6,110.5c0.1,0.1,0.2,0.1,0.3,0.2C112.8,110.6,112.7,110.6,112.6,110.5z M83.3,113.6l4.3,4.8c2.9-2.6,6.6-4.3,10.5-4.7
					l-0.7-6.5C92.2,107.9,87.2,110.1,83.3,113.6z"/>
			</g>
			<g id="XMLID_4786_">
				<path id="XMLID_4787_" class="st5" d="M77.3,142.4c2.2,4.8,5.8,8.9,10.4,11.5c0.2,0.1,0.4,0.2,0.6,0.3c0.6,0.3,1.3,0.7,2,0.9
					c0.2,0.1,0.4,0.2,0.5,0.2c0.5,0.2,0.9,0.4,1.4,0.5c0.5,0.2,1,0.3,1.6,0.5c0.5,0.1,0.9,0.2,1.4,0.3c0.1,0,0.3,0.1,0.4,0.1
					c0.5,0.1,0.9,0.2,1.4,0.2c0,0,0,0,0,0c0.5,0.1,0.9,0.1,1.4,0.1c0.6,0.1,1.2,0.1,1.8,0.1v-6.5c-0.3,0-0.6,0-0.9,0
					c-0.3,0-0.6,0-0.9-0.1c-0.6-0.1-1.2-0.1-1.9-0.3c-0.5-0.1-1-0.2-1.6-0.4c-0.1,0-0.2-0.1-0.3-0.1c-0.8-0.3-1.6-0.6-2.4-1
					c-0.3-0.1-0.5-0.3-0.8-0.4c-3.6-1.9-6.4-5-8.1-8.7L77.3,142.4z"/>
			</g>
		</g>
		<g id="XMLID_4775_">
			<g id="XMLID_4781_">
				<path id="XMLID_4782_" class="st5" d="M83,132.2c0-9.4,7.7-17.1,17.1-17.1s17.1,7.7,17.1,17.1c0,9.4-7.7,17.1-17.1,17.1
					S83,141.7,83,132.2z M84.6,132.2c0,8.5,7,15.5,15.5,15.5s15.5-7,15.5-15.5c0-8.5-7-15.5-15.5-15.5S84.6,123.7,84.6,132.2z"/>
			</g>
			<g id="XMLID_4776_">
				<path id="XMLID_4777_" class="st5" d="M104.8,140.3c2.9-1.7,4.7-4.8,4.7-8.1l3.3,0c0,4.5-2.4,8.7-6.3,10.9L104.8,140.3z
					 M87.5,132.2L87.5,132.2h3.3c0,3.3,1.8,6.4,4.7,8.1l-1.6,2.8C89.9,140.9,87.5,136.7,87.5,132.2z M95.5,124.1l-1.6-2.8
					c3.8-2.2,8.8-2.2,12.6,0l-1.6,2.8C102,122.5,98.3,122.5,95.5,124.1z"/>
			</g>
		</g>
	</g>
	<path id="XMLID_4773_" class="st5" d="M22.9,81.2c2.8,0,5.1,2.1,5.5,4.7h25.2l42.6,42.6c1-1,2.4-1.7,4-1.7c2.8,0,5.1,2.1,5.5,4.7
		h127l34.2,34.2c0.9-0.7,2.1-1.1,3.3-1.1c3.1,0,5.5,2.5,5.5,5.5c0,3.1-2.5,5.5-5.5,5.5s-5.5-2.5-5.5-5.5c0-1.2,0.4-2.4,1.1-3.3
		l-29.3-29.3h-23.2h-7h-24.3l0.1-0.1l-4.3-4.3h-72.1c-0.4,2.7-2.7,4.7-5.5,4.7c-3.1,0-5.5-2.5-5.5-5.5c0-0.9,0.2-1.7,0.6-2.5
		L52.9,87.6H28.4c-0.4,2.7-2.7,4.7-5.5,4.7c-3.1,0-5.5-2.5-5.5-5.5C17.4,83.7,19.9,81.2,22.9,81.2z"/>
	<polygon id="XMLID_4772_" class="st5" points="198.3,127.4 211.6,114.1 295.5,114.1 295.5,111.2 301,114.4 295.5,117.7 
		295.5,114.9 212,114.9 198.7,128.2 129.9,128.2 129.9,127.4 	"/>
	<g id="XMLID_4764_">
		<polygon id="XMLID_4771_" class="st5" points="191,123.8 198.1,119.7 191,115.7 		"/>
		<polygon id="XMLID_4770_" class="st5" points="182.3,123.8 189.4,119.7 182.3,115.7 		"/>
		<polygon id="XMLID_4769_" class="st5" points="173.6,123.8 180.6,119.7 173.6,115.7 		"/>
		<polygon id="XMLID_4768_" class="st5" points="164.8,123.8 171.9,119.7 164.8,115.7 		"/>
		<polygon id="XMLID_4767_" class="st5" points="156.1,123.8 163.2,119.7 156.1,115.7 		"/>
		<polygon id="XMLID_4766_" class="st5" points="147.4,123.8 154.4,119.7 147.4,115.7 		"/>
		<polygon id="XMLID_4765_" class="st5" points="138.7,123.8 145.7,119.7 138.7,115.7 		"/>
	</g>
	<g id="XMLID_4756_">
		<polygon id="XMLID_4763_" class="st5" points="32,190.3 29.9,198.2 37.7,196.1 		"/>
		<polygon id="XMLID_4762_" class="st5" points="38.1,184.2 36,192 43.9,189.9 		"/>
		<polygon id="XMLID_4761_" class="st5" points="44.3,178 42.2,185.9 50.1,183.7 		"/>
		<polygon id="XMLID_4760_" class="st5" points="50.5,171.8 48.4,179.7 56.3,177.6 		"/>
		<polygon id="XMLID_4759_" class="st5" points="56.7,165.6 54.6,173.5 62.4,171.4 		"/>
		<polygon id="XMLID_4758_" class="st5" points="62.8,159.5 60.7,167.3 68.6,165.2 		"/>
		<polygon id="XMLID_4757_" class="st5" points="69,153.3 66.9,161.2 74.8,159.1 		"/>
	</g>
	<polygon id="XMLID_4755_" class="st5" points="32.1,208.2 33.7,202 35.7,203.9 84.3,155.4 84.9,155.9 36.3,204.5 38.3,206.5 	"/>
</g>
<path class="st10" d="M321.6,109.9c41.7-39.4,102.6-56.3,164.6-47.3"/>
<path class="st10" d="M400.5,458c-46.8-12.4-88.8-44.5-117.2-89.3"/>
<circle class="st11" cx="452" cy="264" r="245"/>
<circle class="st11" cx="452" cy="263" r="224"/>
<polygon id="XMLID_2_" class="st5" points="735.7,79.5 742.2,75.8 735.7,72 "/>
<image style="overflow:visible;" width="2222" height="2222" xlink:href="leida.png"
	   transform="matrix(0.1899 0 0 0.1899 241 53)">
</image>
<circle class="st12" cx="451.5" cy="264.3" r="107"/>
<circle class="st12" cx="451.5" cy="264.3" r="88.3"/>
<circle class="st12" cx="451.5" cy="264.3" r="68.3"/>
<circle class="st12" cx="451.5" cy="264.3" r="47.3"/>
<circle class="st12" cx="451.5" cy="264.3" r="29.3"/>
<circle class="st12" cx="451.5" cy="264.3" r="17.3"/>
<line class="st12" x1="451.5" y1="135" x2="451.5" y2="430"/>
<line class="st12" x1="359.8" y1="172.3" x2="543.3" y2="355.8"/>
<line class="st12" x1="321.5" y1="263.5" x2="581.5" y2="263.5"/>
<line class="st12" x1="543.5" y1="171.5" x2="360" y2="355"/>
<line class="st12" x1="573.4" y1="216.1" x2="330.6" y2="309.9"/>
<line class="st12" x1="404.4" y1="143.1" x2="498.6" y2="384.9"/>
<line class="st12" x1="329.7" y1="215.6" x2="571.3" y2="310.4"/>
<line class="st12" x1="502.5" y1="144.5" x2="399.5" y2="383.5"/>
</svg>
