<?xml version="1.0" encoding="utf-8"?>
<!-- Generator: Adobe Illustrator 22.0.0, SVG Export Plug-In . SVG Version: 6.00 Build 0)  -->
<svg version="1.1" id="图层_1" xmlns="http://www.w3.org/2000/svg" xmlns:xlink="http://www.w3.org/1999/xlink" x="0px" y="0px"
	 viewBox="0 0 258.3 263.1" style="enable-background:new 0 0 258.3 263.1;" xml:space="preserve">
<style type="text/css">
	.st0{fill:#00F9FB;}
	.st1{fill:none;stroke:#00F9FB;stroke-miterlimit:10;}
	.st2{fill:#F1912D;}
</style>
<path class="st0" d="M128.6,42.9c-48.2,0-87.4,39.2-87.4,87.4c0,47.1,37.4,85.5,84,87.3l-1.2-5.8l-0.2-1c-5.8-0.3-11.5-1.3-16.9-2.9
	l-1.8,3c-34.9-10.2-60.5-42.5-60.5-80.7c0-10.2,1.8-20.1,5.2-29.1l3.4,0.6c1.1-2.9,2.3-5.7,3.7-8.4l-2.3-2.8
	c0.9-1.6,1.8-3.2,2.8-4.8l2.5,2.3c3.7-6,8.1-11.4,13.2-16.2l-0.2-4.4c14.9-13.2,34.4-21.3,55.8-21.3c26.1,0,49.5,12,64.9,30.7
	l-2.1,2.8c1.8,2.3,3.5,4.7,5.1,7.2l3.4-0.9c1.2,1.9,2.3,3.8,3.3,5.8l-2.3,2.8c2.2,4.4,4,9.1,5.4,14h3.5c1.9,6.9,2.9,14.2,2.9,21.8
	c0,42.1-31.2,77.1-71.7,83.1l-1-3.2c-2.3,0.3-4.6,0.5-7,0.7l-0.9,3.4l0,0l-0.9,3.4c47-1.4,84.8-40,84.8-87.3
	C216,82.1,176.8,42.9,128.6,42.9z"/>
<circle class="st1" cx="129" cy="130.1" r="91.8"/>
<g>
	<path class="st2" d="M198.2,224.5l-3.9-5.4c0.7-0.5,1.4-1.1,2.2-1.6c27.3-21.1,43-53,43-87.4c0-60.9-49.5-110.4-110.4-110.4
		S18.6,69.2,18.6,130.1c0,34.6,15.8,66.5,43.2,87.6c0.6,0.5,1.3,1,1.9,1.4l-3.9,5.4c-0.7-0.5-1.4-1-2-1.5
		C28.7,200.6,12,166.8,12,130.1C11.9,65.5,64.4,13,129,13c64.5,0,117,52.5,117,117.1c0,36.6-16.6,70.3-45.6,92.7
		C199.7,223.4,198.9,224,198.2,224.5z"/>
</g>
<rect x="126.5" y="16.2" class="st2" width="5" height="16.7"/>
<rect x="127.7" y="17.4" width="2.5" height="14.2"/>
<rect x="134.4" y="22.9" transform="matrix(0.1302 -0.9915 0.9915 0.1302 98.9955 163.5998)" class="st2" width="16.7" height="5"/>
<rect x="135.7" y="24.2" transform="matrix(0.1305 -0.9914 0.9914 0.1305 98.9129 163.6635)" width="14.2" height="2.5"/>
<rect x="147.9" y="25.7" transform="matrix(0.2591 -0.9658 0.9658 0.2591 88.5492 171.7456)" class="st2" width="16.7" height="5"/>
<rect x="149.2" y="26.9" transform="matrix(0.2589 -0.9659 0.9659 0.2589 88.6578 171.7869)" width="14.2" height="2.5"/>
<rect x="160.9" y="30" transform="matrix(0.3828 -0.9238 0.9238 0.3828 74.4634 176.4514)" class="st2" width="16.7" height="5"/>
<rect x="173.4" y="36.1" transform="matrix(0.5001 -0.866 0.866 0.5001 57.4397 176.6465)" class="st2" width="16.7" height="5"/>
<rect x="174.7" y="37.4" transform="matrix(0.5 -0.866 0.866 0.5 57.4733 176.7641)" width="14.2" height="2.5"/>
<rect x="56.3" y="211.3" transform="matrix(0.6088 -0.7933 0.7933 0.6088 -144.3271 134.9604)" class="st2" width="16.7" height="5"/>
<rect x="57.6" y="212.6" transform="matrix(0.6088 -0.7933 0.7933 0.6088 -144.3365 134.9907)" width="14.2" height="2.5"/>
<rect x="184.9" y="43.8" transform="matrix(0.6086 -0.7935 0.7935 0.6086 38.9266 171.4561)" class="st2" width="16.7" height="5"/>
<rect x="186.1" y="45.1" transform="matrix(0.6088 -0.7933 0.7933 0.6088 38.7803 171.4115)" width="14.2" height="2.5"/>
<rect x="46" y="202.2" transform="matrix(0.7071 -0.7071 0.7071 0.7071 -128.8038 98.3812)" class="st2" width="16.7" height="5"/>
<rect x="195.3" y="52.9" transform="matrix(0.7071 -0.7071 0.7071 0.7071 20.4941 160.2224)" class="st2" width="16.7" height="5"/>
<rect x="36.9" y="191.8" transform="matrix(0.7935 -0.6086 0.6086 0.7935 -108.8899 67.6616)" class="st2" width="16.7" height="5"/>
<rect x="38.1" y="193.1" transform="matrix(0.7934 -0.6087 0.6087 0.7934 -108.9646 67.6663)" width="14.2" height="2.5"/>
<rect x="204.4" y="63.3" transform="matrix(0.7935 -0.6086 0.6086 0.7935 3.8981 143.0712)" class="st2" width="16.7" height="5"/>
<rect x="205.6" y="64.6" transform="matrix(0.7934 -0.6087 0.6087 0.7934 3.8477 143.0798)" width="14.2" height="2.5"/>
<rect x="29.2" y="180.4" transform="matrix(0.866 -0.5 0.5 0.866 -86.4203 43.2825)" class="st2" width="16.7" height="5"/>
<rect x="30.4" y="181.6" transform="matrix(0.866 -0.5 0.5 0.866 -86.4035 43.2456)" width="14.2" height="2.5"/>
<rect x="212" y="74.8" transform="matrix(0.866 -0.5001 0.5001 0.866 -9.1281 120.5564)" class="st2" width="16.7" height="5"/>
<rect x="213.3" y="76" transform="matrix(0.8661 -0.4999 0.4999 0.8661 -9.0995 120.5178)" width="14.2" height="2.5"/>
<rect x="23.1" y="168" transform="matrix(0.9238 -0.3828 0.3828 0.9238 -62.872 25.0281)" class="st2" width="16.7" height="5"/>
<rect x="218.2" y="87.2" transform="matrix(0.9238 -0.3828 0.3828 0.9238 -17.08 93.5592)" class="st2" width="16.7" height="5"/>
<rect x="18.6" y="154.9" transform="matrix(0.966 -0.2587 0.2587 0.966 -39.8021 12.3292)" class="st2" width="16.7" height="5"/>
<rect x="19.9" y="156.1" transform="matrix(0.9659 -0.2588 0.2588 0.9659 -39.801 12.3481)" width="14.2" height="2.5"/>
<rect x="222.6" y="100.2" transform="matrix(0.9659 -0.259 0.259 0.9659 -18.7179 63.3197)" class="st2" width="16.7" height="5"/>
<rect x="223.8" y="101.5" transform="matrix(0.9659 -0.2589 0.2589 0.9659 -18.7293 63.2836)" width="14.2" height="2.5"/>
<rect x="16" y="141.4" transform="matrix(0.9914 -0.1305 0.1305 0.9914 -18.5707 4.4084)" class="st2" width="16.7" height="5"/>
<rect x="17.2" y="142.6" transform="matrix(0.9914 -0.1305 0.1305 0.9914 -18.5645 4.4014)" width="14.2" height="2.5"/>
<rect x="225.3" y="113.8" transform="matrix(0.9914 -0.1308 0.1308 0.9914 -13.2046 31.5604)" class="st2" width="16.7" height="5"/>
<rect x="226.5" y="115" transform="matrix(0.9914 -0.1305 0.1305 0.9914 -13.1727 31.4788)" width="14.2" height="2.5"/>
<rect x="15" y="127.6" class="st2" width="16.7" height="5"/>
<rect x="226.2" y="127.6" class="st2" width="16.7" height="5"/>
<rect x="21.9" y="108" transform="matrix(0.1306 -0.9914 0.9914 0.1306 -94.1547 125.3273)" class="st2" width="5" height="16.7"/>
<rect x="23" y="109.3" transform="matrix(0.1305 -0.9914 0.9914 0.1305 -94.2967 125.211)" width="2.5" height="14.2"/>
<rect x="231.1" y="135.6" transform="matrix(0.1306 -0.9914 0.9914 0.1306 60.3779 356.6861)" class="st2" width="5" height="16.7"/>
<rect x="232.4" y="136.7" transform="matrix(0.1308 -0.9914 0.9914 0.1308 60.4605 356.65)" width="2.5" height="14.2"/>
<rect x="24.5" y="94.4" transform="matrix(0.2589 -0.9659 0.9659 0.2589 -79.2174 102.2131)" class="st2" width="5" height="16.7"/>
<rect x="25.8" y="95.7" transform="matrix(0.2587 -0.966 0.966 0.2587 -79.2347 102.3087)" width="2.5" height="14.2"/>
<rect x="228.5" y="149.1" transform="matrix(0.2589 -0.9659 0.9659 0.2589 19.1209 339.7754)" class="st2" width="5" height="16.7"/>
<rect x="229.7" y="150.3" transform="matrix(0.2591 -0.9659 0.9659 0.2591 19.1294 339.6996)" width="2.5" height="14.2"/>
<rect x="28.9" y="81.3" transform="matrix(0.3827 -0.9239 0.9239 0.3827 -63.4824 84.3292)" class="st2" width="5" height="16.7"/>
<rect x="224" y="162.1" transform="matrix(0.3827 -0.9239 0.9239 0.3827 -17.6305 314.452)" class="st2" width="5" height="16.7"/>
<rect x="35" y="69" transform="matrix(0.5 -0.866 0.866 0.5 -48.1853 71.1546)" class="st2" width="5" height="16.7"/>
<rect x="36.3" y="70.2" transform="matrix(0.5001 -0.866 0.866 0.5001 -48.1502 71.1753)" width="2.5" height="14.2"/>
<rect x="217.9" y="174.5" transform="matrix(0.5 -0.866 0.866 0.5 -48.1617 282.2694)" class="st2" width="5" height="16.7"/>
<rect x="219.2" y="175.8" transform="matrix(0.5001 -0.866 0.866 0.5001 -48.1711 282.3027)" width="2.5" height="14.2"/>
<rect x="42.7" y="57.5" transform="matrix(0.6087 -0.7934 0.7934 0.6087 -34.5666 61.6574)" class="st2" width="5" height="16.7"/>
<rect x="44" y="58.7" transform="matrix(0.6088 -0.7933 0.7933 0.6088 -34.4666 61.6363)" width="2.5" height="14.2"/>
<rect x="210.2" y="186" transform="matrix(0.6087 -0.7934 0.7934 0.6087 -70.9772 244.8087)" class="st2" width="5" height="16.7"/>
<rect x="211.5" y="187.2" transform="matrix(0.6086 -0.7935 0.7935 0.6086 -70.9421 244.8706)" width="2.5" height="14.2"/>
<rect x="51.8" y="47.1" transform="matrix(0.7071 -0.7071 0.7071 0.7071 -23.3132 54.6438)" class="st2" width="5" height="16.7"/>
<rect x="201.1" y="196.4" transform="matrix(0.7071 -0.7071 0.7071 0.7071 -85.1559 203.9416)" class="st2" width="5" height="16.7"/>
<rect x="62.2" y="38" transform="matrix(0.7933 -0.6088 0.6088 0.7933 -14.8473 48.9773)" class="st2" width="5" height="16.7"/>
<rect x="63.4" y="39.2" transform="matrix(0.7932 -0.6089 0.6089 0.7932 -14.8315 48.9266)" width="2.5" height="14.2"/>
<rect x="190.7" y="205.5" transform="matrix(0.7933 -0.6088 0.6088 0.7933 -90.2675 161.8232)" class="st2" width="5" height="16.7"/>
<rect x="192" y="206.7" transform="matrix(0.7935 -0.6086 0.6086 0.7935 -90.2008 161.7609)" width="2.5" height="14.2"/>
<rect x="73.7" y="30.3" transform="matrix(0.866 -0.5 0.5 0.866 -9.1136 43.2806)" class="st2" width="5" height="16.7"/>
<rect x="74.9" y="31.6" transform="matrix(0.866 -0.5 0.5 0.866 -9.1555 43.2617)" width="2.5" height="14.2"/>
<rect x="86.1" y="24.2" transform="matrix(0.9239 -0.3827 0.3827 0.9239 -5.7115 36.387)" class="st2" width="5" height="16.7"/>
<rect x="99.1" y="19.8" transform="matrix(0.9659 -0.2588 0.2588 0.9659 -3.8248 27.2527)" class="st2" width="5" height="16.7"/>
<rect x="100.4" y="21" transform="matrix(0.9659 -0.2588 0.2588 0.9659 -3.809 27.2643)" width="2.5" height="14.2"/>
<rect x="112.7" y="17.1" transform="matrix(0.9914 -0.1305 0.1305 0.9914 -2.3361 15.2513)" class="st2" width="5" height="16.7"/>
<rect x="113.9" y="18.3" transform="matrix(0.9914 -0.1305 0.1305 0.9914 -2.3299 15.2443)" width="2.5" height="14.2"/>
<rect x="126.5" y="16.2" class="st2" width="5" height="16.7"/>
<g>
	<g>
		<path class="st2" d="M130.8,4c0,1.8-0.7,2.9-1.9,2.9c-1.1,0-1.8-1-1.8-2.8s0.8-2.8,1.9-2.8C130.2,1.2,130.8,2.2,130.8,4z
			 M127.9,4.1c0,1.4,0.4,2.2,1.1,2.2c0.8,0,1.1-0.9,1.1-2.3c0-1.3-0.3-2.2-1.1-2.2C128.3,1.8,127.9,2.6,127.9,4.1z"/>
	</g>
</g>
<g>
	<g>
		<path class="st2" d="M110,3.3L110,3.3l-0.9,0.6l-0.2-0.5l1.1-0.8l0.6-0.1l0.7,5.4L110.6,8L110,3.3z"/>
		<path class="st2" d="M116.4,4.4c0.2,1.8-0.3,2.9-1.5,3.1c-1.1,0.1-1.9-0.8-2.1-2.5c-0.2-1.8,0.4-2.9,1.5-3
			C115.4,1.8,116.2,2.7,116.4,4.4z M113.5,4.9c0.2,1.4,0.7,2.1,1.4,2c0.7-0.1,1-1,0.8-2.4c-0.2-1.3-0.6-2.1-1.4-2.1
			C113.7,2.6,113.3,3.4,113.5,4.9z"/>
	</g>
</g>
<g>
	<g>
		<path class="st2" d="M93.3,12l-0.1-0.4l0.4-0.7c1-1.6,1.4-2.5,1.2-3.3c-0.1-0.5-0.5-1-1.3-0.7c-0.5,0.1-0.8,0.5-1,0.7l-0.4-0.4
			c0.3-0.4,0.7-0.8,1.3-0.9c1.1-0.3,1.8,0.3,2,1.1c0.3,1-0.2,1.9-1.1,3.3L94,11.2l0,0l2.4-0.6l0.2,0.6L93.3,12z"/>
		<path class="st2" d="M100.2,7.3c0.5,1.8,0.1,2.9-1.1,3.3c-1,0.3-2-0.5-2.5-2.2c-0.5-1.8,0-2.9,1.1-3.2
			C98.9,4.8,99.8,5.6,100.2,7.3z M97.4,8.1c0.4,1.4,1,2,1.6,1.9c0.7-0.2,0.8-1.1,0.5-2.5c-0.3-1.3-0.9-2-1.6-1.9
			C97.3,5.8,97,6.7,97.4,8.1z"/>
	</g>
</g>
<g>
	<g>
		<path class="st2" d="M78,16.8c0.2,0,0.8,0.1,1.2-0.1c0.9-0.4,0.9-1,0.7-1.4c-0.3-0.7-1.1-0.7-1.7-0.5L77.8,15l-0.2-0.5l0.4-0.2
			c0.5-0.2,1-0.7,0.8-1.3c-0.2-0.4-0.6-0.7-1.2-0.4c-0.4,0.2-0.7,0.5-0.9,0.7l-0.4-0.4c0.2-0.3,0.6-0.7,1.2-0.9c1-0.4,1.7,0,1.9,0.6
			c0.2,0.5,0.1,1.1-0.4,1.6l0,0c0.7-0.1,1.4,0.1,1.7,0.8c0.3,0.8,0,1.8-1.2,2.3c-0.6,0.2-1.1,0.3-1.4,0.2L78,16.8z"/>
		<path class="st2" d="M84.3,12.1c0.7,1.7,0.5,2.9-0.6,3.4c-1,0.4-2-0.2-2.7-1.9s-0.4-2.9,0.7-3.3C82.7,9.8,83.7,10.5,84.3,12.1z
			 M81.6,13.3c0.5,1.3,1.2,1.9,1.9,1.6c0.7-0.3,0.7-1.2,0.2-2.5c-0.5-1.2-1.2-1.9-1.9-1.6C81.2,11,81.1,11.9,81.6,13.3z"/>
	</g>
</g>
<g>
	<g>
		<path class="st2" d="M65.9,24.2l-0.7-1.3L63,24.1l-0.2-0.4l0.4-4.2l0.7-0.4l1.7,2.9l0.7-0.4l0.3,0.5l-0.7,0.4l0.7,1.3L65.9,24.2z
			 M64.9,22.4L64,20.8c-0.1-0.2-0.3-0.5-0.4-0.7l0,0c0,0.4,0,0.6,0,0.9l-0.2,2.3l0,0L64.9,22.4z"/>
		<path class="st2" d="M69.4,18.9c0.9,1.6,0.8,2.8-0.2,3.4c-0.9,0.5-2,0-2.9-1.5c-0.9-1.6-0.7-2.8,0.2-3.4
			C67.4,16.9,68.5,17.5,69.4,18.9z M66.9,20.5c0.7,1.2,1.5,1.7,2.1,1.4c0.7-0.4,0.5-1.3-0.2-2.5s-1.4-1.7-2.1-1.4
			C66.1,18.3,66.1,19.2,66.9,20.5z"/>
	</g>
</g>
<g>
	<g>
		<path class="st2" d="M50.4,28.8L48.8,30l0.7,1.2c0.1-0.1,0.2-0.2,0.3-0.3c0.3-0.3,0.7-0.4,1.1-0.5c0.5-0.1,1,0.1,1.5,0.6
			c0.6,0.8,0.5,2-0.5,2.7c-0.5,0.4-1,0.5-1.3,0.6l-0.2-0.6c0.3,0,0.7-0.2,1.1-0.5c0.5-0.4,0.7-1.1,0.3-1.7c-0.4-0.6-1.1-0.7-2,0
			c-0.2,0.2-0.4,0.4-0.6,0.5L48,29.9l2.1-1.6L50.4,28.8z"/>
		<path class="st2" d="M55.3,27.6c1.1,1.5,1.2,2.7,0.2,3.4c-0.8,0.6-2,0.3-3.1-1.1s-1.1-2.7-0.2-3.4C53.1,25.8,54.3,26.2,55.3,27.6z
			 M53,29.4c0.9,1.1,1.7,1.5,2.2,1.1c0.6-0.5,0.3-1.4-0.5-2.5s-1.6-1.5-2.2-1.1C52,27.3,52.1,28.2,53,29.4z"/>
	</g>
</g>
<g>
	<g>
		<path class="st2" d="M37.8,40c-0.1,0.1-0.2,0.2-0.4,0.4c-0.7,1-0.5,2,0,2.7l0,0c-0.1-0.4,0.1-0.9,0.5-1.4c0.7-0.7,1.6-0.7,2.4,0.1
			c0.7,0.7,0.9,1.8,0.1,2.6c-0.8,0.8-2,0.7-3-0.3c-0.8-0.8-1.1-1.6-1.1-2.4c0-0.6,0.2-1.3,0.7-1.8c0.1-0.2,0.3-0.3,0.3-0.4L37.8,40z
			 M39.8,42.4c-0.5-0.5-1.2-0.6-1.7-0.1c-0.3,0.3-0.4,0.8-0.3,1.2c0,0.1,0.1,0.2,0.2,0.3c0.6,0.6,1.4,0.8,1.9,0.3
			C40.5,43.6,40.4,42.9,39.8,42.4z"/>
		<path class="st2" d="M42.7,38.1c1.3,1.3,1.5,2.5,0.7,3.4c-0.7,0.7-2,0.6-3.2-0.7c-1.3-1.3-1.4-2.6-0.7-3.3
			C40.3,36.7,41.4,36.9,42.7,38.1z M40.6,40.3c1,1,1.9,1.3,2.3,0.8c0.5-0.5,0.2-1.4-0.8-2.4c-0.9-0.9-1.8-1.3-2.3-0.8
			C39.4,38.4,39.6,39.2,40.6,40.3z"/>
	</g>
</g>
<g>
	<g>
		<path class="st2" d="M26.5,52l0.4,0.3l2.5,4.9l-0.5,0.6L26.6,53l0,0L25,55.1l-0.5-0.4L26.5,52z"/>
		<path class="st2" d="M31.3,50.1c1.5,1.1,1.9,2.3,1.1,3.2c-0.6,0.8-1.9,0.8-3.3-0.3s-1.8-2.3-1.1-3.2C28.7,49,29.9,49.1,31.3,50.1z
			 M29.6,52.5c1.1,0.9,2,1,2.4,0.5c0.5-0.6,0-1.4-1.1-2.3c-1.1-0.8-2-1.1-2.4-0.5S28.4,51.6,29.6,52.5z"/>
	</g>
</g>
<g>
	<g>
		<path class="st2" d="M19,71.2c-0.6-0.3-0.8-0.9-0.7-1.7l0,0c-0.5,0.4-1.1,0.4-1.5,0.1c-0.7-0.4-0.9-1.4-0.4-2.2
			c0.5-0.9,1.4-1,1.9-0.7c0.4,0.2,0.7,0.7,0.7,1.4l0,0c0.6-0.5,1.2-0.6,1.8-0.2c0.8,0.5,1,1.5,0.4,2.4C20.7,71.3,19.7,71.6,19,71.2z
			 M17.1,69c0.5,0.3,0.9,0.1,1.4-0.4c0.1-0.5,0-1-0.4-1.2s-0.9-0.2-1.2,0.4C16.5,68.3,16.7,68.8,17.1,69z M20.5,68.6
			c-0.6-0.3-1.1-0.1-1.6,0.4c-0.2,0.6,0,1.1,0.5,1.4s1.1,0.2,1.4-0.4C21.1,69.5,21,68.9,20.5,68.6z"/>
		<path class="st2" d="M21.8,63.6c1.6,0.9,2.1,2,1.5,3.1c-0.5,0.9-1.7,1-3.3,0.2c-1.6-0.9-2.1-2.1-1.5-3
			C19.1,62.8,20.3,62.7,21.8,63.6z M20.4,66.2c1.2,0.7,2.1,0.7,2.5,0.2c0.4-0.7-0.2-1.4-1.4-2.1c-1.2-0.7-2.1-0.8-2.5-0.2
			C18.7,64.7,19.1,65.4,20.4,66.2z"/>
	</g>
</g>
<g>
	<g>
		<path class="st2" d="M13.2,85.8c0.1-0.1,0.1-0.3,0.2-0.6c0.1-0.4,0.1-0.9-0.1-1.3c-0.2-0.5-0.5-0.9-1.1-1.2l0,0
			c0.2,0.4,0.3,0.9,0.1,1.4c-0.4,0.9-1.3,1.2-2.1,0.8c-0.9-0.4-1.5-1.4-1.1-2.5c0.4-1,1.5-1.3,2.8-0.8c1.1,0.5,1.7,1.1,2,1.8
			c0.2,0.5,0.2,1.2,0.1,1.7c-0.1,0.3-0.1,0.5-0.2,0.6L13.2,85.8z M10.5,84.4c0.6,0.3,1.2,0.1,1.5-0.5c0.2-0.5,0.1-0.9-0.1-1.2
			c0-0.1-0.1-0.1-0.2-0.2c-0.9-0.4-1.6-0.3-1.9,0.4C9.4,83.5,9.7,84.1,10.5,84.4z"/>
		<path class="st2" d="M14,78.1c1.7,0.7,2.4,1.7,1.9,2.8c-0.4,1-1.6,1.3-3.3,0.6c-1.7-0.7-2.3-1.8-1.9-2.8
			C11.2,77.6,12.4,77.4,14,78.1z M13,80.8c1.3,0.5,2.2,0.4,2.5-0.2c0.3-0.7-0.4-1.4-1.7-1.9c-1.2-0.5-2.2-0.5-2.5,0.2
			C11,79.5,11.6,80.3,13,80.8z"/>
	</g>
</g>
<g>
	<g>
		<path class="st2" d="M4.2,101.3L4.2,101.3l0.2,1.1H3.8L3.5,101l0.2-0.6l5.2,1.4l-0.2,0.7L4.2,101.3z"/>
		<path class="st2" d="M7.7,95.7c1.8,0.5,2.6,1.4,2.3,2.6c-0.3,1-1.4,1.5-3.2,1s-2.5-1.5-2.2-2.6C4.9,95.6,6,95.3,7.7,95.7z M7,98.6
			c1.4,0.4,2.2,0.2,2.4-0.5s-0.6-1.3-1.9-1.7c-1.3-0.3-2.2-0.2-2.4,0.5C4.9,97.5,5.6,98.2,7,98.6z"/>
		<path class="st2" d="M8.8,91.6c1.8,0.5,2.6,1.4,2.3,2.6c-0.3,1-1.4,1.5-3.2,1s-2.5-1.5-2.2-2.6C6,91.5,7.1,91.1,8.8,91.6z
			 M8.1,94.4c1.4,0.4,2.2,0.2,2.4-0.5s-0.6-1.3-1.9-1.7c-1.3-0.3-2.2-0.2-2.4,0.5S6.7,94.1,8.1,94.4z"/>
	</g>
</g>
<g>
	<g>
		<path class="st2" d="M1.3,117.8L1.3,117.8l0.4,1l-0.6,0.1l-0.5-1.3l0.1-0.6l5.4,0.7L6,118.4L1.3,117.8z"/>
		<path class="st2" d="M1.9,113.5L1.9,113.5l0.4,1l-0.6,0.1l-0.5-1.3l0.1-0.6l5.4,0.7l-0.1,0.7L1.9,113.5z"/>
		<path class="st2" d="M4.6,107.5c1.8,0.2,2.7,1.1,2.6,2.2c-0.1,1.1-1.2,1.6-3,1.4s-2.7-1.1-2.6-2.2C1.8,107.8,2.9,107.3,4.6,107.5z
			 M4.3,110.5c1.4,0.2,2.3-0.1,2.3-0.8c0.1-0.7-0.7-1.2-2.1-1.4c-1.3-0.2-2.2,0.1-2.3,0.8C2.2,109.7,2.9,110.3,4.3,110.5z"/>
	</g>
</g>
<g>
	<g>
		<path class="st2" d="M0.9,134.5L0.9,134.5l0.5,1l-0.6,0.1l-0.6-1.2v-0.6h5.4v0.7H0.9z"/>
		<path class="st2" d="M5.6,131.8H5.2l-0.6-0.6c-1.3-1.4-2-2-2.8-2c-0.6,0-1.1,0.3-1.1,1.1c0,0.5,0.3,0.9,0.5,1.2l-0.5,0.2
			c-0.3-0.4-0.6-0.9-0.6-1.5c0-1.2,0.8-1.7,1.6-1.7c1,0,1.8,0.7,2.9,1.9l0.4,0.4l0,0v-2.4h0.6V131.8z"/>
		<path class="st2" d="M2.9,124c1.8,0,2.9,0.7,2.9,1.9c0,1.1-1,1.8-2.8,1.8s-2.8-0.8-2.8-1.9C0.1,124.6,1.1,124,2.9,124z M2.9,126.9
			c1.4,0,2.2-0.4,2.2-1.1c0-0.8-0.9-1.1-2.3-1.1c-1.3,0-2.2,0.3-2.2,1.1C0.7,126.4,1.5,126.9,2.9,126.9z"/>
	</g>
</g>
<g>
	<g>
		<path class="st2" d="M2.6,151.1L2.6,151.1l0.6,0.9l-0.5,0.2l-0.8-1.1l-0.1-0.6l5.4-0.7l0.1,0.7L2.6,151.1z"/>
		<path class="st2" d="M6.1,147.8c0.1-0.2,0.2-0.7,0.2-1.2c-0.1-0.9-0.8-1.1-1.2-1.1c-0.8,0.1-1,0.8-0.9,1.5l0.1,0.4l-0.5,0.1
			L3.6,147c-0.1-0.5-0.4-1.2-1.1-1.1c-0.4,0.1-0.8,0.4-0.7,1.1c0.1,0.4,0.3,0.8,0.5,1l-0.5,0.3c-0.2-0.3-0.5-0.8-0.6-1.4
			c-0.1-1.1,0.4-1.6,1.1-1.7c0.6-0.1,1.1,0.2,1.4,0.8l0,0c0-0.7,0.5-1.3,1.2-1.4c0.9-0.1,1.7,0.5,1.9,1.7c0.1,0.6,0,1.2-0.2,1.4
			L6.1,147.8z"/>
		<path class="st2" d="M3.1,140.4c1.8-0.2,2.9,0.3,3.1,1.5c0.1,1.1-0.8,1.9-2.5,2.1c-1.8,0.2-2.9-0.4-3-1.5
			C0.5,141.4,1.4,140.6,3.1,140.4z M3.6,143.3c1.4-0.2,2.1-0.7,2-1.4s-1-1-2.4-0.8c-1.3,0.2-2.1,0.6-2.1,1.4
			C1.3,143.1,2.1,143.5,3.6,143.3z"/>
	</g>
</g>
<g>
	<g>
		<path class="st2" d="M6.5,167.6L6.5,167.6l0.7,0.8l-0.5,0.3l-0.9-1l-0.2-0.6l5.2-1.4l0.2,0.7L6.5,167.6z"/>
		<path class="st2" d="M9.7,161.6L8.3,162l0.7,2.4l-0.5,0.1l-4-1.4l-0.2-0.8l3.3-0.9l-0.2-0.7l0.6-0.1l0.2,0.7l1.4-0.4L9.7,161.6z
			 M7.8,162.1L6,162.6c-0.3,0.1-0.6,0.1-0.8,0.2l0,0c0.3,0.1,0.6,0.1,0.9,0.2l2.1,0.8l0,0L7.8,162.1z"/>
		<path class="st2" d="M5.6,156.9c1.8-0.5,2.9-0.1,3.3,1.1c0.3,1-0.5,2-2.2,2.5c-1.8,0.5-2.9,0-3.2-1.1
			C3.1,158.2,3.9,157.3,5.6,156.9z M6.5,159.7c1.4-0.4,2-1,1.9-1.6c-0.2-0.7-1.1-0.8-2.5-0.5c-1.3,0.3-2,0.9-1.9,1.6
			C4.2,159.8,5,160.1,6.5,159.7z"/>
	</g>
</g>
<g>
	<g>
		<path class="st2" d="M12.3,183.2L12.3,183.2l0.8,0.7l-0.5,0.3l-1-0.9l-0.2-0.6l5-2.1l0.3,0.7L12.3,183.2z"/>
		<path class="st2" d="M10,177.8l0.8,1.9l1.4-0.3c-0.1-0.1-0.1-0.2-0.2-0.4c-0.2-0.4-0.2-0.8-0.2-1.2c0.1-0.5,0.4-1,1-1.3
			c1-0.4,2,0.1,2.5,1.2c0.2,0.5,0.3,1.1,0.2,1.4h-0.6c0-0.3,0-0.7-0.2-1.2c-0.3-0.6-0.9-1-1.6-0.7c-0.6,0.3-0.9,0.9-0.5,1.9
			c0.1,0.3,0.2,0.5,0.3,0.7l-2.5,0.7l-1-2.4L10,177.8z"/>
		<path class="st2" d="M10.1,172.7c1.7-0.7,2.9-0.5,3.4,0.6c0.4,1-0.2,2-1.9,2.7s-2.9,0.4-3.3-0.7C7.8,174.4,8.5,173.4,10.1,172.7z
			 M11.3,175.4c1.3-0.5,1.9-1.2,1.6-1.9c-0.3-0.7-1.2-0.7-2.5-0.2c-1.2,0.5-1.9,1.2-1.6,1.9C9,175.8,9.9,176,11.3,175.4z"/>
	</g>
</g>
<g>
	<g>
		<path class="st2" d="M20.3,198L20.3,198l0.9,0.6l-0.4,0.4l-1.1-0.7l-0.3-0.5L24,195l0.4,0.6L20.3,198z"/>
		<path class="st2" d="M17.3,193.1c0.1,0.1,0.2,0.3,0.3,0.5c0.7,0.9,1.8,1,2.6,0.7l0,0c-0.4-0.1-0.9-0.3-1.2-0.8
			c-0.5-0.8-0.2-1.8,0.7-2.3c0.9-0.5,2-0.4,2.6,0.6s0.2,2.1-1,2.8c-0.9,0.5-1.8,0.6-2.6,0.4c-0.6-0.2-1.1-0.6-1.6-1.1
			c-0.1-0.2-0.2-0.3-0.3-0.4L17.3,193.1z M20.1,191.7c-0.7,0.4-0.9,1-0.5,1.6c0.2,0.4,0.7,0.6,1.1,0.6c0.1,0,0.2,0,0.3-0.1
			c0.8-0.5,1.1-1.1,0.7-1.8C21.4,191.4,20.7,191.3,20.1,191.7z"/>
		<path class="st2" d="M16.7,187.9c1.6-0.9,2.8-0.8,3.4,0.2c0.5,0.9,0,2-1.5,2.9c-1.6,0.9-2.8,0.7-3.4-0.2
			C14.7,189.8,15.2,188.8,16.7,187.9z M18.3,190.4c1.2-0.7,1.7-1.5,1.4-2.1c-0.4-0.7-1.3-0.5-2.5,0.2s-1.7,1.4-1.4,2.1
			C16.1,191.1,17,191.1,18.3,190.4z"/>
	</g>
</g>
<g>
	<g>
		<path class="st2" d="M30,211.5L30,211.5l1,0.5l-0.4,0.5l-1.2-0.6l-0.4-0.5l4.3-3.3l0.4,0.6L30,211.5z"/>
		<path class="st2" d="M25.7,207l0.4-0.3l5.4-1.1l0.5,0.6l-5.2,1.1l0,0l1.6,2.1l-0.5,0.4L25.7,207z"/>
		<path class="st2" d="M25.2,201.9c1.5-1.1,2.7-1.2,3.4-0.2c0.6,0.8,0.3,2-1.1,3.1s-2.7,1.1-3.4,0.2C23.4,204.1,23.8,203,25.2,201.9
			z M27,204.2c1.1-0.9,1.5-1.7,1.1-2.2c-0.5-0.6-1.4-0.3-2.5,0.5s-1.5,1.6-1.1,2.2C24.9,205.2,25.9,205.1,27,204.2z"/>
	</g>
</g>
<g>
	<g>
		<path class="st2" d="M41.6,223.8L41.6,223.8l1,0.3l-0.3,0.5l-1.3-0.4l-0.4-0.4l3.8-3.8l0.5,0.5L41.6,223.8z"/>
		<path class="st2" d="M42.1,219.6c-0.5,0.5-1.1,0.5-1.8,0.3l0,0c0.2,0.6,0.1,1.1-0.3,1.5c-0.6,0.6-1.5,0.5-2.2-0.2
			s-0.6-1.6-0.2-2.1c0.3-0.3,0.8-0.5,1.5-0.3l0,0c-0.3-0.7-0.2-1.3,0.2-1.8c0.7-0.7,1.7-0.5,2.4,0.2C42.7,218.1,42.7,219,42.1,219.6
			z M39.6,220.9c0.4-0.4,0.3-0.9,0-1.4c-0.4-0.2-0.9-0.2-1.3,0.1c-0.3,0.3-0.4,0.8,0,1.3C38.7,221.3,39.2,221.2,39.6,220.9z
			 M40,217.6c-0.5,0.5-0.4,1,0,1.7c0.6,0.3,1.1,0.3,1.5-0.1c0.4-0.4,0.5-1,0-1.5S40.4,217.2,40,217.6z"/>
		<path class="st2" d="M35.5,215c1.3-1.3,2.5-1.5,3.4-0.7c0.7,0.7,0.6,2-0.7,3.2c-1.3,1.3-2.6,1.4-3.3,0.7
			C34,217.4,34.3,216.2,35.5,215z M37.7,217c1-1,1.3-1.9,0.8-2.3c-0.5-0.5-1.4-0.2-2.4,0.8c-0.9,0.9-1.3,1.8-0.8,2.3
			C35.7,218.3,36.6,218,37.7,217z"/>
	</g>
</g>
<g>
	<g>
		<path class="st2" d="M54.5,234.4L54.5,234.4l1.1,0.2l-0.2,0.5l-1.3-0.2l-0.5-0.4l3.3-4.3l0.6,0.4L54.5,234.4z"/>
		<path class="st2" d="M54.6,229.1c-0.1-0.1-0.3-0.2-0.5-0.3c-0.4-0.2-0.8-0.3-1.2-0.3c-0.5,0-1,0.3-1.4,0.7l0,0
			c0.5-0.1,0.9,0,1.4,0.3c0.8,0.6,0.8,1.6,0.3,2.3c-0.6,0.8-1.8,1.1-2.6,0.4c-0.9-0.7-0.9-1.8,0-2.9c0.7-0.9,1.6-1.4,2.3-1.5
			c0.6-0.1,1.2,0.1,1.7,0.4c0.2,0.1,0.4,0.3,0.6,0.4L54.6,229.1z M52.5,231.4c0.4-0.5,0.4-1.2-0.1-1.5c-0.4-0.3-0.8-0.3-1.2-0.2
			c-0.1,0-0.1,0.1-0.2,0.2c-0.6,0.7-0.7,1.5-0.1,2C51.3,232.2,52,232,52.5,231.4z"/>
		<path class="st2" d="M47.3,226.4c1.1-1.5,2.3-1.9,3.2-1.1c0.8,0.6,0.8,1.9-0.3,3.3c-1.1,1.4-2.3,1.8-3.2,1.1
			C46.1,228.9,46.2,227.7,47.3,226.4z M49.7,228.1c0.9-1.1,1-2,0.5-2.4c-0.6-0.5-1.4,0-2.3,1.1c-0.8,1.1-1.1,2-0.5,2.4
			C47.9,229.6,48.8,229.3,49.7,228.1z"/>
	</g>
</g>
<g>
	<g>
		<path class="st2" d="M210.4,228.9L210.4,228.9l0.5-1l0.5,0.4l-0.6,1.2l-0.5,0.4l-3.3-4.3l0.6-0.4L210.4,228.9z"/>
		<path class="st2" d="M205.4,227.5c-0.1,0.1-0.3,0.2-0.5,0.4c-0.3,0.3-0.5,0.7-0.6,1.1c-0.1,0.5,0,1,0.3,1.6l0,0
			c0-0.5,0.2-0.9,0.7-1.2c0.8-0.6,1.7-0.4,2.3,0.3c0.6,0.8,0.6,2-0.3,2.7c-0.9,0.7-2,0.4-2.8-0.7c-0.7-0.9-0.9-1.9-0.8-2.6
			c0.1-0.6,0.4-1.1,0.8-1.5c0.2-0.2,0.4-0.3,0.5-0.4L205.4,227.5z M207.1,230.1c-0.4-0.5-1-0.7-1.5-0.3c-0.4,0.3-0.5,0.7-0.5,1.1
			c0,0.1,0,0.2,0.1,0.3c0.6,0.7,1.3,1.1,1.9,0.6C207.5,231.4,207.6,230.7,207.1,230.1z"/>
		<path class="st2" d="M200.8,233.8c-1.1-1.5-1.2-2.7-0.2-3.4c0.8-0.6,2-0.3,3.1,1.1c1.1,1.4,1.1,2.7,0.2,3.4
			S201.9,235.2,200.8,233.8z M203.1,231.9c-0.9-1.1-1.7-1.5-2.2-1.1c-0.6,0.5-0.3,1.4,0.5,2.5s1.6,1.5,2.2,1.1
			C204.1,234,204,233.1,203.1,231.9z"/>
	</g>
</g>
<g>
	<g>
		<path class="st2" d="M222.7,217.5L222.7,217.5l0.3-1l0.5,0.3l-0.4,1.3l-0.4,0.4l-3.8-3.8l0.5-0.5L222.7,217.5z"/>
		<path class="st2" d="M218.5,217c0.5,0.5,0.5,1.1,0.3,1.8l0,0c0.6-0.2,1.1-0.1,1.5,0.3c0.6,0.6,0.5,1.5-0.2,2.2s-1.6,0.6-2.1,0.2
			c-0.3-0.3-0.5-0.8-0.3-1.5l0,0c-0.7,0.3-1.3,0.2-1.8-0.2c-0.7-0.7-0.5-1.7,0.2-2.4C217,216.5,217.9,216.5,218.5,217z M216.5,219.1
			c0.5,0.5,1,0.4,1.7,0c0.3-0.6,0.3-1.1-0.1-1.5c-0.4-0.4-1-0.5-1.5,0C216.1,218.1,216.1,218.7,216.5,219.1z M219.8,219.6
			c-0.4-0.4-0.9-0.3-1.4,0c-0.2,0.4-0.2,0.9,0.1,1.3c0.3,0.3,0.8,0.4,1.3,0C220.2,220.4,220.1,219.9,219.8,219.6z"/>
		<path class="st2" d="M213.9,223.6c-1.3-1.3-1.5-2.5-0.7-3.4c0.7-0.7,2-0.6,3.2,0.7c1.3,1.3,1.4,2.6,0.7,3.3
			C216.3,225.1,215.1,224.8,213.9,223.6z M215.9,221.5c-1-1-1.9-1.3-2.3-0.8c-0.5,0.5-0.2,1.4,0.8,2.4c0.9,0.9,1.8,1.3,2.3,0.8
			S216.9,222.5,215.9,221.5z"/>
	</g>
</g>
<g>
	<g>
		<path class="st2" d="M233.2,204.5L233.2,204.5l0.2-1.1l0.5,0.2l-0.2,1.3l-0.4,0.5l-4.3-3.3l0.4-0.6L233.2,204.5z"/>
		<path class="st2" d="M230,209.8l-0.4-0.3l-2.5-4.9l0.5-0.6l2.4,4.8l0,0l1.6-2.1l0.5,0.4L230,209.8z"/>
		<path class="st2" d="M225.2,211.7c-1.5-1.1-1.9-2.3-1.1-3.2c0.6-0.8,1.9-0.8,3.3,0.3c1.4,1.1,1.8,2.3,1.1,3.2
			C227.8,212.8,226.6,212.7,225.2,211.7z M227,209.3c-1.1-0.9-2-1-2.4-0.5c-0.5,0.6,0,1.4,1.1,2.3c1.1,0.8,2,1.1,2.4,0.5
			S228.1,210.2,227,209.3z"/>
	</g>
</g>
<g>
	<g>
		<path class="st2" d="M242.2,190.3L242.2,190.3v-1.1l0.6,0.2v1.3l-0.3,0.5l-4.7-2.7l0.4-0.6L242.2,190.3z"/>
		<path class="st2" d="M239.4,195.4c0.1-0.1,0.2-0.3,0.2-0.5c0.4-1.1,0-2-0.7-2.6l0,0c0.2,0.4,0.2,0.9-0.1,1.4
			c-0.5,0.8-1.4,1.1-2.3,0.5c-0.9-0.5-1.3-1.5-0.8-2.5c0.6-1,1.7-1.2,3-0.5c0.9,0.5,1.5,1.3,1.7,2c0.2,0.6,0.1,1.3-0.2,1.9
			c-0.1,0.2-0.2,0.4-0.2,0.5L239.4,195.4z M236.8,193.6c0.7,0.4,1.3,0.2,1.6-0.3c0.2-0.4,0.2-0.9-0.1-1.2c0-0.1-0.1-0.2-0.2-0.2
			c-0.8-0.4-1.6-0.4-1.9,0.3C235.9,192.6,236.2,193.2,236.8,193.6z"/>
		<path class="st2" d="M235.2,198.4c-1.6-0.9-2.1-2-1.5-3.1c0.5-0.9,1.7-1,3.3-0.2c1.6,0.9,2.1,2.1,1.5,3
			C237.9,199.2,236.7,199.3,235.2,198.4z M236.6,195.8c-1.2-0.7-2.1-0.7-2.5-0.2c-0.4,0.7,0.2,1.4,1.4,2.1c1.2,0.7,2.1,0.8,2.5,0.2
			C238.3,197.4,237.9,196.6,236.6,195.8z"/>
	</g>
</g>
<g>
	<g>
		<path class="st2" d="M249,174.9L249,174.9l-0.1-1.1l0.6,0.1l0.1,1.3l-0.2,0.6l-5-2.1l0.3-0.7L249,174.9z"/>
		<path class="st2" d="M246.8,180.4l0.8-1.9l-1.2-0.7c0,0.1-0.1,0.2-0.1,0.4c-0.2,0.4-0.4,0.7-0.7,1c-0.4,0.3-1,0.4-1.6,0.2
			c-1-0.4-1.4-1.5-0.9-2.6c0.2-0.5,0.6-0.9,0.8-1.1l0.4,0.4c-0.2,0.2-0.5,0.5-0.7,1c-0.3,0.6-0.1,1.4,0.6,1.6c0.7,0.3,1.3,0,1.7-1
			c0.1-0.3,0.2-0.5,0.2-0.7l2.3,1.3l-1,2.4L246.8,180.4z"/>
		<path class="st2" d="M243.2,183.9c-1.7-0.7-2.4-1.7-1.9-2.8c0.4-1,1.6-1.3,3.3-0.6s2.3,1.8,1.9,2.8
			C245.9,184.4,244.8,184.6,243.2,183.9z M244.2,181.2c-1.3-0.5-2.2-0.4-2.5,0.2c-0.3,0.7,0.4,1.4,1.7,1.9c1.2,0.5,2.2,0.5,2.5-0.2
			C246.1,182.5,245.6,181.7,244.2,181.2z"/>
	</g>
</g>
<g>
	<g>
		<path class="st2" d="M253.9,159L253.9,159l-0.2-1.1h0.6l0.3,1.3l-0.2,0.6l-5.2-1.4l0.2-0.7L253.9,159z"/>
		<path class="st2" d="M248,162.5l1.4,0.4l0.7-2.4l0.5,0.1l2.7,3.2l-0.2,0.8l-3.3-0.9l-0.2,0.7l-0.6-0.1l0.2-0.7l-1.4-0.4L248,162.5
			z M250,163.1l1.7,0.5c0.3,0.1,0.5,0.2,0.8,0.2l0,0c-0.3-0.2-0.5-0.4-0.7-0.6l-1.4-1.8l0,0L250,163.1z"/>
		<path class="st2" d="M249.2,168.7c-1.8-0.5-2.6-1.4-2.3-2.6c0.3-1,1.4-1.5,3.2-1s2.5,1.5,2.2,2.6
			C252.1,168.7,250.9,169.1,249.2,168.7z M249.9,165.8c-1.4-0.4-2.3-0.2-2.4,0.5c-0.2,0.7,0.6,1.3,1.9,1.7c1.3,0.3,2.2,0.2,2.4-0.5
			C252,166.8,251.4,166.2,249.9,165.8z"/>
	</g>
</g>
<g>
	<g>
		<path class="st2" d="M256.4,142.4L256.4,142.4l-0.4-1l0.6-0.1l0.5,1.3l-0.1,0.6l-5.4-0.7l0.1-0.7L256.4,142.4z"/>
		<path class="st2" d="M252.2,144.7c-0.2,0.2-0.4,0.6-0.5,1.1c-0.1,0.9,0.4,1.3,0.9,1.4c0.8,0.1,1.2-0.5,1.3-1.2l0.1-0.4l0.5,0.1
			l-0.1,0.4c-0.1,0.5,0.1,1.2,0.8,1.3c0.4,0.1,0.8-0.2,0.9-0.8c0.1-0.4-0.1-0.9-0.2-1.1l0.6-0.1c0.2,0.3,0.3,0.9,0.2,1.5
			c-0.1,1.1-0.8,1.5-1.5,1.4c-0.6-0.1-1-0.5-1.1-1.2l0,0c-0.2,0.6-0.8,1.1-1.5,1c-0.9-0.1-1.5-0.9-1.4-2.2c0.1-0.6,0.3-1.1,0.5-1.4
			L252.2,144.7z"/>
		<path class="st2" d="M253.1,152.6c-1.8-0.2-2.7-1.1-2.6-2.2c0.1-1.1,1.2-1.6,3-1.4c1.8,0.2,2.7,1.1,2.6,2.2
			C255.9,152.3,254.8,152.8,253.1,152.6z M253.4,149.7c-1.4-0.2-2.3,0.1-2.3,0.8c-0.1,0.7,0.7,1.2,2.1,1.4c1.3,0.2,2.2-0.1,2.3-0.8
			S254.9,149.9,253.4,149.7z"/>
	</g>
</g>
<g>
	<g>
		<path class="st2" d="M257,125.6L257,125.6l-0.5-1l0.6-0.1l0.6,1.2v0.6h-5.4v-0.7H257z"/>
		<path class="st2" d="M252.3,128.3h0.5l0.6,0.6c1.3,1.4,2,2,2.8,2c0.6,0,1.1-0.3,1.1-1.1c0-0.5-0.3-0.9-0.5-1.2l0.5-0.2
			c0.3,0.4,0.6,0.9,0.6,1.5c0,1.2-0.8,1.7-1.6,1.7c-1,0-1.8-0.7-2.9-1.9l-0.4-0.4l0,0v2.4h-0.6v-3.4L252.3,128.3L252.3,128.3z"/>
		<path class="st2" d="M255.1,136.2c-1.8,0-2.9-0.7-2.9-1.9c0-1.1,1-1.8,2.8-1.8s2.8,0.8,2.8,1.9
			C257.8,135.5,256.8,136.2,255.1,136.2z M255,133.2c-1.4,0-2.2,0.4-2.2,1.1c0,0.8,0.9,1.1,2.3,1.1c1.3,0,2.2-0.3,2.2-1.1
			C257.2,133.7,256.5,133.2,255,133.2z"/>
	</g>
</g>
<g>
	<g>
		<path class="st2" d="M255.4,108.8L255.4,108.8l-0.6-0.9l0.5-0.2l0.8,1.1l0.1,0.6l-5.4,0.7l-0.1-0.7L255.4,108.8z"/>
		<path class="st2" d="M255.9,113.1L255.9,113.1l-0.6-0.9l0.5-0.2l0.8,1.1l0.1,0.6l-5.4,0.7l-0.1-0.7L255.9,113.1z"/>
		<path class="st2" d="M254.8,119.6c-1.8,0.2-2.9-0.3-3.1-1.5c-0.1-1.1,0.8-1.9,2.5-2.1c1.8-0.2,2.9,0.4,3,1.5
			C257.4,118.6,256.5,119.3,254.8,119.6z M254.3,116.7c-1.4,0.2-2.1,0.7-2.1,1.4c0.1,0.7,1,1,2.4,0.8c1.3-0.2,2.1-0.6,2.1-1.4
			C256.6,116.8,255.8,116.5,254.3,116.7z"/>
	</g>
</g>
<g>
	<g>
		<path class="st2" d="M251.6,92.7L251.6,92.7l-0.7-0.8l0.5-0.3l0.9,1l0.2,0.6l-5.2,1.4l-0.2-0.7L251.6,92.7z"/>
		<path class="st2" d="M251.3,99.3c-1.8,0.5-2.9,0.1-3.3-1.1c-0.3-1,0.5-2,2.2-2.5c1.8-0.5,2.9,0,3.2,1.1
			C253.8,97.9,253,98.8,251.3,99.3z M250.4,96.4c-1.4,0.4-2,1-1.9,1.6c0.2,0.7,1.1,0.8,2.5,0.5c1.3-0.3,2-0.9,1.9-1.6
			C252.8,96.3,251.9,96,250.4,96.4z"/>
		<path class="st2" d="M252.4,103.4c-1.8,0.5-2.9,0.1-3.3-1.1c-0.3-1,0.5-2,2.2-2.5c1.8-0.5,2.9,0,3.2,1.1
			C254.9,102,254.1,102.9,252.4,103.4z M251.6,100.6c-1.4,0.4-2,1-1.9,1.6c0.2,0.7,1.1,0.8,2.5,0.5c1.3-0.3,2-0.9,1.9-1.6
			C253.9,100.4,253,100.2,251.6,100.6z"/>
	</g>
</g>
<g>
	<g>
		<path class="st2" d="M242,79.5c0,0.2,0.1,0.3,0.3,0.5c0.2,0.4,0.5,0.7,0.9,0.8c0.4,0.2,1,0.3,1.6,0.1l0,0c-0.5-0.1-0.8-0.5-1-1
			c-0.4-0.9,0.1-1.8,0.9-2.1c0.9-0.4,2.1-0.1,2.5,1c0.4,1-0.1,2-1.4,2.5c-1.1,0.5-2,0.4-2.7,0.1c-0.5-0.2-1-0.7-1.3-1.2
			c-0.1-0.2-0.2-0.4-0.3-0.6L242,79.5z M245,78.5c-0.6,0.3-0.9,0.8-0.7,1.4c0.2,0.5,0.6,0.7,0.9,0.8c0.1,0,0.2,0,0.3,0
			c0.9-0.4,1.4-0.9,1.1-1.7C246.4,78.4,245.7,78.2,245,78.5z"/>
		<path class="st2" d="M246.9,85.5c-1.7,0.7-2.9,0.5-3.4-0.6c-0.4-1,0.2-2,1.9-2.7s2.9-0.4,3.3,0.7
			C249.2,83.9,248.5,84.9,246.9,85.5z M245.7,82.8c-1.3,0.5-1.9,1.2-1.6,1.9c0.3,0.7,1.2,0.7,2.5,0.2c1.2-0.5,1.9-1.2,1.6-1.9
			C248,82.4,247.1,82.3,245.7,82.8z"/>
	</g>
</g>
<g>
	<g>
		<path class="st2" d="M235,64.3c0.6-0.3,1.2-0.2,1.8,0.2l0,0c-0.1-0.7,0.2-1.1,0.6-1.4c0.7-0.4,1.6-0.1,2.1,0.7
			c0.5,0.9,0.2,1.7-0.4,2c-0.4,0.2-0.9,0.3-1.5-0.1l0,0c0.1,0.7-0.1,1.3-0.7,1.6c-0.8,0.5-1.8,0.1-2.3-0.8
			C234.1,65.7,234.3,64.7,235,64.3z M236.5,66.9c0.6-0.3,0.6-0.9,0.4-1.6c-0.5-0.5-1-0.5-1.5-0.3c-0.5,0.3-0.7,0.9-0.4,1.5
			C235.4,67,236,67.1,236.5,66.9z M237.8,63.7c-0.5,0.3-0.5,0.8-0.4,1.4c0.4,0.3,0.8,0.5,1.3,0.2c0.4-0.2,0.6-0.7,0.3-1.2
			C238.7,63.6,238.2,63.5,237.8,63.7z"/>
		<path class="st2" d="M240.2,70.5c-1.6,0.9-2.8,0.8-3.4-0.2c-0.5-0.9,0-2,1.5-2.9c1.6-0.9,2.8-0.7,3.4,0.2
			C242.2,68.6,241.7,69.7,240.2,70.5z M238.6,68c-1.2,0.7-1.7,1.5-1.4,2.1c0.4,0.7,1.3,0.5,2.5-0.2s1.7-1.4,1.4-2.1
			C240.8,67.3,239.9,67.3,238.6,68z"/>
	</g>
</g>
<g>
	<g>
		<path class="st2" d="M230.8,51.3l-0.4,0.3l-5.4,1.1l-0.5-0.6l5.2-1.1l0,0l-1.6-2.1l0.5-0.4L230.8,51.3z"/>
		<path class="st2" d="M231.4,56.4c-1.5,1.1-2.7,1.2-3.4,0.2c-0.6-0.8-0.3-2,1.1-3.1c1.4-1.1,2.7-1.1,3.4-0.2S232.8,55.4,231.4,56.4
			z M229.5,54.1c-1.1,0.9-1.5,1.7-1.1,2.2c0.5,0.6,1.4,0.3,2.5-0.5s1.5-1.6,1.1-2.2C231.6,53.1,230.7,53.2,229.5,54.1z"/>
	</g>
</g>
<g>
	<g>
		<path class="st2" d="M219.1,38.9c-0.1-0.1-0.2-0.2-0.4-0.4c-1-0.7-2-0.5-2.7,0l0,0c0.4-0.1,0.9,0.1,1.4,0.5
			c0.7,0.7,0.7,1.6-0.1,2.4c-0.7,0.7-1.8,0.9-2.6,0.1c-0.8-0.8-0.7-2,0.3-3c0.8-0.8,1.6-1.1,2.4-1.1c0.6,0,1.3,0.2,1.8,0.7
			c0.2,0.1,0.3,0.3,0.4,0.3L219.1,38.9z M216.8,40.9c0.5-0.5,0.6-1.2,0.1-1.7c-0.3-0.3-0.8-0.4-1.2-0.3c-0.1,0-0.2,0.1-0.3,0.2
			c-0.6,0.6-0.8,1.4-0.3,1.9C215.5,41.6,216.2,41.5,216.8,40.9z"/>
		<path class="st2" d="M221,43.8c-1.3,1.3-2.5,1.5-3.4,0.7c-0.7-0.7-0.6-2,0.7-3.2c1.3-1.3,2.6-1.4,3.3-0.7
			C222.5,41.4,222.2,42.5,221,43.8z M218.8,41.7c-1,1-1.3,1.9-0.8,2.3c0.5,0.5,1.4,0.2,2.4-0.8c0.9-0.9,1.3-1.8,0.8-2.3
			C220.8,40.5,219.9,40.7,218.8,41.7z"/>
	</g>
</g>
<g>
	<g>
		<path class="st2" d="M206.4,28l-1.6-1.3l-1,1c0.1,0.1,0.2,0.1,0.4,0.2c0.3,0.3,0.6,0.6,0.7,0.9c0.2,0.5,0.2,1-0.2,1.6
			c-0.6,0.8-1.8,1-2.7,0.2c-0.5-0.4-0.8-0.8-0.9-1.1l0.5-0.3c0.1,0.2,0.3,0.6,0.7,0.9c0.5,0.4,1.3,0.4,1.7-0.2s0.4-1.2-0.5-1.9
			c-0.2-0.2-0.5-0.3-0.6-0.4l1.9-1.9l2.1,1.6L206.4,28z"/>
		<path class="st2" d="M208.8,32.4c-1.1,1.5-2.3,1.9-3.2,1.1c-0.8-0.6-0.8-1.9,0.3-3.3s2.3-1.8,3.2-1.1S209.9,31,208.8,32.4z
			 M206.4,30.7c-0.9,1.1-1,2-0.5,2.4c0.6,0.5,1.4,0,2.3-1.1c0.8-1.1,1.1-2,0.5-2.4C208.2,29.2,207.3,29.5,206.4,30.7z"/>
	</g>
</g>
<g>
	<g>
		<path class="st2" d="M189.3,22.5l0.7-1.3l-2.2-1.3l0.2-0.4l3.8-1.8l0.7,0.4l-1.7,2.9l0.7,0.4l-0.3,0.5l-0.7-0.4l-0.7,1.3
			L189.3,22.5z M190.3,20.7l0.9-1.6c0.1-0.2,0.3-0.5,0.4-0.7l0,0c-0.3,0.2-0.5,0.3-0.8,0.5l-2.1,0.9l0,0L190.3,20.7z"/>
		<path class="st2" d="M195.5,22.9c-0.9,1.6-2,2.1-3.1,1.5c-0.9-0.5-1-1.7-0.2-3.3c0.9-1.6,2.1-2.1,3-1.5
			C196.3,20.2,196.4,21.4,195.5,22.9z M192.9,21.5c-0.7,1.2-0.7,2.1-0.2,2.5c0.7,0.4,1.4-0.2,2.1-1.4c0.7-1.2,0.8-2.1,0.2-2.5
			C194.5,19.7,193.7,20.2,192.9,21.5z"/>
	</g>
</g>
<g>
	<g>
		<path class="st2" d="M173.1,13.9c0.1,0.2,0.5,0.6,1,0.8c0.9,0.4,1.4-0.1,1.5-0.5c0.3-0.7-0.2-1.3-0.9-1.5l-0.4-0.2l0.2-0.5
			l0.4,0.2c0.5,0.2,1.2,0.2,1.5-0.4c0.2-0.4,0.1-0.9-0.6-1.1c-0.4-0.2-0.9-0.1-1.1-0.1V10c0.3-0.1,0.9-0.1,1.5,0.2
			c1,0.4,1.2,1.2,0.9,1.8c-0.2,0.5-0.7,0.8-1.4,0.8l0,0c0.6,0.4,0.9,1,0.6,1.8c-0.3,0.8-1.2,1.2-2.5,0.7c-0.6-0.2-1-0.6-1.2-0.9
			L173.1,13.9z"/>
		<path class="st2" d="M180.9,15c-0.7,1.7-1.7,2.4-2.8,1.9c-1-0.4-1.3-1.6-0.6-3.3s1.8-2.3,2.8-1.9C181.4,12.2,181.6,13.4,180.9,15z
			 M178.2,14c-0.5,1.3-0.4,2.2,0.2,2.5c0.7,0.3,1.4-0.4,1.9-1.7c0.5-1.2,0.5-2.2-0.2-2.5C179.5,12.1,178.7,12.6,178.2,14z"/>
	</g>
</g>
<g>
	<g>
		<path class="st2" d="M157.2,10l0.1-0.4l0.7-0.4c1.7-0.9,2.5-1.4,2.7-2.2c0.1-0.5,0-1.1-0.8-1.3c-0.5-0.1-0.9,0-1.2,0.1l-0.1-0.6
			c0.4-0.2,1-0.3,1.6-0.1c1.1,0.3,1.4,1.2,1.2,2c-0.3,1-1.2,1.6-2.6,2.3l-0.5,0.3l0,0l2.4,0.6l-0.2,0.6L157.2,10z"/>
		<path class="st2" d="M165.5,9.3c-0.5,1.8-1.4,2.6-2.6,2.3c-1-0.3-1.5-1.4-1-3.2s1.5-2.5,2.6-2.2C165.6,6.5,165.9,7.7,165.5,9.3z
			 M162.6,8.7c-0.4,1.4-0.2,2.2,0.5,2.4c0.7,0.2,1.3-0.6,1.7-1.9c0.3-1.3,0.2-2.2-0.5-2.4C163.7,6.6,163,7.2,162.6,8.7z"/>
	</g>
</g>
<g>
	<g>
		<path class="st2" d="M143.3,2.8L143.3,2.8l-1,0.4l-0.1-0.6l1.3-0.5l0.6,0.1l-0.7,5.4l-0.7-0.1L143.3,2.8z"/>
		<path class="st2" d="M149.3,5.6c-0.2,1.8-1.1,2.7-2.2,2.6c-1.1-0.1-1.6-1.2-1.4-3c0.2-1.8,1.1-2.7,2.2-2.6
			C149,2.8,149.5,3.9,149.3,5.6z M146.3,5.3c-0.2,1.4,0.1,2.3,0.8,2.3c0.7,0.1,1.2-0.7,1.4-2.1c0.2-1.3-0.1-2.2-0.8-2.3
			C147.1,3.1,146.5,3.8,146.3,5.3z"/>
	</g>
</g>
<polygon class="st0" points="85.3,255.7 101.9,229.5 156.7,229.5 172,257.5 159,241.7 98.3,241.7 "/>
</svg>
