<?xml version="1.0" encoding="utf-8"?>
<!-- Generator: Adobe Illustrator 22.0.0, SVG Export Plug-In . SVG Version: 6.00 Build 0)  -->
<svg version="1.1" id="cl_con" xmlns="http://www.w3.org/2000/svg" xmlns:xlink="http://www.w3.org/1999/xlink" x="0px"
	 y="0px"
	 viewBox="0 0 480 480" style="enable-background:new 0 0 340 340;" xml:space="preserve">
<style type="text/css">
	.st0{fill:url(#SVGID_1_);}
</style>
<linearGradient id="SVGID_1_" gradientUnits="userSpaceOnUse" x1="-205" y1="242.111" x2="381.109" y2="242.111">
	<stop  offset="0" style="stop-color:#6BC6D4"/>
	<stop  offset="1" style="stop-color:#4972B8"/>
</linearGradient>
<path class="st0" transform="translate(220,0)"
	  d="M229.8,207.5h-23c-9.5,0-19.6-7.4-22.4-16.5l-11.9-29c-4.5-8.4-2.6-20.8,4.1-27.5l16.3-16.3
	c2.7-2.7,4.4-6.5,4.4-10.7c0-4.2-1.7-7.9-4.4-10.7l-27.7-27.7c-2.7-2.7-6.5-4.4-10.6-4.4c-4.2,0-7.9,1.7-10.7,4.4l-16.3,16.3
	c-6.7,6.7-19.1,8.6-27.5,4.1l-29-11.9C62,74.9,54.5,64.8,54.5,55.3v-23c0-3.8-1.5-7.7-4.4-10.6c-2.9-2.9-6.8-4.4-10.6-4.4H0.4
	c-3.9,0-7.7,1.5-10.6,4.4c-2.9,2.9-4.4,6.8-4.4,10.6v23c0,9.5-7.4,19.6-16.5,22.4l-29,11.9c-8.4,4.5-20.8,2.7-27.5-4.1L-104,69.3
	c-2.7-2.7-6.5-4.4-10.7-4.4c-4.1,0-7.9,1.7-10.6,4.4l-27.6,27.6c-2.7,2.7-4.4,6.5-4.4,10.6c0,4.2,1.7,7.9,4.4,10.6l16.3,16.3
	c6.7,6.7,8.6,19.1,4.1,27.5l-11.9,29c-2.8,9.1-12.9,16.5-22.4,16.5l-23,0c-3.9,0-7.7,1.5-10.7,4.4c-2.9,2.9-4.4,6.8-4.4,10.7v39.1
	c0,3.9,1.5,7.7,4.4,10.7c2.9,2.9,6.8,4.4,10.7,4.4h23c9.5,0,19.6,7.5,22.4,16.5l11.9,29c4.5,8.4,2.7,20.8-4.1,27.5L-153,366
	c-2.7,2.7-4.4,6.5-4.4,10.7c0,4.2,1.7,7.9,4.4,10.7l27.7,27.6c2.7,2.7,6.5,4.4,10.6,4.4c4.2,0,7.9-1.7,10.7-4.4l16.3-16.3
	c6.7-6.7,19-8.6,27.4-4l29,11.9c9.1,2.8,16.5,12.9,16.5,22.4v23c0,3.8,1.5,7.7,4.4,10.7c2.9,2.9,6.8,4.4,10.7,4.4h39.1
	c3.9,0,7.7-1.5,10.7-4.4c2.9-2.9,4.4-6.8,4.4-10.7v-23c0-9.5,7.5-19.6,16.5-22.4l29-11.9c8.4-4.5,20.8-2.7,27.5,4l16.2,16.3
	c2.7,2.7,6.5,4.4,10.7,4.4c4.1,0,7.9-1.7,10.6-4.4l27.7-27.7c2.8-2.7,4.4-6.5,4.4-10.7c0-4.2-1.7-7.9-4.4-10.7l-16.3-16.3
	c-6.7-6.7-8.5-19.1-4.1-27.5l11.9-29c2.8-9.1,13-16.5,22.5-16.5h23c3.8,0,7.7-1.5,10.6-4.4c2.9-2.9,4.4-6.8,4.4-10.6v-39.1
	c0-3.9-1.5-7.7-4.4-10.7C237.5,209,233.6,207.5,229.8,207.5L229.8,207.5z M20,328.6c-47.8,0-86.5-38.7-86.5-86.5
	c0-47.8,38.7-86.5,86.5-86.5c47.8,0,86.5,38.7,86.5,86.5C106.5,289.9,67.8,328.6,20,328.6L20,328.6z M381.1,99.6"/>
</svg>
