<?xml version="1.0" encoding="utf-8"?>
<!-- Generator: Adobe Illustrator 22.0.0, SVG Export Plug-In . SVG Version: 6.00 Build 0)  -->
<svg version="1.1" id="图层_1" xmlns="http://www.w3.org/2000/svg" xmlns:xlink="http://www.w3.org/1999/xlink" x="0px" y="0px"
	 viewBox="0 0 340 340" style="enable-background:new 0 0 340 340;" xml:space="preserve">
<style type="text/css">
	.st0{fill:url(#SVGID_1_);}
</style>
<linearGradient id="SVGID_1_" gradientUnits="userSpaceOnUse" x1="218.102" y1="36.959" x2="544.023" y2="36.959">
	<stop  offset="0" style="stop-color:#6BC6D4"/>
	<stop  offset="1" style="stop-color:#4972B8"/>
</linearGradient>
<path class="st0"  transform="translate(-210,135)"
	  d="M540.8,15.1c-2.1-2.1-4.9-3.2-7.7-3.2h-16.7c-6.9,0-14.2-5.4-16.3-12l-8.6-21c-3.2-6.1-1.9-15,2.9-19.9
	l11.8-11.8c2-2,3.2-4.7,3.2-7.7c0-3-1.2-5.7-3.2-7.7l-20.1-20c-2-2-4.7-3.2-7.7-3.2c-3,0-5.7,1.2-7.7,3.2L459-76.5
	c-4.9,4.9-13.8,6.2-19.9,2.9l-21-8.6c-6.6-2-12-9.4-12-16.3v-16.7c0-2.8-1.1-5.6-3.2-7.7c-2.1-2.1-4.9-3.2-7.7-3.2h-28.3
	c-2.8,0-5.6,1.1-7.7,3.2c-2.1,2.1-3.2,4.9-3.2,7.7v16.7c0,6.9-5.4,14.2-11.9,16.3l-21,8.6c-6.1,3.3-15,1.9-19.9-2.9l-11.9-11.8
	c-2-2-4.7-3.2-7.7-3.2c-3,0-5.7,1.2-7.7,3.2l-20,20c-2,2-3.2,4.7-3.2,7.7c0,3,1.2,5.7,3.2,7.7L267.6-41c4.9,4.9,6.2,13.8,2.9,19.9
	l-8.6,21c-2,6.6-9.3,12-16.2,12l-16.7,0c-2.8,0-5.6,1.1-7.7,3.2c-2.1,2.1-3.2,4.9-3.2,7.7v28.3c0,2.8,1.1,5.6,3.2,7.7
	c2.1,2.1,4.9,3.2,7.7,3.2h16.7c6.9,0,14.2,5.4,16.2,12l8.7,21c3.3,6.1,1.9,15.1-2.9,19.9l-11.8,11.8c-2,2-3.2,4.7-3.2,7.7
	c0,3,1.2,5.7,3.2,7.7l20.1,20c2,2,4.7,3.2,7.7,3.2c3,0,5.7-1.2,7.7-3.2l11.8-11.8c4.9-4.9,13.8-6.2,19.9-2.9l21,8.6
	c6.6,2,12,9.3,12,16.2V189c0,2.8,1.1,5.6,3.2,7.7c2.1,2.1,4.9,3.2,7.7,3.2h28.3c2.8,0,5.6-1.1,7.7-3.2c2.1-2.1,3.2-4.9,3.2-7.7
	v-16.6c0-6.9,5.4-14.2,12-16.2l21-8.6c6.1-3.3,15.1-2,19.9,2.9l11.8,11.8c2,2,4.7,3.2,7.7,3.2c3,0,5.7-1.2,7.7-3.2l20.1-20.1
	c2-2,3.2-4.7,3.2-7.7c0-3-1.2-5.7-3.2-7.7l-11.8-11.8c-4.9-4.9-6.2-13.8-2.9-19.9l8.6-21c2.1-6.6,9.4-12,16.3-12h16.7
	c2.8,0,5.6-1.1,7.7-3.2c2.1-2.1,3.2-4.9,3.2-7.7V22.8C544,20,543,17.2,540.8,15.1L540.8,15.1z M381.1,99.6
	c-34.6,0-62.7-28-62.7-62.7s28.1-62.7,62.7-62.7c34.6,0,62.7,28.1,62.7,62.7S415.7,99.6,381.1,99.6L381.1,99.6z M381.1,99.6"/>
</svg>
