<?xml version="1.0" encoding="utf-8"?>
<!-- Generator: Adobe Illustrator 22.0.0, SVG Export Plug-In . SVG Version: 6.00 Build 0)  -->
<svg version="1.1" id="图层_1" xmlns="http://www.w3.org/2000/svg" xmlns:xlink="http://www.w3.org/1999/xlink" x="0px" y="0px"
	 viewBox="0 0 1000 1000" style="enable-background:new 0 0 1000 1000;" xml:space="preserve">
<style type="text/css">
	.st0{fill:#00F9FB;}
	.st1{opacity:0.95;}
	.st2{opacity:0.9;}
	.st3{opacity:0.85;}
	.st4{opacity:0.8;}
	.st5{opacity:0.75;}
	.st6{opacity:0.7;}
	.st7{opacity:0.65;}
	.st8{opacity:0.6;}
	.st9{opacity:0.55;}
	.st10{opacity:0.5;}
	.st11{opacity:0.45;}
	.st12{opacity:0.4;}
	.st13{opacity:0.35;}
	.st14{opacity:0.3;}
	.st15{opacity:0.25;}
	.st16{opacity:0.2;}
	.st17{opacity:0.15;}
	.st18{opacity:0.1;}
	.st19{clip-path:url(#SVGID_2_);fill:none;stroke:#00F9FB;stroke-width:14;stroke-miterlimit:10;}
	.st20{clip-path:url(#SVGID_4_);fill:none;stroke:#00F9FB;stroke-width:14;stroke-miterlimit:10;}
</style>
<g>
	<path class="st0" d="M505.4,737.6c0,0,0.3,0,1,0c0.7-0.1,1.7-0.1,3-0.2c2.6-0.3,6.4-0.4,11.2-1c9.7-1,23.4-3.3,39.4-7.9
		c8-2.3,16.5-5.4,25.3-9c2.2-1,4.4-2,6.6-3c2.2-1,4.5-2,6.7-3.2c2.2-1.1,4.5-2.3,6.8-3.5c2.2-1.3,4.5-2.6,6.7-3.9
		c2.3-1.3,4.5-2.6,6.7-4.1c2.2-1.4,4.5-2.8,6.7-4.3c4.4-3.1,8.8-6.2,13.1-9.7c4.4-3.3,8.4-7,12.6-10.6c4-3.8,8.1-7.6,11.9-11.7
		c3.9-3.9,7.5-8.2,11.1-12.4c3.4-4.4,6.9-8.6,10-13.1c6.4-8.8,12-18.1,16.8-27.3c1.2-2.3,2.4-4.6,3.5-6.9c1.1-2.3,2.1-4.6,3.1-6.9
		c0.5-1.1,1-2.3,1.5-3.4c0.5-1.2,0.9-2.3,1.4-3.4c0.9-2.3,1.8-4.5,2.7-6.7c1.5-4.5,3.1-8.9,4.4-13.2c1.2-4.3,2.6-8.4,3.4-12.5
		c3.8-16.2,5.5-30,6-39.7c0.2-2.4,0.3-4.6,0.3-6.5c0-1.9,0.1-3.5,0.1-4.8c0.1-2.6,0.1-4,0.1-4H718c0,0,0,1.3-0.1,3.8
		c0,1.3-0.1,2.8-0.1,4.6s-0.1,3.9-0.3,6.2c-0.5,9.3-2.1,22.6-5.8,38.1c-0.8,3.9-2.1,7.9-3.2,12c-1.2,4.1-2.7,8.3-4.2,12.6
		c-0.8,2.1-1.7,4.3-2.6,6.5c-0.4,1.1-0.9,2.2-1.3,3.3c-0.5,1.1-1,2.2-1.5,3.3c-1,2.2-2,4.4-3,6.6c-1.1,2.2-2.2,4.4-3.4,6.6
		c-4.6,8.8-9.9,17.7-16.1,26.2c-2.9,4.3-6.4,8.4-9.6,12.6c-3.5,4-6.9,8.1-10.6,11.9c-3.6,3.9-7.6,7.5-11.4,11.2
		c-4,3.4-7.9,7-12.1,10.2c-4.1,3.3-8.4,6.3-12.5,9.3c-2.1,1.5-4.3,2.8-6.4,4.2c-2.1,1.4-4.3,2.7-6.4,3.9c-2.2,1.2-4.3,2.5-6.4,3.7
		c-2.2,1.1-4.3,2.2-6.5,3.3c-2.1,1.1-4.3,2.2-6.4,3.1c-2.1,1-4.2,1.9-6.3,2.9c-8.5,3.4-16.6,6.4-24.3,8.6
		c-15.3,4.4-28.5,6.6-37.8,7.6c-4.6,0.6-8.3,0.7-10.8,0.9c-1.2,0.1-2.2,0.2-2.8,0.2c-0.6,0-1,0-1,0L505.4,737.6z"/>
	<path class="st0" d="M339.2,335.8c0,0-1.5,1.5-4.4,4.2c-1.5,1.3-3.2,3-5.1,5.1s-4.4,4.4-6.7,7.2c-9.7,11-22.9,27.8-34.1,50.5
		c-11.2,22.6-20.4,51.1-22.9,82.7c-2.7,31.5,1.4,65.8,12.9,97.4c11.5,31.7,30.4,60.5,52.7,83c22.3,22.5,47.7,38.6,70.8,48.6
		c23.2,10.1,44,14.7,58.5,16.8c3.7,0.5,6.9,0.9,9.8,1.2c2.9,0.2,5.3,0.4,7.3,0.6c2,0.2,3.5,0.3,4.5,0.3s1.5,0,1.5,0l0.1-1.6
		c0,0-0.5,0-1.5,0c-1-0.1-2.5-0.2-4.5-0.3s-4.4-0.3-7.2-0.6c-2.8-0.4-6.1-0.8-9.7-1.2c-14.5-2-35.1-6.6-58.1-16.7
		c-23-9.9-48.2-25.9-70.3-48.3c-22.1-22.3-40.9-50.9-52.3-82.4c-11.5-31.5-15.5-65.5-12.8-96.8c2.5-31.4,11.6-59.7,22.8-82.1
		c11.1-22.6,24.2-39.2,33.9-50.2c2.3-2.8,4.7-5.1,6.7-7.2c1.9-2.1,3.7-3.8,5.1-5.1c2.8-2.7,4.4-4.2,4.4-4.2L339.2,335.8z"/>
	<path class="st0" d="M564.3,743c0,0,0.7-0.2,2-0.6c1.3-0.3,3.3-1,5.7-1.8c2.4-0.9,5.4-1.8,8.8-3c3.3-1.3,7.2-2.8,11.2-4.5
		c16.3-7,37.3-18.3,55.8-33.2c18.8-14.4,34.7-32.2,45.4-46.4c2.6-3.6,4.9-6.9,7-9.9c1.9-3,3.6-5.7,5-7.9s2.4-3.9,3.1-5.1
		c0.7-1.2,1.1-1.8,1.1-1.8l-8.2-4.8c0,0-0.4,0.6-1,1.8c-0.7,1.2-1.6,2.9-3,4.9c-1.3,2.1-3,4.6-4.9,7.6c-2,2.8-4.3,6-6.8,9.5
		c-10.3,13.6-25.6,30.7-43.7,44.6c-17.8,14.3-38,25.2-53.6,31.9c-3.9,1.7-7.6,3-10.8,4.3c-3.2,1.2-6.1,2.1-8.5,2.9
		c-2.4,0.8-4.2,1.4-5.5,1.8c-1.3,0.4-2,0.6-2,0.6L564.3,743z"/>
	<path class="st0" d="M322.8,684.3c0,0,0.5,0.5,1.5,1.5c1,0.9,2.4,2.4,4.4,4.1c2,1.7,4.3,3.8,7.1,6.1c2.8,2.2,6,4.8,9.5,7.5
		c14.2,10.6,34.5,23.2,56.5,31.8c21.9,9,45.2,14,62.8,16c4.4,0.7,8.5,0.8,12.1,1.1c1.8,0.1,3.5,0.3,5,0.4c1.6,0,3,0.1,4.3,0.1
		c5.2,0.1,8.1,0.2,8.1,0.2v-9.5c0,0-2.8-0.1-7.8-0.2c-1.2,0-2.6-0.1-4.1-0.1c-1.5-0.1-3.1-0.2-4.8-0.4c-3.5-0.3-7.4-0.5-11.6-1.1
		c-16.9-2-39.4-6.8-60.4-15.4c-21.2-8.3-40.7-20.4-54.4-30.6c-3.3-2.6-6.4-5.1-9.1-7.2c-2.6-2.3-4.9-4.2-6.8-5.9
		c-1.9-1.6-3.3-3-4.2-3.9c-1-0.9-1.5-1.4-1.5-1.4L322.8,684.3z"/>
	<path class="st0" d="M749.4,576.4c0,0,0.3-1.1,0.9-3c0.6-1.9,1.2-4.7,2-8c1.6-6.6,3.3-15.6,4.6-24.6s1.9-18.1,2.2-24.9
		c0.2-6.8,0.3-11.4,0.3-11.4h-9.5c0,0-0.1,4.4-0.3,11c-0.3,6.6-0.9,15.3-2.2,24c-1.2,8.7-2.8,17.3-4.4,23.7
		c-0.7,3.2-1.3,5.9-1.9,7.7c-0.5,1.8-0.8,2.9-0.8,2.9L749.4,576.4z"/>
	<path class="st0" d="M671.1,702c0,0,0.9-0.7,2.3-2.1c1.4-1.4,3.5-3.3,6-5.7c4.9-4.7,11.2-11.3,17-18.3c5.9-6.9,11.4-14.2,15.3-19.8
		c2-2.7,3.6-5.1,4.6-6.8c1.1-1.7,1.7-2.6,1.7-2.6l-8-5.1c0,0-0.6,0.9-1.6,2.5s-2.5,3.9-4.4,6.6c-3.7,5.4-9,12.4-14.7,19.1
		c-5.6,6.7-11.7,13-16.4,17.6c-2.4,2.3-4.4,4.2-5.7,5.5c-1.4,1.3-2.2,2-2.2,2L671.1,702z"/>
	<path class="st0" d="M543.3,765c0,0,4.5-0.7,11.1-2.3c3.3-0.7,7.2-1.6,11.3-2.9c4.1-1.1,8.5-2.4,12.8-3.9c2.2-0.7,4.3-1.5,6.4-2.2
		c2.1-0.8,4.1-1.6,6.1-2.4c4-1.5,7.7-3,10.7-4.5c3.1-1.4,5.7-2.6,7.5-3.4c1.8-0.9,2.8-1.4,2.8-1.4l-4.2-8.5c0,0-1,0.5-2.7,1.4
		c-1.7,0.8-4.2,1.9-7.2,3.3c-3,1.4-6.5,2.8-10.4,4.3c-1.9,0.7-3.9,1.6-5.9,2.3s-4.1,1.4-6.2,2.1c-4.1,1.5-8.3,2.7-12.3,3.8
		c-3.9,1.2-7.7,2.1-10.9,2.8c-6.4,1.6-10.7,2.3-10.7,2.3L543.3,765z"/>
	<path class="st0" d="M401.4,752.8c0,0,1,0.5,2.9,1.1s4.6,1.6,7.8,2.6c3.2,1.2,7.1,2.2,11.2,3.4s8.5,2.2,13,3.2
		c4.4,1.1,8.9,1.8,13.1,2.6s8.1,1.3,11.5,1.7c6.8,1,11.3,1.2,11.3,1.2l0.8-9.5c0,0-4.4-0.2-10.9-1.1c-3.3-0.4-7.1-0.8-11.1-1.6
		c-4-0.7-8.4-1.4-12.6-2.5c-4.3-1-8.6-1.9-12.5-3.1c-3.9-1.1-7.7-2.1-10.8-3.2c-3.1-1.1-5.7-1.9-7.5-2.5s-2.8-1.1-2.8-1.1
		L401.4,752.8z"/>
	<path class="st0" d="M286.4,668.7c0,0,0.7,0.9,1.9,2.5c1.2,1.6,3.1,3.7,5.3,6.3c2.2,2.6,4.8,5.6,7.8,8.7c2.9,3.1,6,6.4,9.4,9.5
		c1.6,1.6,3.3,3.1,4.9,4.7c1.7,1.5,3.3,2.9,4.9,4.3c1.6,1.4,3.2,2.7,4.6,4c1.5,1.3,3,2.4,4.3,3.4c2.7,2.1,4.9,3.8,6.5,5.1
		c1.6,1.2,2.5,1.8,2.5,1.8l5.6-7.7c0,0-0.9-0.6-2.5-1.7c-1.5-1.2-3.7-2.9-6.3-4.9c-1.3-1-2.7-2.1-4.2-3.3c-1.4-1.2-2.9-2.5-4.5-3.9
		c-1.5-1.4-3.2-2.7-4.8-4.2c-1.6-1.5-3.1-3-4.7-4.5c-3.2-3-6.2-6.2-9.1-9.1c-2.9-2.9-5.4-5.9-7.5-8.3c-2.2-2.5-4-4.5-5.1-6.1
		c-1.2-1.5-1.9-2.4-1.9-2.4L286.4,668.7z"/>
	<path class="st0" d="M231.5,537.3c0,0,2,18.1,6.9,35.7c1.3,4.4,2.4,8.8,3.8,12.8c1.4,4,2.6,7.8,3.8,11c2.5,6.3,4.2,10.6,4.2,10.6
		l8.8-3.7c0,0-1.6-4.1-4-10.2c-1.2-3.1-2.3-6.7-3.7-10.6c-1.4-3.9-2.4-8.1-3.6-12.3c-4.7-16.9-6.6-34.4-6.6-34.4L231.5,537.3z"/>
	<path class="st0" d="M252.4,396.5c0,0-0.5,1-1.3,2.8c-0.9,1.8-1.9,4.5-3.1,7.6c-1.3,3.2-2.8,6.9-4.1,10.9c-1.4,4-2.9,8.3-4,12.7
		c-1.3,4.4-2.5,8.7-3.4,12.9c-1,4.2-1.9,8-2.4,11.4c-0.6,3.4-1.1,6.2-1.4,8.1c-0.2,1-0.3,1.8-0.4,2.3c-0.1,0.5-0.1,0.8-0.1,0.8
		l9.4,1.4c0,0,0-0.3,0.1-0.8s0.2-1.3,0.3-2.2c0.3-1.9,0.8-4.6,1.4-7.8c0.5-3.3,1.4-7,2.3-11c0.8-4,2.1-8.2,3.3-12.4
		c1.1-4.2,2.6-8.4,3.9-12.3c1.2-3.9,2.7-7.5,3.9-10.5c1.2-3.1,2.2-5.6,3-7.3c0.8-1.7,1.2-2.7,1.2-2.7L252.4,396.5z"/>
	<path class="st0" d="M343.4,286.9c0,0-0.9,0.7-2.5,1.8c-1.6,1.2-4,2.7-6.7,4.9c-2.7,2.1-5.8,4.5-9.1,7.2c-3.2,2.8-6.7,5.7-10,8.8
		c-3.3,3.2-6.7,6.2-9.6,9.3c-2.9,3.1-5.7,5.9-8,8.5c-4.5,5.2-7.4,8.6-7.4,8.6l7.3,6.1c0,0,2.9-3.3,7.2-8.3c2.2-2.5,4.9-5.2,7.7-8.2
		c2.8-3,6.1-5.9,9.2-9c3.2-3,6.6-5.8,9.7-8.5c3.2-2.6,6.2-4.9,8.8-7c2.6-2.1,4.9-3.5,6.4-4.7c1.6-1.1,2.5-1.7,2.5-1.7L343.4,286.9z"
		/>
	<path class="st0" d="M418.4,284.1c0,0-3.8,1.2-9.4,3.5c-2.8,1.1-6.1,2.3-9.5,4c-3.4,1.5-7.1,3.2-10.6,5.1c-1.8,0.9-3.6,1.8-5.3,2.7
		c-1.7,0.9-3.4,1.9-5,2.9c-1.6,0.9-3.2,1.8-4.7,2.7c-1.5,0.9-2.8,1.8-4.1,2.6c-2.5,1.6-4.6,3-6.1,3.9c-1.4,1-2.2,1.6-2.2,1.6
		l5.4,7.8c0,0,0.8-0.6,2.1-1.5c1.4-0.9,3.4-2.2,5.9-3.8c1.2-0.8,2.5-1.6,3.9-2.5c1.4-0.8,2.9-1.7,4.5-2.6s3.2-1.8,4.8-2.7
		c1.7-0.9,3.4-1.7,5.1-2.6c3.4-1.8,6.9-3.4,10.2-4.8c3.2-1.6,6.4-2.8,9.1-3.8c5.3-2.2,9-3.3,9-3.3L418.4,284.1z"/>
	<path class="st0" d="M477.9,240.2c0,0-4.5,0.4-11.3,0.9c-3.4,0.4-7.3,0.9-11.6,1.5c-4.2,0.6-8.7,1.5-13.2,2.3c-4.5,0.9-8.9,2-13,3
		c-4.1,1.1-7.9,2.2-11.2,3.1c-3.3,0.9-5.9,1.9-7.8,2.5s-3,1-3,1l3.1,9c0,0,1-0.4,2.9-1c1.8-0.6,4.4-1.6,7.6-2.4
		c3.2-0.9,6.8-2,10.8-3c4-0.9,8.3-2,12.6-2.9c4.3-0.7,8.6-1.6,12.7-2.2c4.1-0.5,7.9-1,11.1-1.4c6.6-0.5,10.9-0.9,10.9-0.9
		L477.9,240.2z"/>
	<path class="st0" d="M617.2,269.9c0,0-1-0.5-2.8-1.4s-4.3-2.3-7.4-3.6c-3.1-1.4-6.7-3.1-10.6-4.7c-4-1.5-8.2-3.3-12.5-4.8
		c-4.3-1.4-8.6-3-12.7-4.2c-4.1-1.2-7.9-2.2-11.2-3.2c-6.6-1.5-11.1-2.6-11.1-2.6l-2,9.3c0,0,4.3,1,10.7,2.5c3.2,0.9,6.9,1.9,10.8,3
		c3.9,1.1,8.1,2.7,12.2,4c4.1,1.5,8.2,3.2,12,4.7c3.8,1.6,7.3,3.2,10.3,4.6c3,1.3,5.4,2.7,7.1,3.5c1.7,0.9,2.7,1.4,2.7,1.4
		L617.2,269.9z"/>
	<path class="st0" d="M721,367.4c0,0-2.5-3.8-6.1-9.6c-3.8-5.7-9.1-13-14.8-20.1c-2.8-3.6-5.9-6.9-8.7-10.2c-2.8-3.2-5.6-6-8-8.5
		c-2.3-2.5-4.5-4.4-5.9-5.8s-2.3-2.2-2.3-2.2l-6.5,7c0,0,0.8,0.8,2.2,2.1c1.4,1.4,3.4,3.1,5.7,5.6c2.2,2.4,5,5.1,7.7,8.2
		s5.6,6.4,8.4,9.8c5.5,6.8,10.6,13.9,14.3,19.4c3.5,5.5,5.9,9.2,5.9,9.2L721,367.4z"/>
	<path class="st0" d="M759.3,504.6c0,0-0.1-4.5-0.3-11.4c-0.3-6.8-1-15.9-2.2-24.9s-2.9-18-4.6-24.6c-0.8-3.3-1.4-6.1-2-8
		c-0.5-1.9-0.9-3-0.9-3l-9.2,2.6c0,0,0.3,1.1,0.8,2.9c0.6,1.8,1.2,4.5,1.9,7.7c1.6,6.4,3.2,15,4.4,23.7s1.8,17.4,2.2,24
		c0.2,6.6,0.3,10.9,0.3,10.9L759.3,504.6L759.3,504.6z"/>
	<path class="st0" d="M252.9,445.7c0,0-0.7,2.9-1.8,7.9c-0.9,5.1-2.4,12.3-3.4,21.2c-1.2,8.8-1.7,19.2-1.8,30.2
		c0.2,11.1,0.7,22.9,2.5,34.6c3.2,23.5,10.4,46.2,17.4,62.5c1.8,4,3.5,7.8,5,11c1.6,3.2,3.1,6,4.3,8.3c1.1,2.3,2.3,4,2.9,5.2
		c0.7,1.2,1.1,1.8,1.1,1.8l8.3-4.8c0,0-0.4-0.6-1-1.8s-1.7-2.8-2.8-5c-1.1-2.2-2.5-4.9-4.1-8c-1.5-3.1-3.1-6.7-4.8-10.6
		c-6.8-15.6-13.6-37.5-16.7-60.1c-1.7-11.3-2.2-22.7-2.4-33.3c0.1-10.7,0.6-20.6,1.8-29.1c0.9-8.5,2.4-15.5,3.3-20.3
		c1.1-4.8,1.8-7.6,1.8-7.6L252.9,445.7z"/>
	<path class="st0" d="M424.7,266.1c0,0-0.7,0.2-2,0.6c-1.3,0.3-3.3,1-5.7,1.8c-2.4,0.8-5.4,1.8-8.8,3c-3.3,1.3-7.2,2.8-11.2,4.5
		c-16.3,7-37.3,18.3-55.8,33.1c-18.8,14.4-34.7,32.2-45.4,46.3c-2.6,3.6-4.9,6.9-7,9.8c-2,3-3.7,5.7-5.1,7.8
		c-1.4,2.2-2.4,3.9-3.1,5.1s-1.1,1.8-1.1,1.8l8.2,4.8c0,0,0.4-0.6,1-1.8c0.6-1.2,1.6-2.9,3-4.9c1.3-2.1,3-4.6,4.9-7.5
		c2-2.8,4.3-6,6.8-9.5c10.3-13.6,25.6-30.7,43.7-44.5c17.8-14.3,38-25.1,53.6-31.8c3.9-1.6,7.6-3,10.8-4.3c3.3-1.2,6.1-2.1,8.5-2.9
		c2.3-0.8,4.2-1.4,5.5-1.8s2-0.6,2-0.6L424.7,266.1z"/>
	<path class="st0" d="M666.1,325.1c0,0-0.5-0.5-1.5-1.5c-1-0.9-2.4-2.4-4.4-4.1s-4.3-3.8-7.1-6.1c-2.8-2.3-6-4.8-9.5-7.5
		c-14.1-10.7-34.5-23.2-56.5-31.9c-10.9-4.6-22.3-7.9-33-10.7c-5.4-1.3-10.6-2.5-15.6-3.3c-2.5-0.4-4.9-0.9-7.3-1.3
		c-2.4-0.3-4.7-0.6-6.9-0.9c-4.4-0.6-8.5-0.9-12-1.1c-1.8-0.1-3.5-0.3-5-0.4c-1.6,0-3-0.1-4.3-0.1c-5.2-0.1-8.1-0.2-8.1-0.2v9.5
		c0,0,2.8,0.1,7.8,0.2c1.2,0,2.6,0.1,4.1,0.1c1.5,0.1,3.1,0.2,4.8,0.4c3.5,0.3,7.4,0.5,11.6,1.1c2.1,0.3,4.3,0.5,6.6,0.8
		s4.6,0.8,7,1.2c4.8,0.8,9.8,2,15,3.2c10.3,2.6,21.3,5.9,31.8,10.3c21.2,8.4,40.7,20.4,54.3,30.6c3.3,2.7,6.5,5,9.1,7.2
		c2.6,2.3,4.9,4.2,6.8,5.9c1.9,1.6,3.2,3,4.2,3.9s1.5,1.4,1.5,1.4L666.1,325.1z"/>
</g>
<g>
	<g>
		<path class="st0" d="M497.2,860c-3.1,0-6.1,0-9.2-0.1v-1.5c4.9,0.1,9.9,0.2,14.8,0.1v1.5C501,860,499.1,860,497.2,860z
			 M517.7,859.4l-0.1-1.5c4.9-0.3,9.9-0.7,14.8-1.2l0.1,1.5C527.6,858.7,522.6,859.1,517.7,859.4z M473.1,859.2
			c-4.9-0.3-9.9-0.8-14.8-1.3l0.2-1.5c4.9,0.5,9.9,1,14.8,1.3L473.1,859.2z M547.3,856.4l-0.2-1.5c4.8-0.7,9.8-1.5,14.6-2.4l0.3,1.5
			C557.1,855,552.2,855.8,547.3,856.4z M443.6,855.9c-4.9-0.7-9.8-1.6-14.7-2.5l0.3-1.5c4.8,0.9,9.7,1.8,14.6,2.5L443.6,855.9z
			 M576.6,851.1l-0.3-1.4c4.8-1.1,9.6-2.3,14.4-3.6l0.4,1.4C586.2,848.8,581.4,850,576.6,851.1z M414.4,850.3
			c-4.8-1.1-9.6-2.4-14.4-3.7l0.4-1.4c4.7,1.3,9.6,2.6,14.3,3.7L414.4,850.3z M605.3,843.2l-0.4-1.4c4.7-1.5,9.4-3.1,14-4.8l0.5,1.4
			C614.7,840.1,610,841.8,605.3,843.2z M385.8,842.2c-4.7-1.5-9.4-3.2-14-4.9l0.5-1.4c4.6,1.7,9.3,3.4,14,4.9L385.8,842.2z
			 M633.2,833.1l-0.6-1.4c4.6-1.9,9.1-3.9,13.6-5.9l0.6,1.4C642.4,829.2,637.8,831.2,633.2,833.1z M358,831.7
			c-4.5-1.9-9.1-4-13.6-6.1l0.6-1.3c4.4,2.1,9,4.2,13.5,6.1L358,831.7z M660.2,820.6l-0.7-1.3c4.4-2.3,8.8-4.6,13-7.1l0.7,1.3
			C669,815.9,664.6,818.3,660.2,820.6z M331.1,819c-4.3-2.3-8.7-4.7-13-7.2l0.7-1.3c4.3,2.5,8.6,4.9,12.9,7.2L331.1,819z M686,805.8
			l-0.8-1.3c4.2-2.6,8.3-5.4,12.4-8.1l0.8,1.2C694.4,800.5,690.2,803.2,686,805.8z M305.5,804c-4.1-2.6-8.3-5.4-12.3-8.3l0.9-1.2
			c4,2.8,8.2,5.6,12.3,8.2L305.5,804z M710.5,789l-0.9-1.2c3.9-2.9,7.8-6,11.7-9.1l0.9,1.1C718.4,782.9,714.5,786,710.5,789z
			 M281.1,786.9c-3.9-3-7.8-6.1-11.6-9.3l1-1.1c3.8,3.2,7.7,6.3,11.6,9.2L281.1,786.9z M733.6,770.1l-1-1.1
			c3.7-3.3,7.3-6.7,10.9-10.1l1,1.1C740.9,763.4,737.3,766.8,733.6,770.1z M258.3,767.9c-3.6-3.3-7.3-6.7-10.8-10.2l1-1.1
			c3.5,3.5,7.1,6.9,10.8,10.2L258.3,767.9z M754.9,749.5l-1.1-1c3.4-3.6,6.7-7.2,10-10.9l1.1,1C761.7,742.2,758.3,745.9,754.9,749.5
			z M237.1,747c-3.4-3.6-6.7-7.3-9.9-11.1l1.1-1c3.2,3.7,6.5,7.4,9.9,11L237.1,747z M774.5,727.1l-1.2-0.9c3.1-3.8,6.1-7.8,9-11.7
			l1.2,0.9C780.7,719.3,777.6,723.3,774.5,727.1z M217.7,724.5c-3-3.9-6.1-7.9-9-11.9l1.2-0.9c2.9,4,5.9,8,8.9,11.8L217.7,724.5z
			 M792.2,703.2l-1.2-0.8c2.8-4.1,5.5-8.3,8-12.4l1.3,0.8C797.7,694.9,795,699.1,792.2,703.2z M200.3,700.4c-2.7-4.1-5.4-8.4-8-12.6
			l1.3-0.8c2.5,4.2,5.2,8.4,7.9,12.5L200.3,700.4z M807.8,677.9l-1.3-0.7c2.4-4.3,4.7-8.7,7-13.1l1.3,0.7
			C812.6,669.2,810.2,673.6,807.8,677.9z M184.9,674.9c-2.4-4.3-4.7-8.8-6.9-13.2l1.3-0.7c2.2,4.4,4.5,8.8,6.8,13.1L184.9,674.9z
			 M821.2,651.4l-1.4-0.6c2-4.5,4-9,5.8-13.6l1.4,0.6C825.2,642.3,823.3,646.9,821.2,651.4z M171.7,648.3c-2-4.5-3.9-9.1-5.7-13.7
			l1.4-0.5c1.8,4.6,3.7,9.2,5.7,13.7L171.7,648.3z M832.4,623.9l-1.4-0.5c1.7-4.6,3.2-9.4,4.7-14l1.4,0.4
			C835.6,614.5,834,619.2,832.4,623.9z M160.9,620.6c-1.6-4.7-3.1-9.4-4.6-14.2l1.4-0.4c1.4,4.7,2.9,9.5,4.5,14.1L160.9,620.6z
			 M841.2,595.5l-1.4-0.4c1.3-4.7,2.4-9.6,3.5-14.4l1.5,0.3C843.6,585.8,842.4,590.7,841.2,595.5z M152.3,592.1
			c-1.2-4.8-2.4-9.7-3.4-14.5l1.5-0.3c1,4.8,2.1,9.7,3.3,14.4L152.3,592.1z M847.6,566.4l-1.5-0.3c0.9-4.8,1.6-9.7,2.3-14.6l1.5,0.2
			C849.2,556.6,848.4,561.6,847.6,566.4z M146.2,563c-0.8-4.9-1.5-9.8-2.1-14.7l1.5-0.2c0.6,4.9,1.3,9.8,2.1,14.7L146.2,563z
			 M851.5,537l-1.5-0.1c0.5-4.9,0.8-9.9,1.1-14.8l1.5,0.1C852.3,527.1,852,532,851.5,537z M142.6,533.5c-0.4-4.9-0.7-9.9-0.9-14.8
			l1.5-0.1c0.2,4.9,0.5,9.9,0.9,14.8L142.6,533.5z M853,507.3h-1.5c0-1,0-2.1,0-3.1c0-3.9-0.1-7.8-0.2-11.7l1.5-0.1
			c0.1,3.9,0.2,7.8,0.2,11.8C853,505.2,853,506.2,853,507.3z M142.8,503.8h-1.5c0-4.9,0.1-9.9,0.3-14.9l1.5,0.1
			C143,493.9,142.8,498.9,142.8,503.8z M850.5,477.7c-0.4-4.9-0.8-9.9-1.4-14.7l1.5-0.2c0.6,4.9,1,9.9,1.4,14.8L850.5,477.7z
			 M144.1,474.2l-1.5-0.1c0.4-4.9,0.9-9.9,1.6-14.8l1.5,0.2C145,464.3,144.5,469.3,144.1,474.2z M847.1,448.2
			c-0.8-4.9-1.7-9.8-2.6-14.6l1.5-0.3c1,4.8,1.9,9.8,2.6,14.6L847.1,448.2z M147.8,444.8l-1.5-0.2c0.8-4.9,1.8-9.8,2.8-14.6l1.5,0.3
			C149.6,435.1,148.6,440,147.8,444.8z M841.3,419.2c-1.2-4.8-2.5-9.6-3.8-14.3l1.4-0.4c1.4,4.7,2.7,9.6,3.8,14.4L841.3,419.2z
			 M154,415.8l-1.4-0.4c1.2-4.8,2.6-9.6,4-14.3l1.4,0.4C156.5,406.3,155.2,411.1,154,415.8z M833,390.8c-1.6-4.7-3.3-9.3-5-13.9
			l1.4-0.5c1.8,4.6,3.5,9.3,5,14L833,390.8z M162.5,387.5l-1.4-0.5c1.6-4.7,3.4-9.3,5.2-13.9l1.4,0.5
			C165.9,378.2,164.1,382.9,162.5,387.5z M822.4,363.1c-2-4.5-4-9-6.2-13.5l1.3-0.6c2.2,4.4,4.2,9,6.2,13.5L822.4,363.1z M173.4,360
			l-1.4-0.6c2-4.5,4.1-9,6.3-13.5l1.3,0.7C177.5,351,175.4,355.5,173.4,360z M809.5,336.5c-2.3-4.3-4.8-8.7-7.3-12.9l1.3-0.8
			c2.5,4.2,5,8.6,7.3,13L809.5,336.5z M186.6,333.5l-1.3-0.7c2.4-4.3,4.9-8.6,7.4-12.9l1.3,0.8C191.4,324.9,188.9,329.2,186.6,333.5
			z M794.3,311c-2.7-4.1-5.5-8.2-8.3-12.2l1.2-0.9c2.9,4,5.7,8.2,8.4,12.3L794.3,311z M201.9,308.2l-1.2-0.8
			c2.7-4.1,5.6-8.2,8.5-12.2l1.2,0.9C207.5,300,204.6,304.1,201.9,308.2z M777.1,286.9c-3-3.9-6.2-7.8-9.3-11.5l1.1-1
			c3.2,3.8,6.3,7.6,9.4,11.6L777.1,286.9z M219.3,284.2l-1.2-0.9c3.1-3.9,6.3-7.7,9.5-11.4l1.1,1
			C225.5,276.6,222.4,280.4,219.3,284.2z M758,264.3c-3.3-3.6-6.8-7.2-10.3-10.7c-1.3-1.3-2.6-2.6-3.9-3.8l1-1.1
			c1.3,1.3,2.6,2.5,3.9,3.8c3.5,3.5,7,7.1,10.3,10.7L758,264.3z M238.6,261.8l-1.1-1c2.6-2.8,5.3-5.6,8-8.3c0.8-0.8,1.6-1.6,2.4-2.4
			l1,1.1c-0.8,0.8-1.6,1.6-2.4,2.3C243.9,256.3,241.2,259.1,238.6,261.8z M259.8,241.1l-1-1.1c3.7-3.3,7.4-6.6,11.2-9.7l0.9,1.1
			C267.2,234.5,263.4,237.8,259.8,241.1z M733,239.7c-3.7-3.3-7.5-6.5-11.2-9.6l0.9-1.1c3.8,3.1,7.6,6.4,11.3,9.7L733,239.7z
			 M282.5,222.2l-0.9-1.2c3.9-3,8-6,12-8.8l0.8,1.2C290.5,216.2,286.5,219.2,282.5,222.2z M710.2,220.9c-3.9-3-8-5.9-12-8.7l0.8-1.2
			c4,2.8,8.1,5.7,12,8.7L710.2,220.9z M306.8,205.2l-0.8-1.3c4.2-2.7,8.5-5.3,12.7-7.7l0.7,1.3C315.2,199.9,311,202.5,306.8,205.2z
			 M685.8,204.1c-4.2-2.6-8.4-5.2-12.7-7.6l0.7-1.3c4.3,2.4,8.6,5,12.7,7.7L685.8,204.1z M332.5,190.3l-0.7-1.3
			c4.4-2.3,8.9-4.5,13.3-6.6l0.6,1.3C341.3,185.8,336.8,188,332.5,190.3z M660.1,189.4c-4.4-2.3-8.8-4.5-13.3-6.5l0.6-1.3
			c4.5,2.1,9,4.3,13.3,6.6L660.1,189.4z M359.2,177.7l-0.6-1.4c4.5-1.9,9.2-3.8,13.8-5.5l0.5,1.4
			C368.4,173.9,363.8,175.8,359.2,177.7z M633.3,176.9c-4.5-1.9-9.2-3.7-13.8-5.4l0.5-1.4c4.6,1.7,9.3,3.5,13.8,5.4L633.3,176.9z
			 M387,167.3l-0.5-1.4c4.7-1.5,9.5-3,14.2-4.3l0.4,1.4C396.4,164.3,391.7,165.8,387,167.3z M605.5,166.7c-4.7-1.5-9.5-2.9-14.2-4.2
			l0.4-1.4c4.8,1.3,9.6,2.7,14.3,4.2L605.5,166.7z M415.5,159.3l-0.3-1.4c4.8-1.1,9.7-2.2,14.5-3.1l0.3,1.5
			C425.1,157.1,420.3,158.2,415.5,159.3z M577,158.9c-4.8-1.1-9.7-2.1-14.5-3l0.3-1.5c4.8,0.9,9.7,1.9,14.6,3L577,158.9z
			 M444.6,153.7l-0.2-1.5c4.9-0.7,9.9-1.4,14.8-1.9l0.2,1.5C454.4,152.4,449.4,153,444.6,153.7z M547.9,153.4
			c-4.9-0.7-9.8-1.3-14.7-1.8l0.1-1.5c4.9,0.5,9.9,1.1,14.8,1.8L547.9,153.4z M474,150.6l-0.1-1.5c4.9-0.3,9.9-0.5,14.9-0.7v1.5
			C483.9,150,478.9,150.2,474,150.6z M518.4,150.4c-4.9-0.3-9.9-0.5-14.8-0.6v-1.5c5,0.1,10,0.3,14.9,0.6L518.4,150.4z"/>
	</g>
	<g>
		<path class="st0" d="M497.2,817.6c-83.7,0-162.5-32.6-221.7-91.8c-122.2-122.2-122.2-321.1,0-443.3
			c59.2-59.2,137.9-91.8,221.7-91.8c83.7,0,162.4,32.6,221.7,91.8c122.2,122.2,122.2,321.1,0,443.3
			C659.6,785,580.9,817.6,497.2,817.6z M497.2,192.2c-83.3,0-161.7,32.5-220.6,91.4C155,405.2,155,603.2,276.6,724.8
			c58.9,58.9,137.3,91.4,220.6,91.4s161.7-32.5,220.6-91.4c121.6-121.6,121.6-319.6,0-441.2C658.9,224.6,580.5,192.2,497.2,192.2z"
			/>
	</g>
	<g>
		<g>
			<path class="st0" d="M251.1,258.1c-4.7,4.7-9.2,9.5-13.6,14.3l22,18.3c3.8-4.2,7.7-8.3,11.8-12.4c4.1-4.1,8.2-8,17.4-11.8
				l-18.3-22C260.6,248.9,255.8,253.4,251.1,258.1z"/>
		</g>
		<g class="st1">
			<path class="st0" d="M212.1,304.5c-3.8,5.4-7.4,10.9-10.9,16.5l24.8,14.2c3-4.8,6.2-9.6,9.5-14.3c3.3-4.7,6.7-9.3,10.2-13.8
				l-21.8-18.5C219.9,293.8,215.9,299.1,212.1,304.5z"/>
		</g>
		<g class="st2">
			<path class="st0" d="M181.8,357.1c-2.8,6-5.4,12.1-7.9,18.1l26.9,9.7c2.1-5.3,4.4-10.5,6.9-15.7c2.4-5.2,5-10.3,7.6-15.3
				l-24.7-14.4C187.5,345.2,184.6,351.1,181.8,357.1z"/>
		</g>
		<g class="st3">
			<path class="st0" d="M161,414.1c-1.7,6.4-3.2,12.8-4.6,19.2l28.2,4.8c1.2-5.6,2.5-11.1,4-16.7c1.5-5.5,3.1-11,4.8-16.4l-26.8-9.9
				C164.6,401.4,162.8,407.7,161,414.1z"/>
		</g>
		<g class="st4">
			<path class="st0" d="M150.5,473.8c-0.6,6.6-1,13.2-1.2,19.7l28.6-0.1c0.2-5.7,0.6-11.4,1.1-17.1s1.1-11.4,1.9-17l-28.1-5.1
				C151.8,460.7,151.1,467.2,150.5,473.8z"/>
		</g>
		<g class="st5">
			<path class="st0" d="M150.5,534.5c0.6,6.6,1.3,13.1,2.3,19.6l28.1-5.1c-0.8-5.6-1.4-11.3-1.9-17s-0.9-11.4-1.1-17.1l-28.6-0.1
				C149.5,521.3,149.9,527.9,150.5,534.5z"/>
		</g>
		<g class="st6">
			<path class="st0" d="M161,594.2c1.7,6.4,3.6,12.7,5.6,18.9l26.8-9.9c-1.7-5.4-3.4-10.9-4.8-16.4c-1.5-5.5-2.8-11.1-4-16.6
				l-28.2,4.8C157.8,581.4,159.3,587.8,161,594.2z"/>
		</g>
		<g class="st7">
			<path class="st0" d="M181.8,651.2c2.8,6,5.8,11.9,8.8,17.7l24.7-14.4c-2.7-5-5.2-10.1-7.6-15.3c-2.4-5.2-4.7-10.4-6.9-15.7
				l-26.9,9.7C176.4,639.2,179,645.2,181.8,651.2z"/>
		</g>
		<g class="st8">
			<path class="st0" d="M212.1,703.8c3.8,5.4,7.7,10.7,11.8,15.9l21.8-18.5c-3.5-4.5-6.9-9.1-10.2-13.8s-6.4-9.5-9.5-14.3
				l-24.8,14.2C204.7,692.8,208.3,698.3,212.1,703.8z"/>
		</g>
		<g class="st9">
			<path class="st0" d="M251.1,750.2c4.7,4.7,9.5,9.2,14.3,13.6l18.3-22c-4.2-3.8-8.4-7.7-12.4-11.8c-4.1-4.1-8-8.2-11.8-12.4
				l-22,18.3C241.9,740.8,246.4,745.5,251.1,750.2z"/>
		</g>
		<g class="st10">
			<path class="st0" d="M297.6,789.2c5.4,3.8,10.9,7.4,16.5,10.9l14.2-24.8c-4.8-3-9.6-6.2-14.3-9.5c-4.7-3.3-9.3-6.7-13.8-10.2
				l-18.5,21.8C286.9,781.5,292.1,785.4,297.6,789.2z"/>
		</g>
		<g class="st11">
			<path class="st0" d="M350.1,819.5c6,2.8,12.1,5.4,18.1,7.9l9.6-26.9c-5.3-2.1-10.5-4.4-15.7-6.9c-5.2-2.4-10.3-5-15.3-7.6
				l-14.4,24.7C338.2,813.8,344.1,816.7,350.1,819.5z"/>
		</g>
		<g class="st12">
			<path class="st0" d="M407.1,840.3c6.4,1.7,12.8,3.2,19.2,4.6l4.8-28.2c-5.6-1.2-11.1-2.5-16.6-4s-11-3.1-16.4-4.8l-9.9,26.8
				C394.4,836.7,400.7,838.6,407.1,840.3z"/>
		</g>
		<g class="st13">
			<path class="st0" d="M466.9,850.8c6.6,0.6,13.2,1,19.7,1.2l-0.1-28.6c-5.7-0.2-11.4-0.6-17.1-1.1s-11.4-1.1-17-1.9l-5.1,28.1
				C453.7,849.5,460.3,850.2,466.9,850.8z"/>
		</g>
		<g class="st14">
			<path class="st0" d="M527.5,850.8c6.6-0.6,13.1-1.3,19.6-2.3l-5.1-28.1c-5.6,0.8-11.3,1.4-17,1.9s-11.4,0.9-17.1,1.1l-0.1,28.6
				C514.3,851.8,520.9,851.4,527.5,850.8z"/>
		</g>
		<g class="st15">
			<path class="st0" d="M587.3,840.3c6.4-1.7,12.7-3.6,18.9-5.6l-9.9-26.8c-5.4,1.7-10.9,3.4-16.4,4.8c-5.5,1.5-11.1,2.8-16.7,4
				l4.8,28.2C574.4,843.5,580.9,842,587.3,840.3z"/>
		</g>
		<g class="st15">
			<path class="st0" d="M644.3,819.5c6-2.8,11.9-5.8,17.7-8.8L647.5,786c-5,2.7-10.1,5.2-15.3,7.6c-5.2,2.4-10.4,4.7-15.7,6.9
				l9.7,26.9C632.2,825,638.3,822.3,644.3,819.5z"/>
		</g>
		<g class="st16">
			<path class="st0" d="M696.8,789.2c5.4-3.8,10.7-7.7,15.9-11.8l-18.5-21.8c-4.5,3.5-9.1,6.9-13.8,10.2s-9.5,6.4-14.3,9.5
				l14.2,24.8C685.9,796.6,691.4,793,696.8,789.2z"/>
		</g>
		<g class="st17">
			<path class="st0" d="M743.3,750.2c4.7-4.7,9.2-9.5,13.6-14.3l-22-18.3c-3.8,4.2-7.7,8.4-11.8,12.4c-4.1,4.1-8.2,8-12.4,11.8
				l18.3,22C733.8,759.4,738.6,754.9,743.3,750.2z"/>
		</g>
		<g>
			<path class="st0" d="M782.2,703.8c3.8-5.4,7.4-10.9,10.9-16.5l-24.8-14.2c-3,4.8-6.2,9.6-9.5,14.3s-6.7,9.3-10.2,13.8l21.8,18.5
				C774.5,714.5,778.5,709.2,782.2,703.8z"/>
		</g>
		<g class="st2">
			<path class="st0" d="M812.6,651.2c2.8-6,5.4-12.1,7.9-18.1l-26.9-9.7c-2.1,5.3-4.4,10.5-6.8,15.7c-2.4,5.2-5,10.3-7.6,15.3
				l24.7,14.4C806.8,663.1,809.8,657.2,812.6,651.2z"/>
		</g>
		<g class="st4">
			<path class="st0" d="M833.3,594.2c1.7-6.4,3.2-12.8,4.6-19.2l-28.2-4.8c-1.2,5.6-2.5,11.1-4,16.6s-3.1,11-4.8,16.4l26.8,9.9
				C829.7,606.9,831.6,600.6,833.3,594.2z"/>
		</g>
		<g class="st6">
			<path class="st0" d="M843.9,534.5c0.6-6.6,1-13.2,1.2-19.7l-28.6,0.1c-0.2,5.7-0.6,11.4-1.1,17.1c-0.5,5.7-1.1,11.4-1.9,17
				l28.1,5.1C842.5,547.6,843.3,541.1,843.9,534.5z"/>
		</g>
		<g class="st8">
			<path class="st0" d="M843.9,473.8c-0.6-6.6-1.3-13.1-2.3-19.6l-28.1,5.1c0.8,5.6,1.4,11.3,1.9,17s0.9,11.4,1.1,17.1l28.6,0.1
				C844.8,487,844.4,480.4,843.9,473.8z"/>
		</g>
		<g class="st10">
			<path class="st0" d="M833.3,414.1c-1.7-6.4-3.6-12.7-5.6-18.9l-26.8,9.9c1.7,5.4,3.4,10.9,4.8,16.4c1.5,5.5,2.8,11.1,4,16.7
				l28.2-4.8C836.6,426.9,835,420.5,833.3,414.1z"/>
		</g>
		<g class="st12">
			<path class="st0" d="M812.6,357.1c-2.8-6-5.7-11.9-8.8-17.7l-24.7,14.4c2.7,5,5.2,10.1,7.6,15.3c2.4,5.2,4.7,10.4,6.8,15.7
				l26.9-9.7C818,369.1,815.4,363.1,812.6,357.1z"/>
		</g>
		<g class="st14">
			<path class="st0" d="M782.2,304.5c-3.8-5.4-7.7-10.7-11.8-15.9l-21.8,18.5c3.5,4.5,6.9,9.1,10.2,13.8c3.3,4.7,6.4,9.5,9.5,14.3
				l24.8-14.2C789.7,315.5,786.1,310,782.2,304.5z"/>
		</g>
		<g class="st16">
			<path class="st0" d="M743.3,258.1c-4.7-4.7-9.5-9.2-14.3-13.6l-18.3,22c4.2,3.8,8.4,7.7,12.4,11.8c4.1,4.1,8,8.2,11.8,12.4
				l22-18.3C752.5,267.6,747.9,262.8,743.3,258.1z"/>
		</g>
		<g class="st18">
			<path class="st0" d="M696.8,219.1c-5.4-3.8-10.9-7.4-16.5-10.9L666.1,233c4.8,3,9.6,6.2,14.3,9.5s9.3,6.7,13.8,10.2l18.5-21.8
				C707.5,226.8,702.2,222.9,696.8,219.1z"/>
		</g>
		<g>
			<path class="st0" d="M644.3,188.8c-6-2.8-12.1-5.4-18.1-7.9l-9.7,26.9c5.3,2.1,10.5,4.4,15.7,6.8c5.2,2.4,10.3,5,15.3,7.6
				l14.4-24.7C656.2,194.5,650.3,191.6,644.3,188.8z"/>
		</g>
		<g class="st5">
			<path class="st0" d="M587.3,168c-6.4-1.7-12.8-3.2-19.2-4.6l-4.8,28.2c5.6,1.2,11.1,2.5,16.7,4c5.5,1.5,11,3.1,16.4,4.8l9.9-26.8
				C600,171.6,593.7,169.7,587.3,168z"/>
		</g>
		<g class="st10">
			<path class="st0" d="M527.5,157.5c-6.6-0.6-13.2-1-19.7-1.2l0.1,28.6c5.7,0.2,11.4,0.6,17.1,1.1s11.4,1.1,17,1.9l5.1-28.1
				C540.7,158.8,534.1,158.1,527.5,157.5z"/>
		</g>
		<g class="st15">
			<path class="st0" d="M466.9,157.5c-6.6,0.6-13.1,1.3-19.6,2.3l5.1,28.1c5.6-0.8,11.3-1.4,17-1.9s11.4-0.9,17.1-1.1l0.1-28.6
				C480,156.5,473.5,156.9,466.9,157.5z"/>
		</g>
		<g>
			<path class="st0" d="M407.1,168c-6.4,1.7-12.7,3.6-18.9,5.6l9.9,26.8c5.4-1.7,10.9-3.4,16.4-4.8c5.5-1.5,11.1-2.8,16.6-4
				l-4.8-28.2C419.9,164.8,413.5,166.3,407.1,168z"/>
		</g>
		<g class="st15">
			<path class="st0" d="M355.1,188.8c-6,2.8-11.9,5.8-17.7,8.8l14.4,24.7c5-2.7,10.1-5.2,15.3-7.6c5.2-2.4,10.4-4.7,15.7-6.8
				l-9.6-26.9C367.2,183.3,361.1,186,355.1,188.8z"/>
		</g>
		<g class="st10">
			<path class="st0" d="M297.6,219.1c-5.4,3.8-10.7,7.7-15.9,11.8l18.5,21.8c4.5-3.5,9.1-6.9,13.8-10.2c4.7-3.3,9.5-6.4,19.3-9.5
				l-14.2-24.8C308.5,211.7,303,215.3,297.6,219.1z"/>
		</g>
	</g>
	<g>
		<g>
			
				<rect x="290.2" y="293.7" transform="matrix(0.7076 -0.7066 0.7066 0.7076 -128.4311 294.7471)" class="st0" width="3.4" height="17.7"/>
		</g>
		<g>
			
				<rect x="245.1" y="353.7" transform="matrix(0.4996 -0.8663 0.8663 0.4996 -190.5769 395.1957)" class="st0" width="3.4" height="17.7"/>
		</g>
		<g>
			
				<rect x="216.9" y="423.3" transform="matrix(0.2598 -0.9657 0.9657 0.2598 -255.4797 530.9771)" class="st0" width="3.4" height="17.7"/>
		</g>
		<g>
			<rect x="200.7" y="505" class="st0" width="17.7" height="3.4"/>
		</g>
		<g>
			
				<rect x="211.1" y="579.4" transform="matrix(0.966 -0.2587 0.2587 0.966 -142.8445 76.6725)" class="st0" width="17.7" height="3.4"/>
		</g>
		<g>
			
				<rect x="240.5" y="648.5" transform="matrix(0.8658 -0.5004 0.5004 0.8658 -291.9094 212.0219)" class="st0" width="17.7" height="3.4"/>
		</g>
		<g>
			
				<rect x="286.7" y="707.7" transform="matrix(0.7074 -0.7068 0.7068 0.7074 -414.9342 416.4973)" class="st0" width="17.7" height="3.4"/>
		</g>
		<g>
			
				<rect x="346.7" y="752.9" transform="matrix(0.5004 -0.8658 0.8658 0.5004 -475.6635 684.8644)" class="st0" width="17.7" height="3.4"/>
		</g>
		<g>
			
				<rect x="416.4" y="781" transform="matrix(0.2589 -0.9659 0.9659 0.2589 -440.8901 990.7896)" class="st0" width="17.7" height="3.4"/>
		</g>
		<g>
			<rect x="498.1" y="783" class="st0" width="3.4" height="17.7"/>
		</g>
		<g>
			
				<rect x="572.4" y="772.5" transform="matrix(0.9658 -0.2594 0.2594 0.9658 -183.0181 175.6691)" class="st0" width="3.4" height="17.7"/>
		</g>
		<g>
			
				<rect x="641.6" y="743.2" transform="matrix(0.8661 -0.4998 0.4998 0.8661 -289.793 422.1942)" class="st0" width="3.4" height="17.7"/>
		</g>
		<g>
			
				<rect x="700.7" y="696.9" transform="matrix(0.7072 -0.707 0.707 0.7072 -293.2808 703.2668)" class="st0" width="3.4" height="17.7"/>
		</g>
		<g>
			
				<rect x="745.9" y="636.9" transform="matrix(0.5004 -0.8658 0.8658 0.5004 -185.6036 969.9325)" class="st0" width="3.4" height="17.7"/>
		</g>
		<g>
			
				<rect x="774" y="567.3" transform="matrix(0.2587 -0.966 0.966 0.2587 18.4726 1176.4388)" class="st0" width="3.4" height="17.7"/>
		</g>
		<g>
			<rect x="776.1" y="499.9" class="st0" width="17.7" height="3.4"/>
		</g>
		<g>
			
				<rect x="765.6" y="425.5" transform="matrix(0.966 -0.2587 0.2587 0.966 -84.1572 214.8765)" class="st0" width="17.7" height="3.4"/>
		</g>
		<g>
			
				<rect x="736.3" y="356.4" transform="matrix(0.8662 -0.4997 0.4997 0.8662 -79.2305 420.2555)" class="st0" width="17.7" height="3.4"/>
		</g>
		<g>
			
				<rect x="690" y="297.1" transform="matrix(0.7077 -0.7065 0.7065 0.7077 -6.866 581.0772)" class="st0" width="17.7" height="3.4"/>
		</g>
		<g>
			
				<rect x="630" y="252" transform="matrix(0.5003 -0.8659 0.8659 0.5003 99.514 679.9161)" class="st0" width="17.7" height="3.4"/>
		</g>
		<g>
			
				<rect x="560.4" y="223.9" transform="matrix(0.2587 -0.966 0.966 0.2587 204.1008 717.0656)" class="st0" width="17.7" height="3.4"/>
		</g>
		<g>
			<rect x="492.9" y="207.6" class="st0" width="3.4" height="17.7"/>
		</g>
		<g>
			
				<rect x="418.5" y="218.1" transform="matrix(0.9657 -0.2598 0.2598 0.9657 -44.5308 116.9657)" class="st0" width="3.4" height="17.7"/>
		</g>
		<g>
			
				<rect x="349.4" y="247.4" transform="matrix(0.8657 -0.5006 0.5006 0.8657 -81.1263 210.1808)" class="st0" width="3.4" height="17.7"/>
		</g>
	</g>
	<g class="st10">
		<g>
			<path class="st0" d="M282.9,289.1c1.2,1.2,1.2,3.1,0,4.3c-1.2,1.2-3.1,1.2-4.3,0c-1.2-1.2-1.2-3.1,0-4.3
				C279.7,287.9,281.7,287.9,282.9,289.1z"/>
		</g>
		<g>
			<path class="st0" d="M264.9,308.6c1.3,1.1,1.5,3,0.4,4.3s-3,1.5-4.3,0.4s-1.5-3-0.4-4.3S263.6,307.5,264.9,308.6z"/>
		</g>
		<g>
			<path class="st0" d="M248.8,329.6c1.4,1,1.7,2.9,0.8,4.2c-1,1.4-2.9,1.7-4.2,0.8c-1.4-1-1.7-2.9-0.7-4.2
				C245.5,329,247.4,328.6,248.8,329.6z"/>
		</g>
		<g>
			<path class="st0" d="M234.5,351.9c1.5,0.8,2,2.7,1.1,4.2c-0.8,1.5-2.7,2-4.2,1.1c-1.5-0.8-2-2.7-1.1-4.2
				C231.2,351.6,233,351.1,234.5,351.9z"/>
		</g>
		<g>
			<path class="st0" d="M222.2,375.4c1.5,0.7,2.2,2.5,1.5,4.1c-0.7,1.5-2.5,2.2-4.1,1.5c-1.5-0.7-2.2-2.5-1.5-4.1
				C218.9,375.3,220.7,374.7,222.2,375.4z"/>
		</g>
		<g>
			<path class="st0" d="M212.1,399.9c1.6,0.6,2.4,2.3,1.8,3.9c-0.6,1.6-2.3,2.4-3.9,1.8c-1.6-0.6-2.4-2.3-1.8-3.9
				C208.7,400.1,210.5,399.3,212.1,399.9z"/>
		</g>
		<g>
			<path class="st0" d="M204.1,425.1c1.6,0.4,2.6,2.1,2.2,3.7c-0.4,1.6-2.1,2.6-3.7,2.2c-1.6-0.4-2.6-2.1-2.2-3.7
				C200.8,425.6,202.4,424.7,204.1,425.1z"/>
		</g>
		<g>
			<path class="st0" d="M198.3,450.9c1.7,0.3,2.8,1.9,2.5,3.5c-0.3,1.7-1.9,2.8-3.5,2.5c-1.7-0.3-2.8-1.9-2.5-3.5
				C195,451.8,196.6,450.7,198.3,450.9z"/>
		</g>
		<g>
			<path class="st0" d="M194.8,477.2c1.7,0.1,2.9,1.6,2.8,3.3c-0.1,1.7-1.6,2.9-3.3,2.8s-2.9-1.6-2.8-3.3
				C191.6,478.3,193.1,477.1,194.8,477.2z"/>
		</g>
		<g>
			<path class="st0" d="M193.6,503.7c1.7,0,3,1.4,3,3c0,1.7-1.4,3-3,3c-1.7,0-3-1.4-3-3C190.5,505,191.9,503.7,193.6,503.7z"/>
		</g>
		<g>
			<path class="st0" d="M194.7,530.1c1.7-0.1,3.2,1.1,3.3,2.8s-1.1,3.2-2.8,3.3s-3.2-1.1-3.3-2.8C191.8,531.7,193,530.3,194.7,530.1
				z"/>
		</g>
		<g>
			<path class="st0" d="M198.1,556.4c1.7-0.3,3.2,0.8,3.5,2.5s-0.8,3.2-2.5,3.5s-3.2-0.8-3.5-2.5
				C195.3,558.3,196.4,556.7,198.1,556.4z"/>
		</g>
		<g>
			<path class="st0" d="M203.8,582.3c1.6-0.4,3.3,0.5,3.7,2.2c0.4,1.6-0.5,3.3-2.2,3.7c-1.6,0.4-3.3-0.5-3.7-2.2
				C201.2,584.4,202.2,582.7,203.8,582.3z"/>
		</g>
		<g>
			<path class="st0" d="M211.7,607.5c1.6-0.6,3.3,0.2,3.9,1.8c0.6,1.6-0.2,3.3-1.8,3.9c-1.6,0.6-3.3-0.2-3.9-1.8
				C209.3,609.9,210.1,608.1,211.7,607.5z"/>
		</g>
		<g>
			<path class="st0" d="M221.8,632c1.5-0.7,3.3-0.1,4.1,1.5c0.7,1.5,0.1,3.3-1.5,4.1c-1.5,0.7-3.3,0.1-4.1-1.5
				C219.6,634.5,220.3,632.7,221.8,632z"/>
		</g>
		<g>
			<path class="st0" d="M234,655.5c1.5-0.8,3.3-0.3,4.2,1.1c0.8,1.5,0.3,3.3-1.1,4.2c-1.5,0.8-3.3,0.3-4.2-1.1
				C232,658.2,232.5,656.4,234,655.5z"/>
		</g>
		<g>
			<path class="st0" d="M248.2,677.9c1.4-1,3.3-0.6,4.2,0.7c1,1.4,0.6,3.3-0.7,4.2c-1.4,1-3.3,0.6-4.2-0.8
				C246.5,680.8,246.8,678.9,248.2,677.9z"/>
		</g>
		<g>
			<path class="st0" d="M264.3,698.9c1.3-1.1,3.2-0.9,4.3,0.4c1.1,1.3,0.9,3.2-0.4,4.3s-3.2,0.9-4.3-0.4
				C262.8,701.9,263,700,264.3,698.9z"/>
		</g>
		<g>
			<path class="st0" d="M282.2,718.5c1.2-1.2,3.1-1.2,4.3,0c1.2,1.2,1.2,3.1,0,4.3s-3.1,1.2-4.3,0C281,721.6,281,719.7,282.2,718.5z
				"/>
		</g>
		<g>
			<path class="st0" d="M301.7,736.4c1.1-1.3,3-1.5,4.3-0.4s1.5,3,0.4,4.3s-3,1.5-4.3,0.4C300.7,739.6,300.6,737.7,301.7,736.4z"/>
		</g>
		<g>
			<path class="st0" d="M322.6,752.6c1-1.4,2.9-1.7,4.2-0.7c1.4,1,1.7,2.9,0.7,4.2c-1,1.4-2.9,1.7-4.2,0.7
				C322,755.9,321.7,753.9,322.6,752.6z"/>
		</g>
		<g>
			<path class="st0" d="M345,766.8c0.8-1.5,2.7-2,4.2-1.1c1.5,0.8,2,2.7,1.1,4.2c-0.8,1.5-2.7,2-4.2,1.1
				C344.6,770.2,344.1,768.3,345,766.8z"/>
		</g>
		<g>
			<path class="st0" d="M368.4,779.1c0.7-1.5,2.5-2.2,4.1-1.5c1.5,0.7,2.2,2.5,1.5,4.1c-0.7,1.5-2.5,2.2-4.1,1.5
				C368.4,782.4,367.7,780.6,368.4,779.1z"/>
		</g>
		<g>
			<path class="st0" d="M392.9,789.3c0.6-1.6,2.3-2.4,3.9-1.8c1.6,0.6,2.4,2.3,1.8,3.9c-0.6,1.6-2.3,2.4-3.9,1.8
				C393.1,792.6,392.3,790.9,392.9,789.3z"/>
		</g>
		<g>
			<path class="st0" d="M418.1,797.3c0.4-1.6,2.1-2.6,3.7-2.2c1.6,0.4,2.6,2.1,2.2,3.7c-0.4,1.6-2.1,2.6-3.7,2.2
				C418.7,800.6,417.7,798.9,418.1,797.3z"/>
		</g>
		<g>
			<path class="st0" d="M444,803.1c0.3-1.7,1.9-2.8,3.5-2.5c1.7,0.3,2.8,1.9,2.5,3.5c-0.3,1.7-1.9,2.8-3.5,2.5
				C444.8,806.3,443.7,804.7,444,803.1z"/>
		</g>
		<g>
			<path class="st0" d="M470.2,806.6c0.1-1.7,1.6-2.9,3.3-2.8c1.7,0.1,2.9,1.6,2.8,3.3s-1.6,2.9-3.3,2.8
				C471.3,809.7,470.1,808.2,470.2,806.6z"/>
		</g>
		<g>
			<path class="st0" d="M496.7,807.8c0-1.7,1.4-3.1,3-3.1c1.7,0,3,1.4,3,3.1c0,1.7-1.4,3-3,3S496.7,809.4,496.7,807.8z"/>
		</g>
		<g>
			<path class="st0" d="M523.2,806.6c-0.1-1.7,1.1-3.2,2.8-3.3s3.2,1.1,3.3,2.8s-1.1,3.2-2.8,3.3
				C524.8,809.6,523.3,808.3,523.2,806.6z"/>
		</g>
		<g>
			<path class="st0" d="M549.4,803.2c-0.3-1.7,0.8-3.2,2.5-3.5s3.2,0.8,3.5,2.5s-0.8,3.2-2.5,3.5C551.3,806,549.7,804.9,549.4,803.2
				z"/>
		</g>
		<g>
			<path class="st0" d="M575.3,797.5c-0.4-1.6,0.5-3.3,2.2-3.7c1.6-0.4,3.3,0.5,3.7,2.2c0.4,1.6-0.5,3.3-2.2,3.7
				C577.4,800.1,575.7,799.2,575.3,797.5z"/>
		</g>
		<g>
			<path class="st0" d="M600.6,789.6c-0.6-1.6,0.2-3.3,1.8-3.9c1.6-0.6,3.3,0.2,3.9,1.8c0.6,1.6-0.2,3.3-1.8,3.9
				S601.1,791.2,600.6,789.6z"/>
		</g>
		<g>
			<path class="st0" d="M625,779.5c-0.7-1.5-0.1-3.3,1.5-4.1c1.5-0.7,3.3-0.1,4.1,1.5c0.7,1.5,0.1,3.3-1.5,4.1
				C627.6,781.7,625.8,781,625,779.5z"/>
		</g>
		<g>
			<path class="st0" d="M648.6,767.3c-0.8-1.5-0.3-3.3,1.1-4.2c1.5-0.8,3.3-0.3,4.2,1.1c0.8,1.5,0.3,3.3-1.1,4.2
				C651.3,769.3,649.4,768.8,648.6,767.3z"/>
		</g>
		<g>
			<path class="st0" d="M670.9,753.1c-1-1.4-0.6-3.3,0.7-4.2c1.4-1,3.3-0.6,4.2,0.7c1,1.4,0.6,3.3-0.7,4.2
				C673.8,754.9,671.9,754.5,670.9,753.1z"/>
		</g>
		<g>
			<path class="st0" d="M692,737c-1.1-1.3-0.9-3.2,0.4-4.3c1.3-1.1,3.2-0.9,4.3,0.4c1.1,1.3,0.9,3.2-0.4,4.3
				C695,738.5,693,738.3,692,737z"/>
		</g>
		<g>
			<path class="st0" d="M711.5,719.2c-1.2-1.2-1.2-3.1,0-4.3s3.1-1.2,4.3,0s1.2,3.1,0,4.3S712.7,720.4,711.5,719.2z"/>
		</g>
		<g>
			<path class="st0" d="M729.4,699.7c-1.3-1.1-1.5-3-0.4-4.3s3-1.5,4.3-0.4s1.5,3,0.4,4.3C732.7,700.6,730.7,700.8,729.4,699.7z"/>
		</g>
		<g>
			<path class="st0" d="M745.6,678.7c-1.4-1-1.7-2.9-0.7-4.2c1-1.4,2.9-1.7,4.2-0.7c1.4,1,1.7,2.9,0.7,4.2
				C748.9,679.3,747,679.7,745.6,678.7z"/>
		</g>
		<g>
			<path class="st0" d="M759.9,656.4c-1.5-0.8-2-2.7-1.1-4.2c0.8-1.5,2.7-2,4.2-1.1c1.5,0.8,2,2.7,1.1,4.2
				C763.2,656.7,761.3,657.2,759.9,656.4z"/>
		</g>
		<g>
			<path class="st0" d="M772.1,632.9c-1.5-0.7-2.2-2.5-1.5-4.1c0.7-1.5,2.5-2.2,4.1-1.5c1.5,0.7,2.2,2.5,1.5,4.1
				C775.5,633,773.7,633.6,772.1,632.9z"/>
		</g>
		<g>
			<path class="st0" d="M782.3,608.5c-1.6-0.6-2.4-2.3-1.8-3.9c0.6-1.6,2.3-2.4,3.9-1.8c1.6,0.6,2.4,2.3,1.8,3.9
				C785.6,608.2,783.9,609,782.3,608.5z"/>
		</g>
		<g>
			<path class="st0" d="M790.3,583.2c-1.6-0.4-2.6-2.1-2.2-3.7c0.4-1.6,2.1-2.6,3.7-2.2c1.6,0.4,2.6,2.1,2.2,3.7
				C793.6,582.7,791.9,583.6,790.3,583.2z"/>
		</g>
		<g>
			<path class="st0" d="M796.1,557.4c-1.7-0.3-2.8-1.9-2.5-3.5c0.3-1.7,1.9-2.8,3.5-2.5c1.7,0.3,2.8,1.9,2.5,3.5
				S797.8,557.6,796.1,557.4z"/>
		</g>
		<g>
			<path class="st0" d="M799.6,531.1c-1.7-0.1-2.9-1.6-2.8-3.3c0.1-1.7,1.6-2.9,3.3-2.8c1.7,0.1,2.9,1.6,2.8,3.3
				C802.8,530,801.3,531.3,799.6,531.1z"/>
		</g>
		<g>
			<path class="st0" d="M800.8,504.6c-1.7,0-3-1.4-3-3c0-1.7,1.4-3,3-3c1.7,0,3,1.4,3,3C803.8,503.3,802.5,504.6,800.8,504.6z"/>
		</g>
		<g>
			<path class="st0" d="M799.7,478.2c-1.7,0.1-3.2-1.1-3.3-2.8c-0.1-1.7,1.1-3.2,2.8-3.3c1.7-0.1,3.2,1.1,3.3,2.8
				S801.4,478,799.7,478.2z"/>
		</g>
		<g>
			<path class="st0" d="M796.3,451.9c-1.7,0.3-3.2-0.8-3.5-2.5s0.8-3.2,2.5-3.5s3.2,0.8,3.5,2.5C799,450,797.9,451.6,796.3,451.9z"
				/>
		</g>
		<g>
			<path class="st0" d="M790.6,426c-1.6,0.4-3.3-0.5-3.7-2.2c-0.4-1.6,0.5-3.3,2.2-3.7c1.6-0.4,3.3,0.5,3.7,2.2
				C793.2,423.9,792.2,425.6,790.6,426z"/>
		</g>
		<g>
			<path class="st0" d="M782.7,400.8c-1.6,0.6-3.3-0.2-3.9-1.8c-0.6-1.6,0.2-3.3,1.8-3.9s3.3,0.2,3.9,1.8
				C785,398.4,784.2,400.2,782.7,400.8z"/>
		</g>
		<g>
			<path class="st0" d="M772.6,376.3c-1.5,0.7-3.3,0.1-4.1-1.5c-0.7-1.5-0.1-3.3,1.5-4.1c1.5-0.7,3.3-0.1,4.1,1.5
				C774.7,373.8,774.1,375.6,772.6,376.3z"/>
		</g>
		<g>
			<path class="st0" d="M760.4,352.8c-1.5,0.8-3.3,0.3-4.2-1.1c-0.8-1.5-0.3-3.3,1.1-4.2c1.5-0.8,3.3-0.3,4.2,1.1
				C762.3,350.1,761.8,351.9,760.4,352.8z"/>
		</g>
		<g>
			<path class="st0" d="M746.2,330.4c-1.4,1-3.3,0.6-4.3-0.7c-1-1.4-0.6-3.3,0.7-4.2c1.4-1,3.3-0.6,4.3,0.8
				C747.9,327.5,747.5,329.4,746.2,330.4z"/>
		</g>
		<g>
			<path class="st0" d="M730.1,309.4c-1.3,1.1-3.2,0.9-4.3-0.4s-0.9-3.2,0.4-4.3c1.3-1.1,3.2-0.9,4.3,0.4
				C731.5,306.4,731.4,308.3,730.1,309.4z"/>
		</g>
		<g>
			<path class="st0" d="M712.2,289.8c-1.2,1.2-3.1,1.2-4.3,0s-1.2-3.1,0-4.3c1.2-1.2,3.1-1.2,4.3,0S713.4,288.6,712.2,289.8z"/>
		</g>
		<g>
			<path class="st0" d="M692.7,271.9c-1.1,1.3-3,1.5-4.3,0.4s-1.5-3-0.4-4.3s3-1.5,4.3-0.4S693.8,270.6,692.7,271.9z"/>
		</g>
		<g>
			<path class="st0" d="M671.7,255.7c-1,1.4-2.9,1.7-4.2,0.7c-1.4-1-1.7-2.9-0.7-4.2c1-1.4,2.9-1.7,4.2-0.7
				C672.4,252.5,672.7,254.4,671.7,255.7z"/>
		</g>
		<g>
			<path class="st0" d="M649.4,241.5c-0.8,1.5-2.7,2-4.2,1.1c-1.5-0.8-2-2.7-1.1-4.2c0.8-1.5,2.7-2,4.2-1.1
				C649.8,238.1,650.3,240,649.4,241.5z"/>
		</g>
		<g>
			<path class="st0" d="M625.9,229.2c-0.7,1.5-2.5,2.2-4.1,1.5c-1.5-0.7-2.2-2.5-1.5-4.1c0.7-1.5,2.5-2.2,4.1-1.5
				C626,225.9,626.7,227.7,625.9,229.2z"/>
		</g>
		<g>
			<path class="st0" d="M601.5,219c-0.6,1.6-2.3,2.4-3.9,1.8c-1.6-0.6-2.4-2.3-1.8-3.9c0.6-1.6,2.3-2.4,3.9-1.8
				C601.2,215.7,602.1,217.4,601.5,219z"/>
		</g>
		<g>
			<path class="st0" d="M576.2,211c-0.4,1.6-2.1,2.6-3.7,2.2c-1.6-0.4-2.6-2.1-2.2-3.7c0.4-1.6,2.1-2.6,3.7-2.2
				C575.7,207.7,576.7,209.4,576.2,211z"/>
		</g>
		<g>
			<path class="st0" d="M550.4,205.2c-0.3,1.7-1.9,2.8-3.5,2.5c-1.7-0.3-2.8-1.9-2.5-3.5c0.3-1.7,1.9-2.8,3.5-2.5
				C549.6,202,550.7,203.6,550.4,205.2z"/>
		</g>
		<g>
			<path class="st0" d="M524.1,201.7c-0.1,1.7-1.6,2.9-3.3,2.8c-1.7-0.1-2.9-1.6-2.8-3.3c0.1-1.7,1.6-2.9,3.3-2.8
				C523,198.6,524.3,200.1,524.1,201.7z"/>
		</g>
		<g>
			<path class="st0" d="M497.7,200.5c0,1.7-1.4,3-3.1,3s-3-1.4-3-3c0-1.7,1.4-3,3-3C496.3,197.5,497.7,198.9,497.7,200.5z"/>
		</g>
		<g>
			<path class="st0" d="M471.2,201.7c0.1,1.7-1.1,3.2-2.8,3.3c-1.7,0.1-3.2-1.1-3.3-2.8c-0.1-1.7,1.1-3.2,2.8-3.3
				C469.6,198.7,471.1,200,471.2,201.7z"/>
		</g>
		<g>
			<path class="st0" d="M444.9,205.1c0.3,1.7-0.8,3.2-2.5,3.5s-3.2-0.8-3.5-2.5s0.8-3.2,2.5-3.5S444.7,203.4,444.9,205.1z"/>
		</g>
		<g>
			<path class="st0" d="M419.1,210.8c0.4,1.6-0.5,3.3-2.2,3.7c-1.6,0.4-3.3-0.5-3.7-2.2c-0.4-1.6,0.5-3.3,2.2-3.7
				C417,208.2,418.6,209.1,419.1,210.8z"/>
		</g>
		<g>
			<path class="st0" d="M393.8,218.7c0.6,1.6-0.2,3.3-1.8,3.9c-1.6,0.6-3.3-0.2-3.9-1.8s0.2-3.3,1.8-3.9
				C391.5,216.3,393.2,217.1,393.8,218.7z"/>
		</g>
		<g>
			<path class="st0" d="M369.3,228.8c0.7,1.5,0.1,3.3-1.5,4.1c-1.5,0.7-3.3,0.1-4.1-1.5c-0.7-1.5-0.1-3.3,1.5-4.1
				C366.8,226.6,368.6,227.3,369.3,228.8z"/>
		</g>
		<g>
			<path class="st0" d="M345.8,241c0.8,1.5,0.3,3.3-1.1,4.2c-1.5,0.8-3.3,0.3-4.2-1.1c-0.8-1.5-0.3-3.3,1.1-4.2
				C343.1,239,345,239.5,345.8,241z"/>
		</g>
		<g>
			<path class="st0" d="M323.4,255.2c1,1.4,0.6,3.3-0.7,4.2c-1.4,1-3.3,0.6-4.2-0.7c-1-1.4-0.6-3.3,0.7-4.2
				C320.6,253.5,322.5,253.8,323.4,255.2z"/>
		</g>
		<g>
			<path class="st0" d="M302.4,271.3c1.1,1.3,0.9,3.2-0.4,4.3c-1.3,1.1-3.2,0.9-4.3-0.4c-1.1-1.3-0.9-3.2,0.4-4.3
				C299.4,269.8,301.3,270,302.4,271.3z"/>
		</g>
	</g>
</g>
<g>
	<g>
		<defs>
			<rect id="SVGID_1_" x="-2" y="36.3" width="988.5" height="454.5"/>
		</defs>
		<clipPath id="SVGID_2_">
			<use xlink:href="#SVGID_1_"  style="overflow:visible;"/>
		</clipPath>
		<circle class="st19" cx="500.2" cy="503.4" r="395.6"/>
	</g>
</g>
<g>
	<g>
		<defs>
			<rect id="SVGID_3_" x="13.5" y="510.5" width="988.5" height="454.5"/>
		</defs>
		<clipPath id="SVGID_4_">
			<use xlink:href="#SVGID_3_"  style="overflow:visible;"/>
		</clipPath>
		<circle class="st20" cx="499.7" cy="497.9" r="395.6"/>
	</g>
</g>
</svg>
