<?xml version="1.0" encoding="utf-8"?>
<!-- Generator: Adobe Illustrator 22.0.0, SVG Export Plug-In . SVG Version: 6.00 Build 0)  -->
<svg version="1.1" id="图层_1" xmlns="http://www.w3.org/2000/svg" xmlns:xlink="http://www.w3.org/1999/xlink" x="0px" y="0px"
	 viewBox="0 0 1000 1000" style="enable-background:new 0 0 1000 1000;" xml:space="preserve">
<style type="text/css">
	.st0{clip-path:url(#SVGID_2_);fill:none;stroke:#00F9FB;stroke-width:18;stroke-miterlimit:10;}
	.st1{clip-path:url(#SVGID_4_);fill:none;stroke:#00F9FB;stroke-width:18;stroke-miterlimit:10;}
	.st2{fill:none;stroke:#0E2126;stroke-width:2;stroke-miterlimit:10;stroke-dasharray:4;}
	.st3{opacity:0.2;fill:none;stroke:#60D2EF;stroke-width:20;stroke-miterlimit:10;enable-background:new    ;}
	.st4{opacity:0.2;fill:none;stroke:#60D2EF;stroke-width:50;stroke-miterlimit:10;enable-background:new    ;}
	.st5{fill:none;stroke:#60D2EF;stroke-width:2;stroke-miterlimit:10;}
	.st6{clip-path:url(#SVGID_6_);}
	.st7{fill:#00F9FB;}
	.st8{opacity:0.35;}
	.st9{opacity:0.15;}
	.st10{opacity:0.25;}
	.st11{opacity:0.5;}
	.st12{opacity:0.75;}
	.st13{opacity:0.45;}
</style>
<g>
	<g>
		<defs>
			<rect id="SVGID_1_" x="-2" y="36.3" width="988.5" height="454.5"/>
		</defs>
		<clipPath id="SVGID_2_">
			<use xlink:href="#SVGID_1_"  style="overflow:visible;"/>
		</clipPath>
		<circle class="st0" cx="501.2" cy="503.4" r="395.6"/>
	</g>
</g>
<g>
	<g>
		<defs>
			<rect id="SVGID_3_" x="13.5" y="510.5" width="988.5" height="454.5"/>
		</defs>
		<clipPath id="SVGID_4_">
			<use xlink:href="#SVGID_3_"  style="overflow:visible;"/>
		</clipPath>
		<circle class="st1" cx="499.7" cy="497.9" r="395.6"/>
	</g>
</g>
<ellipse class="st2" cx="499.3" cy="500" rx="395.1" ry="393.5"/>
<ellipse class="st3" cx="501" cy="500" rx="411" ry="409"/>
<ellipse class="st4" cx="499.5" cy="498" rx="372.5" ry="371"/>
<circle class="st5" cx="501.5" cy="496.5" r="360.5"/>
<g>
	<g>
		<defs>
			
				<rect id="SVGID_5_" x="76.5" y="118.5" transform="matrix(0.9671 -0.2545 0.2545 0.9671 -119.4501 90.7532)" width="429" height="777"/>
		</defs>
		<clipPath id="SVGID_6_">
			<use xlink:href="#SVGID_5_"  style="overflow:visible;"/>
		</clipPath>
		<g class="st6">
			<g>
				<path class="st7" d="M426.1,164.9l8-1.8c2.6-0.6,5.3-1.2,8-1.8c5.3-1.1,10.7-2,16.1-2.9l0.7,4.5c-5.3,0.9-10.5,2-15.8,3.2
					l-3.9,0.9l-3.9,1l-7.8,2L426.1,164.9z"/>
				<path class="st7" d="M478,155.9c6.7-0.6,13.4-1.1,20.1-1.3l0.2,4.2c-6.6,0.2-13.2,0.7-19.8,1.4L478,155.9z"/>
				<path class="st7" d="M518.3,154.5c6.7,0.1,13.4,0.5,20.1,1.1l-0.4,4.3c-6.6-0.6-13.2-1-19.8-1.2L518.3,154.5z"/>
				<path class="st7" d="M558.4,157.8c6.7,0.9,13.3,2.1,19.9,3.4l-1.1,5.1c-6.4-1.5-12.9-2.8-19.5-3.8L558.4,157.8z"/>
				<path class="st7" d="M597.9,165.8c6.5,1.8,13,3.6,19.4,5.7l-2.2,6.3c-6.2-2.3-12.4-4.5-18.7-6.4L597.9,165.8z"/>
				<path class="st7" d="M636.3,178.4c6.3,2.5,12.5,5.2,18.6,8l-3.9,7.7c-5.8-3.1-11.7-6-17.7-8.8L636.3,178.4z"/>
				<path class="st7" d="M673,195.6c6,3.2,11.8,6.6,17.6,10.2l-6.1,9.2c-5.3-3.8-10.8-7.5-16.4-10.9L673,195.6z"/>
				<path class="st7" d="M707.5,217.1c5.5,3.9,11,8.1,16.3,12.3l-9,10.4c-4.8-4.4-9.7-8.7-14.8-12.9L707.5,217.1z"/>
				<path class="st7" d="M739.3,242.8c5,4.6,9.9,9.4,14.7,14.3l-12.2,11c-4.2-5-8.5-9.8-13-14.5L739.3,242.8z"/>
				<path class="st7" d="M767.7,272.3c4.4,5.2,8.7,10.6,12.8,16.1l-15.6,10.8c-3.5-5.4-7.2-10.7-11.1-16L767.7,272.3z"/>
				<path class="st7" d="M792.3,305.4c3.7,5.8,7.3,11.7,10.6,17.7L784,333c-2.8-5.8-5.8-11.5-9-17.1L792.3,305.4z"/>
				<path class="st7" d="M812.4,341.5c3,6.2,5.7,12.6,8.3,19l-21.8,8.1c-2.1-6.1-4.4-12.1-6.9-18L812.4,341.5z"/>
				<path class="st7" d="M827.7,380c2.1,6.6,4.1,13.2,5.8,19.9l-24.2,5.7c-1.4-6.3-2.9-12.5-4.6-18.7L827.7,380z"/>
				<path class="st7" d="M838,420.2c1.3,6.8,2.4,13.7,3.2,20.6l-26.1,2.9c-0.6-6.4-1.4-12.7-2.4-19.1L838,420.2z"/>
				<path class="st7" d="M843.2,461.5c0.4,6.9,0.7,13.9,0.7,20.8l-27.6-0.4c0.2-6.4,0.2-12.8,0-19.1L843.2,461.5z"/>
				<path class="st7" d="M843.2,503.2c-0.4,7-1.1,13.9-2,20.8l-28.7-4.1c1-6.3,1.8-12.6,2.4-18.9L843.2,503.2z"/>
				<path class="st7" d="M837.9,544.7c-1.3,6.9-2.8,13.7-4.6,20.4l-29.2-8c1.8-6.1,3.4-12.3,4.8-18.5L837.9,544.7z"/>
				<path class="st7" d="M827.5,585.3c-2.2,6.6-4.5,13.2-7.1,19.7l-29.1-12.1c2.5-5.8,4.9-11.7,7-17.7L827.5,585.3z"/>
				<path class="st7" d="M812,624.2c-3,6.3-6.2,12.6-9.5,18.7L774,626.8c3.2-5.5,6.3-11,9.1-16.6L812,624.2z"/>
				<path class="st7" d="M791.8,661.1c-3.8,5.9-7.7,11.7-11.8,17.4l-27.2-20.3c3.9-5,7.5-10.1,11.1-15.4L791.8,661.1z"/>
				<path class="st7" d="M767.1,695.2c-4.5,5.4-9.1,10.7-13.9,15.8l-25.3-24.3c4.4-4.5,8.7-9.1,12.9-13.9L767.1,695.2z"/>
				<path class="st7" d="M738.3,726c-5.1,4.8-10.4,9.5-15.8,14l-22.8-28.2c4.9-3.9,9.8-7.9,14.5-12.1L738.3,726z"/>
				<path class="st7" d="M705.8,753c-5.7,4.2-11.5,8.1-17.5,11.9l-19.6-31.7c5.4-3.2,10.7-6.6,15.8-10.2L705.8,753z"/>
				<path class="st7" d="M670.1,775.7c-6.2,3.4-12.5,6.6-18.9,9.6l-15.9-34.8c5.7-2.5,11.4-5.2,17-8.1L670.1,775.7z"/>
				<path class="st7" d="M631.8,793.8c-6.6,2.6-13.2,5-19.9,7.2l-11.8-37.5c6-1.8,11.9-3.8,17.8-5.9L631.8,793.8z"/>
				<path class="st7" d="M591.5,807l-5.1,1.3c-1.7,0.4-3.5,0.8-5.2,1.2l-10.4,2.3l-7.3-39.7l9.2-1.8c1.5-0.3,3.1-0.5,4.6-0.9l4.6-1
					L591.5,807z"/>
				<path class="st7" d="M549.8,815.2c-7,0.9-14.1,1.7-21.2,2.2l-2.4-41.5c6.2-0.2,12.5-0.7,18.7-1.3L549.8,815.2z"/>
				<path class="st7" d="M507.4,818.2c-7.1,0.1-14.2-0.1-21.3-0.4l3-42.9c6.2,0.6,12.4,0.9,18.6,1.1L507.4,818.2z"/>
				<path class="st7" d="M464.7,816.1c-7.1-0.8-14.1-1.8-21.2-3.1l8.6-43.8c6.1,1.3,12.2,2.5,18.3,3.4L464.7,816.1z"/>
				<path class="st7" d="M422.6,808.6c-6.9-1.7-13.8-3.6-20.7-5.7l14.6-44c5.8,2.1,11.7,4,17.7,5.7L422.6,808.6z"/>
				<path class="st7" d="M381.6,795.9c-6.7-2.5-13.3-5.3-19.8-8.3l20.6-43.3c5.5,2.8,11.1,5.4,16.8,7.8L381.6,795.9z"/>
				<path class="st7" d="M342.5,778.1c-6.3-3.4-12.6-6.9-18.7-10.7l26.7-41.8c5.1,3.4,10.3,6.7,15.7,9.8L342.5,778.1z"/>
				<path class="st7" d="M305.9,755.6c-5.9-4.1-11.6-8.5-17.2-13l32.5-39.1c4.7,4,9.5,7.8,14.4,11.6L305.9,755.6z"/>
				<path class="st7" d="M272.3,728.4c-5.3-4.9-10.4-9.9-15.4-15.2l37.7-35.4c4.1,4.5,8.4,8.9,12.9,13.2L272.3,728.4z"/>
				<path class="st7" d="M242.6,697.1c-4.6-5.5-9.1-11.2-13.3-17.1l42.2-30.6c3.6,4.9,7.3,9.8,11.2,14.6L242.6,697.1z"/>
				<path class="st7" d="M217.1,662.1c-3.9-6.1-7.5-12.3-10.9-18.7l45.6-25c3,5.4,6.1,10.6,9.4,15.8L217.1,662.1z"/>
				<path class="st7" d="M196.5,624.1c-3-6.6-5.8-13.2-8.4-19.9l47.8-18.9c2.3,5.7,4.8,11.3,7.5,16.8L196.5,624.1z"/>
				<path class="st7" d="M181,583.8c-2.1-6.9-4-13.8-5.7-20.8l48.7-12.5c1.6,5.9,3.4,11.8,5.4,17.6L181,583.8z"/>
				<path class="st7" d="M170.9,542c-1.2-7.1-2.2-14.2-3-21.3l48.3-6.2c1,6.1,2.1,12.1,3.4,18.2L170.9,542z"/>
				<path class="st7" d="M166.4,499.2l-0.2-10.7c0-1.8-0.1-3.6,0-5.4l0.1-5.4l46.3-0.2l0.2,4.6c0,1.5,0.2,3.1,0.3,4.6l0.7,9.2
					L166.4,499.2z"/>
				<path class="st7" d="M167.6,456.3c0.7-7.1,1.6-14.2,2.8-21.2l42.7,5.3c-0.4,6.2-0.7,12.4-0.8,18.6L167.6,456.3z"/>
				<path class="st7" d="M174.6,414.2c1.6-6.9,3.5-13.8,5.6-20.5l37.8,9.6c-1.2,6.2-2.2,12.3-3,18.5L174.6,414.2z"/>
				<path class="st7" d="M187.1,373.6c2.5-6.6,5.3-13.1,8.2-19.5l32.1,12.6c-1.9,6-3.7,12.1-5.2,18.2L187.1,373.6z"/>
				<path class="st7" d="M204.8,335.2c3.3-6.2,6.9-12.2,10.6-18.1l25.8,14c-2.7,5.8-5.1,11.7-7.4,17.6L204.8,335.2z"/>
				<path class="st7" d="M226.9,299.7c4-5.7,8.3-11.2,12.6-16.6l19.7,14.1c-3.4,5.5-6.6,11-9.6,16.7L226.9,299.7z"/>
				<path class="st7" d="M253.1,267.5c4.7-5.1,9.5-10,14.4-14.8l14.2,13.1c-4.1,5-8,10.2-11.8,15.4L253.1,267.5z"/>
				<path class="st7" d="M282.8,238.8c5.2-4.4,10.5-8.8,16-12.9l9.6,11.4c-4.8,4.5-9.4,9-13.8,13.8L282.8,238.8z"/>
				<path class="st7" d="M315.4,214.1c5.6-3.8,11.4-7.4,17.3-10.9l6,9.3c-5.4,3.8-10.6,7.8-15.6,11.9L315.4,214.1z"/>
				<path class="st7" d="M350.5,193.4c6-3.1,12.1-6,18.3-8.8l3.5,7.4c-5.8,3.1-11.6,6.3-17.2,9.7L350.5,193.4z"/>
				<path class="st7" d="M387.5,176.9c6.3-2.4,12.7-4.6,19.1-6.6l1.9,5.8c-6.2,2.2-12.3,4.7-18.4,7.3L387.5,176.9z"/>
			</g>
		</g>
	</g>
</g>
<g>
	<g>
		<g class="st8">
			<path class="st7" d="M592.9,711.4c0,0,4.3-1.7,12-4.8c7.5-3.3,18.1-8.2,30.2-15.5c12-7.3,25.4-16.8,38.5-28.6
				c13-11.8,25.5-25.9,36.3-41.3c21.9-30.6,34.7-66.6,39.8-94.1c2.8-13.8,3.5-25.5,4.1-33.7c0.2-8.2,0.3-12.9,0.3-12.9h-9.9
				c0,0-0.1,4.5-0.3,12.4c-0.6,7.8-1.3,19.1-4,32.3c-4.9,26.4-17.2,61-38.2,90.3c-10.3,14.7-22.3,28.3-34.8,39.6
				s-25.4,20.5-36.9,27.5s-21.8,11.6-29,14.8c-7.3,2.9-11.5,4.6-11.5,4.6L592.9,711.4z"/>
		</g>
		<g class="st9">
			<path class="st7" d="M263.2,501.5c0,0,0.1,1.2,0.3,3.4c0.2,2.2,0.7,5.4,1.2,9.4c1.1,8.1,3.1,19.7,6.9,33.2s9.5,28.9,17.5,44.6
				c8,15.6,18.2,31.5,30.2,45.8c12,14.4,25.7,27.3,39.7,38c13.9,10.7,28.1,19.1,40.7,25.3c12.6,6.1,23.6,10.3,31.4,12.8
				c3.9,1.4,7,2.2,9.1,2.8s3.2,0.9,3.2,0.9l2.6-9.5c0,0-1.1-0.3-3.1-0.9c-2-0.6-5-1.3-8.7-2.7c-7.5-2.4-18-6.4-30.1-12.3
				c-12.1-5.9-25.7-14-39.1-24.3s-26.5-22.7-38.1-36.5s-21.4-29-29-44c-7.7-15-13.1-29.8-16.8-42.8c-3.7-13-5.6-24-6.7-31.8
				c-0.5-3.9-0.9-7-1.1-9.1s-0.2-3.2-0.2-3.2L263.2,501.5z"/>
		</g>
		<g class="st10">
			<path class="st7" d="M484.2,204.8c0,0-0.8,0.1-2.2,0.2c-1.5,0.1-3.6,0.3-6.3,0.7c-2.7,0.3-6,0.8-9.7,1.2
				c-3.7,0.7-7.9,1.4-12.5,2.2c-18.3,3.5-42.2,10.9-64.7,21.6c-22.4,10.8-43.2,24.8-57.4,36.8c-3.5,3.1-6.7,5.9-9.6,8.3
				c-2.7,2.6-5.1,4.9-7.1,6.8c-2,1.8-3.5,3.4-4.5,4.5s-1.5,1.6-1.5,1.6l18.8,18c0,0,0.5-0.5,1.4-1.5s2.2-2.4,4-4
				c1.8-1.7,4-3.8,6.4-6.1c2.6-2.2,5.5-4.8,8.7-7.6c12.9-10.9,31.7-23.6,52-33.4c20.4-9.6,42-16.4,58.6-19.5c4.2-0.7,8-1.4,11.3-2
				c3.4-0.4,6.4-0.8,8.8-1.1s4.4-0.6,5.7-0.6c1.3-0.1,2-0.2,2-0.2L484.2,204.8z"/>
		</g>
		<g class="st11">
			<path class="st7" d="M695.2,276.5c0,0-0.5-0.6-1.6-1.5c-1.1-1-2.7-2.4-4.8-4.1c-4.1-3.6-10.1-8.5-17.6-14
				c-15-11-36.4-24-59.6-33.1c-11.5-4.8-23.4-8.3-34.7-11.4c-11.3-2.7-22-4.9-31.3-6c-9.2-1.3-17-1.7-22.4-2.2
				c-5.4-0.2-8.5-0.3-8.5-0.3l-0.6,26c0,0,2.8,0.1,7.8,0.2c4.9,0.4,12,0.7,20.3,2c8.4,1,18.1,3,28.3,5.4c10.2,2.8,21,6,31.4,10.4
				c21,8.2,40.4,20.1,54,30c6.8,5,12.3,9.4,16,12.7c1.9,1.6,3.3,2.9,4.3,3.7c1,0.8,1.5,1.4,1.5,1.4L695.2,276.5z"/>
		</g>
		<g class="st12">
			<path class="st7" d="M785,480.5c0,0-0.1-3.1-0.2-8.5c0-5.4-0.6-13.2-1.6-22.5c-2-18.5-7-43.1-15.9-66.3
				c-4.4-11.6-9.6-22.9-15.1-33.2c-2.8-5.1-5.6-10-8.4-14.6c-2.9-4.5-5.5-8.8-8.3-12.6c-5.3-7.7-10.2-13.7-13.5-18
				c-3.5-4.1-5.6-6.5-5.6-6.5l-19.6,17.1c0,0,1.8,2.1,5.1,5.9c3,3.9,7.5,9.3,12.3,16.3c2.6,3.4,4.8,7.4,7.5,11.4
				c2.5,4.1,5,8.6,7.6,13.2c4.9,9.3,9.7,19.6,13.6,30.1c8,21.1,12.5,43.3,14.4,60c0.8,8.4,1.4,15.4,1.4,20.4
				c0.1,4.9,0.2,7.8,0.2,7.8L785,480.5L785,480.5z"/>
		</g>
		<g>
			<path class="st7" d="M770.9,501.4c0,0,0.1-1.3,0.3-3.3c0.2-1.9,0.4-4.6,0.4-7.2c0.1-5.2,0.3-10.4,0.3-10.4H759c0,0-0.1,5-0.3,9.9
				c0,2.5-0.2,5-0.4,6.8c-0.1,1.9-0.2,3.1-0.2,3.1L770.9,501.4z"/>
		</g>
		<g class="st8">
			<path class="st7" d="M700.3,661c0,0,3.6-3.7,7-7.7c1.7-2,3.4-4,4.7-5.4c1.2-1.5,2-2.6,2-2.6l-10-8c0,0-0.8,1-1.9,2.4
				c-1.2,1.4-2.8,3.3-4.5,5.2c-3.2,3.8-6.6,7.4-6.6,7.4L700.3,661z"/>
		</g>
		<g class="st8">
			<path class="st7" d="M631.3,713.6c0,0,1.2-0.6,2.9-1.5c1.7-1,4-2.3,6.2-3.6c4.6-2.5,8.9-5.4,8.9-5.4l-6.9-10.8
				c0,0-4.1,2.8-8.5,5.2c-2.1,1.2-4.3,2.5-5.9,3.4c-1.6,0.9-2.7,1.4-2.7,1.4L631.3,713.6z"/>
		</g>
		<g>
			<path class="st7" d="M458.6,739.4c0,0,5.1,0.9,10.3,1.8c5.2,0.7,10.3,1.3,10.3,1.3l1.4-12.8c0,0-4.9-0.6-9.8-1.3
				c-4.9-0.9-9.8-1.7-9.8-1.7L458.6,739.4z"/>
		</g>
		<g>
			<path class="st7" d="M377.3,709.4c0,0,1.1,0.7,2.8,1.6c1.7,1,4,2.2,6.3,3.4s4.6,2.4,6.4,3.3c1.7,0.9,2.9,1.4,2.9,1.4l5.5-11.6
				c0,0-1.2-0.5-2.8-1.3c-1.7-0.9-3.9-2-6.1-3.1s-4.4-2.2-6-3.2c-1.6-0.9-2.7-1.5-2.7-1.5L377.3,709.4z"/>
		</g>
		<g>
			<path class="st7" d="M263,577.4c0,0,0.5,1.2,1.2,3s1.7,4.2,2.8,6.6c1.1,2.4,2.1,4.8,3,6.5c0.8,1.8,1.4,2.9,1.4,2.9l11.5-5.7
				c0,0-0.6-1.1-1.4-2.8s-1.8-4-2.8-6.2c-1-2.3-2-4.5-2.7-6.3c-0.7-1.7-1.1-2.9-1.1-2.9L263,577.4z"/>
		</g>
		<g>
			<path class="st7" d="M244.8,492.6c0,0,0,1.3,0.2,3.3c0.1,1.9,0.3,4.6,0.5,7.2s0.4,5.2,0.7,7.1c0.2,1.9,0.4,3.2,0.4,3.2l12.7-1.6
				c0,0-0.2-1.2-0.4-3.1c-0.3-1.8-0.5-4.3-0.6-6.8c-0.2-2.5-0.4-5-0.5-6.8c-0.2-1.9-0.2-3.1-0.2-3.1L244.8,492.6z"/>
		</g>
		<g class="st10">
			<path class="st7" d="M295,325.4c0,0-3,4.3-6,8.5c-2.8,4.4-5.6,8.8-5.6,8.8l10.9,6.7c0,0,2.7-4.2,5.4-8.4c2.9-4.1,5.7-8.1,5.7-8.1
				L295,325.4z"/>
		</g>
		<g>
			<path class="st7" d="M768.4,547.3c0,0,0.9-4.1,2.4-10.3c0.8-3.1,1.3-6.7,2-10.6c0.8-3.9,1.3-8.1,1.8-12.3
				c0.3-2.1,0.5-4.2,0.8-6.2c0.2-2.1,0.3-4.1,0.5-6.1c0.3-4,0.7-7.6,0.7-10.8c0.2-6.3,0.3-10.6,0.3-10.6h8.2c0,0-0.1,4.3-0.3,10.9
				c0,3.3-0.4,7.1-0.7,11.1c-0.2,2-0.3,4.1-0.5,6.3c-0.3,2.1-0.5,4.3-0.8,6.4c-0.5,4.3-1.1,8.6-1.9,12.6c-0.8,4-1.3,7.8-2.1,10.9
				c-1.5,6.4-2.4,10.6-2.4,10.6L768.4,547.3z"/>
		</g>
		<g class="st8">
			<path class="st7" d="M703.9,664.4c0,0,3-3,7.1-7.8c4.2-4.7,9.5-11.3,14.5-18.1s9.5-13.9,12.9-19.3c3.2-5.5,5.3-9.1,5.3-9.1
				l7.2,3.9c0,0-2.2,3.8-5.4,9.4c-3.4,5.5-8.1,12.9-13.3,19.9c-5.1,7-10.6,13.8-14.9,18.7c-4.2,5-7.3,8.1-7.3,8.1L703.9,664.4z"/>
		</g>
		<g class="st8">
			<path class="st7" d="M591.1,736c0,0,4-1.4,10-3.4c2.9-1.2,6.4-2.5,10.1-4c3.7-1.5,7.5-3.3,11.3-5c7.6-3.6,15.1-7.6,20.5-10.8
				c2.8-1.6,5-2.9,6.6-3.9s2.4-1.6,2.4-1.6l4.4,6.9c0,0-0.9,0.6-2.5,1.6c-1.6,1.1-3.9,2.4-6.8,4c-5.6,3.3-13.3,7.4-21.2,11.1
				c-4,1.8-7.9,3.7-11.7,5.2s-7.3,2.9-10.4,4.1c-6.2,2.1-10.3,3.5-10.3,3.5L591.1,736z"/>
		</g>
		<g>
			<path class="st7" d="M457.7,744.4c0,0,4.2,0.7,10.4,1.8c3.1,0.4,6.8,0.9,10.7,1.4c3.9,0.5,8.2,0.7,12.4,1
				c4.2,0.4,8.4,0.3,12.4,0.5s7.7,0,10.8,0c3.2-0.1,5.8-0.1,7.7-0.2c1.8-0.1,2.9-0.2,2.9-0.2l0.5,8.2c0,0-1.1,0.1-3,0.2
				c-1.9,0.1-4.6,0.1-7.9,0.2c-3.3,0.1-7.1,0.2-11.1,0c-4.1-0.2-8.4,0-12.8-0.5c-4.3-0.4-8.7-0.6-12.7-1.1s-7.8-1-11.1-1.4
				c-6.4-1.1-10.7-1.9-10.7-1.9L457.7,744.4z"/>
		</g>
		<g>
			<path class="st7" d="M336.8,687.4c0,0,0.8,0.7,2.3,1.8s3.5,2.8,6,4.7c2.4,2,5.5,4.1,8.7,6.4c3.2,2.4,6.7,4.6,10.3,6.9
				c3.5,2.3,7.2,4.5,10.6,6.4c3.4,2,6.6,3.8,9.5,5.2c2.8,1.4,5.2,2.6,6.8,3.5c1.7,0.8,2.6,1.2,2.6,1.2l-3.5,7.4c0,0-1-0.4-2.7-1.3
				c-1.7-0.9-4.1-2.1-7-3.6c-2.9-1.4-6.3-3.3-9.8-5.3c-3.6-2-7.3-4.2-10.9-6.6c-3.7-2.3-7.3-4.7-10.6-7.1c-3.3-2.4-6.5-4.5-9-6.6
				c-2.6-2-4.7-3.7-6.2-4.9s-2.3-1.9-2.3-1.9L336.8,687.4z"/>
		</g>
		<g>
			<path class="st7" d="M258.3,579.2c0,0,6.1,15.8,14.3,30.5c2.1,3.6,4.2,7.3,6.2,10.7c2.1,3.3,4.1,6.4,5.8,9.1
				c3.6,5.2,6.1,8.6,6.1,8.6l-6.6,4.8c0,0-2.6-3.5-6.2-8.9c-1.8-2.7-3.8-6-6-9.4c-2.1-3.5-4.2-7.3-6.4-11.1
				c-8.5-15.2-14.8-31.5-14.8-31.5L258.3,579.2z"/>
		</g>
		<g>
			<path class="st7" d="M241.7,446.6c0,0-2.2,16.8-2.2,33.7c0.1,4.2,0.2,8.4,0.3,12.4s0.5,7.6,0.7,10.8c0.2,3.2,0.5,5.8,0.7,7.6
				s0.4,2.9,0.4,2.9l-8.1,1c0,0-0.1-1.1-0.4-3c-0.3-1.9-0.6-4.6-0.8-7.8c-0.2-3.3-0.6-7-0.8-11.1c-0.1-4.1-0.2-8.4-0.3-12.8
				c-0.1-17.4,2.3-34.7,2.3-34.7L241.7,446.6z"/>
		</g>
		<g class="st10">
			<path class="st7" d="M291,322.4c0,0-2.4,3.4-6.1,8.6c-1.7,2.7-3.7,5.8-5.8,9.1c-2.1,3.4-4.1,7.1-6.2,10.7
				c-4,7.4-7.8,15-10.3,20.8c-1.3,2.9-2.4,5.3-3,7c-0.7,1.7-1.1,2.7-1.1,2.7l-7.6-3c0,0,0.4-1,1.1-2.8c0.7-1.8,1.7-4.3,3.1-7.2
				c2.6-6,6.5-13.8,10.6-21.4c2.2-3.8,4.3-7.6,6.4-11c2.2-3.4,4.3-6.6,6-9.4c3.8-5.3,6.3-8.9,6.3-8.9L291,322.4z"/>
		</g>
		<g class="st13">
			<g>
				<path class="st7" d="M686.3,701.5c0,0,0.8-0.6,2.2-1.8s3.5-3,6.1-5.3c1.3-1.1,2.8-2.4,4.3-3.8c1.5-1.4,3.1-3,4.9-4.7
					c1.7-1.7,3.6-3.4,5.5-5.3c1.9-2,3.8-4,5.9-6.2c16.4-17.1,35.3-42.9,49-71.5s22-59.5,25-83.1c0.8-5.9,1.5-11.3,1.8-16.1
					c0.3-4.8,0.8-9,0.8-12.5c0.2-6.9,0.3-10.9,0.3-10.9h-4c0,0-0.1,3.9-0.3,10.7c0,3.4-0.4,7.5-0.7,12.3s-1,10.1-1.7,15.9
					c-3,23.2-11.1,53.7-24.6,81.9s-32.1,53.7-48.4,70.6c-2,2.1-4,4.1-5.8,6.1c-1.9,1.9-3.7,3.6-5.5,5.3c-1.7,1.6-3.3,3.2-4.8,4.6
					c-1.6,1.3-3,2.6-4.3,3.7c-2.6,2.2-4.6,4-6,5.2c-1.4,1.1-2.2,1.7-2.2,1.7L686.3,701.5z"/>
			</g>
			<g>
				<path class="st7" d="M599,760.3c0,0,1.4-0.5,3.9-1.3c2.6-0.9,6.4-2.1,11-4c9.5-3.5,22.7-9.4,37.9-17.8
					c15.1-8.4,32-19.8,48.4-33.9c16.4-14.2,32.4-31,45.9-49.8c13.6-18.7,24.9-39,33.3-59c8.4-20,13.9-39.6,17.3-56.6
					c3.5-17,4.5-31.5,5.2-41.5c0.3-10.1,0.4-15.9,0.4-15.9h-3.9c0,0-0.2,5.7-0.4,15.7c-0.7,9.9-1.7,24.2-5.1,41
					c-3.3,16.8-8.8,36.1-17,55.8c-8.3,19.7-19.5,39.7-32.9,58.2c-13.3,18.5-29.1,35.2-45.2,49.1c-16.2,14-32.8,25.2-47.7,33.5
					c-15,8.3-28,14.1-37.4,17.6c-4.6,1.9-8.4,3.1-10.9,3.9c-2.5,0.9-3.9,1.3-3.9,1.3L599,760.3z"/>
			</g>
		</g>
		<g class="st10">
			<g>
				<path class="st7" d="M526.3,190.9c0,0,1.7,0.1,4.9,0.4c3.2,0.2,7.9,0.6,13.8,1.4c11.9,1.4,28.8,4.3,48.4,10.3
					c19.6,5.9,41.8,15.4,63.9,28.5c22,13.2,43.6,30.3,62.3,50.3c9.3,10,18.1,20.5,25.8,31.6c4,5.4,7.4,11.2,11,16.7
					c3.2,5.7,6.7,11.3,9.5,17.1c6.1,11.3,10.7,22.8,14.9,33.8c3.9,11.1,7.2,21.7,9.5,31.7c4.7,20,6.7,37,7.4,49
					c0.5,6,0.4,10.7,0.5,13.9c0.1,3.2,0.1,4.9,0.1,4.9h3.9c0,0,0-1.7-0.1-5c-0.2-3.2,0-8-0.6-14.1c-0.7-12.1-2.7-29.4-7.5-49.6
					c-2.3-10.1-5.7-20.9-9.6-32.2c-4.3-11.1-9-22.8-15.1-34.3c-2.8-5.9-6.3-11.5-9.6-17.3c-3.6-5.6-7.1-11.4-11.2-16.9
					c-7.8-11.2-16.7-21.9-26.1-32c-18.9-20.3-40.9-37.6-63.2-51c-22.4-13.3-44.8-22.9-64.8-28.9c-19.9-6.1-37.1-9.1-49.1-10.5
					c-6-0.9-10.8-1.2-14-1.4s-5-0.4-5-0.4L526.3,190.9z"/>
			</g>
			<g>
				<path class="st7" d="M388.8,227.2c0,0,2-0.9,5.8-2.6c3.7-1.8,9.4-4,16.5-6.8c14.4-5.3,35.6-11.8,61.8-15
					c6.5-1,13.4-1.3,20.5-1.9c7.1-0.2,14.5-0.6,22-0.2c15.1,0.4,31,1.9,47.2,5.2c32.4,6.4,65.7,19.3,95.4,38.2
					c29.8,18.8,55.6,43.5,75.2,70c19.7,26.5,33,54.7,41.1,79.8c8.2,25.1,11.2,47.1,12.6,62.4c0.3,3.8,0.5,7.3,0.8,10.2
					c0.1,3,0.1,5.5,0.2,7.6c0.1,4.1,0.2,6.3,0.2,6.3h4c0,0-0.1-2.2-0.2-6.4c-0.1-2.1-0.1-4.7-0.2-7.7c-0.2-3-0.5-6.5-0.8-10.4
					c-1.4-15.5-4.4-37.8-12.8-63.3c-8.2-25.4-21.7-54.1-41.7-80.9c-19.9-26.9-46.1-51.9-76.3-71c-30.1-19.2-63.9-32.3-96.8-38.8
					c-16.4-3.3-32.6-4.8-47.9-5.2c-7.7-0.4-15.1,0-22.3,0.2c-7.2,0.6-14.2,0.9-20.8,1.9c-26.6,3.2-48.1,9.8-62.7,15.2
					c-7.3,2.9-13,5-16.8,6.9c-3.8,1.7-5.8,2.6-5.8,2.6L388.8,227.2z"/>
			</g>
		</g>
	</g>
</g>
</svg>
