<?xml version="1.0" encoding="utf-8"?>
<!-- Generator: Adobe Illustrator 22.0.0, SVG Export Plug-In . SVG Version: 6.00 Build 0)  -->
<svg version="1.1" id="图层_1" xmlns="http://www.w3.org/2000/svg" xmlns:xlink="http://www.w3.org/1999/xlink" x="0px" y="0px"
	 viewBox="0 0 801 640.4" style="enable-background:new 0 0 801 640.4;" xml:space="preserve">
<style type="text/css">
	@keyframes rotate360 {
	  from {
		-webkit-transform: rotateZ(0deg);
		-moz-transform: rotateZ(0deg);
		-ms-transform: rotateZ(0deg);
		-o-transform: rotateZ(0deg);
		transform: rotateZ(0deg);
	  }
	  to {
		-webkit-transform: rotateZ(360deg);
		-moz-transform: rotateZ(360deg);
		-ms-transform: rotateZ(360deg);
		-o-transform: rotateZ(360deg);
		transform: rotateZ(360deg);
	  }
	}
	.st0{display:none;fill:#17172F;}
	.st1{fill:none;stroke:#00F9FB;stroke-width:4;stroke-miterlimit:10;}
	.st2{fill:#00D4D9;}
	.st3{fill:#01BED7;}
	.st4{fill:#01A4DC;}
	.st5{fill:#0281DF;}
	.st6{fill:#097ABF;}
	.st7{fill:#0176B8;}
	.st8{fill:#0172A3;}
	.st9{fill:#006F8A;}
	.st10{fill:#004350;}
	.st11{fill:#045A74;}
	.st12{fill:#032B36;}
	.st13{fill:#022028;}
	.st14{fill:#000F12;}
	.st15{fill:none;stroke:#00F9FB;stroke-width:2;stroke-miterlimit:10;}
	.st16{fill:none;stroke:#00F9FB;stroke-width:10;stroke-miterlimit:10;stroke-dasharray:2,6;}
	.st17{opacity:0.4;fill:none;stroke:#00F9FB;stroke-width:20;stroke-miterlimit:10;}
	.st18{opacity:0.4;fill:none;stroke:#00F9FB;stroke-width:35;stroke-miterlimit:10;}
	.st19{opacity:0.3;fill:url(#SVGID_1_);}
	.st20{fill:none;stroke:#00F9FB;stroke-width:20;stroke-miterlimit:10;}
	.st21{fill:none;stroke:url(#SVGID_2_);stroke-width:20;stroke-miterlimit:10;}
	.st22{fill:none;stroke:url(#SVGID_3_);stroke-width:20;stroke-miterlimit:10;}
</style>
<rect class="st0" width="801" height="640.4"/>
<circle class="st1" cx="401" cy="327" r="314"/>
<circle class="st1" cx="401" cy="327" r="258"/>
	<g style=" transform-origin: 50% 51%;   animation: rotate360 45s infinite;">
<g>
	<path class="st2" d="M400,632c-4.2,0-8.4-0.1-12.6-0.3l1.4-35c9.4,0.4,18.9,0.3,28.2-0.3l2.2,34.9C412.9,631.8,406.4,632,400,632z"
		/>
</g>
<g>
	<path class="st2" d="M381.1,631.4c-10.6-0.6-21.2-1.9-31.6-3.6l5.8-34.5c9.2,1.5,18.6,2.6,28,3.2L381.1,631.4z"/>
</g>
<g>
	<path class="st2" d="M425.6,630.9l-2.9-34.9c9.3-0.8,18.7-2.1,27.9-3.8l6.5,34.4C446.7,628.6,436.1,630.1,425.6,630.9z"/>
</g>
<g>
	<path class="st3" d="M343.2,626.7c-10.4-2-20.8-4.5-30.9-7.5l10.1-33.5c8.9,2.7,18.1,4.9,27.3,6.7L343.2,626.7z"/>
</g>
<g>
	<path class="st3" d="M463.3,625.4l-7.3-34.2c9.2-1.9,18.3-4.4,27.2-7.3l10.8,33.3C484,620.4,473.7,623.2,463.3,625.4z"/>
</g>
<g>
	<path class="st3" d="M306.2,617.2c-10.1-3.3-20.1-7.1-29.7-11.4l14.2-32c8.5,3.8,17.4,7.2,26.3,10.1L306.2,617.2z"/>
</g>
<g>
	<path class="st3" d="M500.1,615.1l-11.5-33c8.8-3.1,17.6-6.7,26-10.7l14.9,31.7C520,607.6,510.1,611.6,500.1,615.1z"/>
</g>
<g>
	<path class="st4" d="M270.7,603.2c-9.6-4.5-19-9.6-28-15l18.1-29.9c8,4.9,16.3,9.3,24.8,13.3L270.7,603.2z"/>
</g>
<g>
	<path class="st4" d="M535.3,600.3L519.7,569c8.4-4.2,16.6-8.8,24.5-13.8l18.8,29.5C554.1,590.3,544.7,595.6,535.3,600.3z"/>
</g>
<g>
	<path class="st4" d="M237.2,584.8c-8.9-5.7-17.6-11.9-25.9-18.4l21.7-27.4c7.3,5.8,15.1,11.3,22.9,16.3L237.2,584.8z"/>
</g>
<g>
	<path class="st4" d="M568.3,581.2l-19.4-29.1c7.8-5.2,15.4-10.8,22.6-16.8l22.3,27C585.7,569,577.1,575.3,568.3,581.2z"/>
</g>
<g>
	<path class="st5" d="M206.3,562.3c-8.1-6.7-16-14-23.4-21.5l25-24.5c6.6,6.7,13.5,13.1,20.7,19.1L206.3,562.3z"/>
</g>
<g>
	<path class="st5" d="M598.7,558.1l-22.9-26.5c7.1-6.1,13.9-12.7,20.3-19.5l25.5,24C614.4,543.8,606.7,551.2,598.7,558.1z"/>
</g>
<g>
	<path class="st5" d="M178.5,536.2c-7.2-7.7-14.2-15.9-20.6-24.3l27.9-21.2c5.7,7.4,11.8,14.7,18.2,21.5L178.5,536.2z"/>
</g>
<g>
	<path class="st5" d="M625.9,531.4l-26-23.4c6.3-7,12.2-14.3,17.7-21.9l28.3,20.6C639.8,515.2,633,523.5,625.9,531.4z"/>
</g>
<g>
	<path class="st6" d="M154.2,506.9c-6.2-8.5-12.1-17.5-17.4-26.6l30.3-17.5c4.7,8.1,9.9,16,15.4,23.6L154.2,506.9z"/>
</g>
<g>
	<path class="st6" d="M649.7,501.5l-28.7-20c5.3-7.7,10.3-15.7,14.9-23.9l30.7,16.9C661.4,483.7,655.7,492.8,649.7,501.5z"/>
</g>
<g>
	<path class="st6" d="M133.7,474.7c-5.1-9.3-9.8-18.9-13.9-28.6l32.2-13.6c3.6,8.6,7.8,17.1,12.3,25.3L133.7,474.7z"/>
</g>
<g>
	<path class="st6" d="M669.5,468.9l-31-16.2c4.3-8.3,8.3-16.9,11.7-25.6l32.5,12.9C678.8,449.7,674.4,459.5,669.5,468.9z"/>
</g>
<g>
	<path class="st7" d="M117.4,440.2c-3.9-9.8-7.3-20-10.2-30.2l33.7-9.4c2.5,9,5.5,18,9,26.7L117.4,440.2z"/>
</g>
<g>
	<path class="st7" d="M685,434l-32.8-12.2c3.3-8.8,6.1-17.8,8.4-26.9l33.9,8.7C691.9,413.8,688.7,424,685,434z"/>
</g>
<g>
	<path class="st7" d="M105.6,403.9c-2.6-10.2-4.7-20.7-6.3-31.2l34.6-5.1c1.4,9.3,3.2,18.5,5.6,27.6L105.6,403.9z"/>
</g>
<g>
	<path class="st7" d="M696,397.4l-34.1-8c2.1-9.1,3.8-18.4,4.9-27.7l34.7,4.3C700.3,376.6,698.4,387.1,696,397.4z"/>
</g>
<g>
	<path class="st7" d="M98.4,366.4c-1.3-10.5-2.1-21.1-2.3-31.7l35-0.8c0.2,9.4,0.9,18.8,2.1,28.1L98.4,366.4z"/>
</g>
<g>
	<path class="st7" d="M702.4,359.7l-34.8-3.6c1-9.3,1.5-18.7,1.5-28.1l0-0.6h35l0,0.5C704,338.6,703.5,349.3,702.4,359.7z"/>
</g>
<g>
	<path class="st7" d="M131,328.3H96l0-0.4c0-10.4,0.5-21,1.6-31.3l34.8,3.6c-0.9,9.2-1.4,18.6-1.4,27.9L131,328.3z"/>
</g>
<g>
	<path class="st8" d="M668.9,321.8c-0.2-9.4-0.9-18.8-2.1-28.1l34.7-4.4c1.3,10.4,2.1,21.1,2.4,31.7L668.9,321.8z"/>
</g>
<g>
	<path class="st8" d="M133.1,294.6l-34.7-4.3c1.3-10.5,3.2-21,5.6-31.3l34.1,7.9C135.9,275.9,134.2,285.3,133.1,294.6z"/>
</g>
<g>
	<path class="st8" d="M666.1,288.1c-1.4-9.3-3.3-18.5-5.6-27.6l33.9-8.7c2.6,10.2,4.8,20.7,6.3,31.2L666.1,288.1z"/>
</g>
<g>
	<path class="st8" d="M139.3,261.4l-33.9-8.6c2.6-10.2,5.8-20.5,9.5-30.4l32.8,12.2C144.4,243.3,141.6,252.3,139.3,261.4z"/>
</g>
<g>
	<path class="st9" d="M659,255.1c-2.5-9-5.6-18-9-26.6l32.5-13c3.9,9.8,7.4,20,10.2,30.1L659,255.1z"/>
</g>
<g>
	<path class="st9" d="M149.7,229.2l-32.6-12.9c3.9-9.8,8.3-19.6,13.2-28.9l31,16.2C157.1,211.9,153.1,220.5,149.7,229.2z"/>
</g>
<g>
	<path class="st9" d="M647.9,223.3c-3.6-8.6-7.8-17.1-12.3-25.3l30.6-16.9c5.1,9.3,9.8,18.9,13.9,28.6L647.9,223.3z"/>
</g>
<g>
	<path class="st10" d="M164.1,198.7l-30.7-16.9c5.1-9.3,10.7-18.4,16.8-27l28.7,20C173.6,182.4,168.6,190.5,164.1,198.7z"/>
</g>
<g>
	<path class="st11" d="M632.8,193.1c-4.7-8.1-9.9-16-15.4-23.6l28.3-20.6c6.2,8.5,12.1,17.5,17.4,26.6L632.8,193.1z"/>
</g>
<g>
	<path class="st12" d="M182.2,170.1l-28.3-20.6c6.2-8.5,12.9-16.9,20-24.7l26,23.4C193.6,155.2,187.7,162.6,182.2,170.1z"/>
</g>
<g>
	<path class="st10" d="M614,165c-5.7-7.4-11.8-14.7-18.2-21.5l25.5-24c7.2,7.7,14.2,15.8,20.6,24.2L614,165z"/>
</g>
<g>
	<path class="st12" d="M203.7,144.1l-25.5-23.9c7.2-7.7,14.9-15.1,22.9-22l22.9,26.5C216.9,130.7,210.1,137.3,203.7,144.1z"/>
</g>
<g>
	<path class="st12" d="M591.9,139.5c-6.6-6.7-13.5-13.1-20.8-19l22.3-27c8.1,6.7,16,14,23.4,21.5L591.9,139.5z"/>
</g>
<g>
	<path class="st13" d="M228.3,120.9L205.9,94c8.1-6.8,16.7-13.2,25.5-19l19.4,29.1C243.1,109.3,235.5,114.9,228.3,120.9z"/>
</g>
<g>
	<path class="st13" d="M566.7,116.9c-7.3-5.8-15.1-11.3-23-16.3L562.5,71c8.9,5.7,17.7,11.8,25.9,18.4L566.7,116.9z"/>
</g>
<g>
	<path class="st13" d="M255.6,101l-18.8-29.5c8.9-5.7,18.2-11,27.7-15.7l15.6,31.3C271.7,91.3,263.5,96,255.6,101z"/>
</g>
<g>
	<path class="st13" d="M539,97.6c-8-4.8-16.4-9.3-24.8-13.3L529,52.7c9.6,4.5,19,9.5,28.1,15L539,97.6z"/>
</g>
<g>
	<path class="st14" d="M285.1,84.7l-15-31.6c9.6-4.5,19.5-8.6,29.4-12.1l11.6,33C302.3,77.1,293.6,80.7,285.1,84.7z"/>
</g>
<g>
	<path class="st14" d="M509,82c-8.5-3.8-17.4-7.2-26.3-10l10.8-33.3c10.1,3.2,20.1,7.1,29.7,11.4L509,82z"/>
</g>
<g>
	<path class="st14" d="M316.5,72.2l-10.9-33.3c10-3.3,20.4-6.1,30.7-8.3l7.3,34.2C334.5,66.9,325.4,69.3,316.5,72.2z"/>
</g>
<g>
	<path class="st14" d="M477.4,70.3c-9-2.7-18.1-4.9-27.3-6.6l6.5-34.4c10.4,2,20.8,4.5,30.9,7.5L477.4,70.3z"/>
</g>
<g>
	<path class="st14" d="M349.2,63.8l-6.6-34.4c10.4-2,21-3.4,31.5-4.3l2.9,34.9C367.7,60.8,358.3,62,349.2,63.8z"/>
</g>
<g>
	<path class="st14" d="M444.5,62.7c-9.2-1.5-18.6-2.6-28-3.2l2.1-34.9c10.6,0.6,21.2,1.8,31.6,3.6L444.5,62.7z"/>
</g>
<g>
	<path class="st14" d="M382.7,59.5l-2.2-34.9c10.5-0.7,21.2-0.8,31.8-0.4l-1.4,35C401.5,58.8,392,59,382.7,59.5z"/>
</g>
</g>
<circle class="st15" cx="401" cy="327" r="234"/>
<circle class="st16" cx="401" cy="327" r="229"/>
<circle class="st17" cx="401" cy="327" r="207"/>
<circle class="st15" cx="401" cy="327" r="193"/>
<circle class="st18" cx="401" cy="327" r="171.5"/>
<circle class="st15" cx="401" cy="327" r="150"/>
<radialGradient id="SVGID_1_" cx="401.5077" cy="327.5003" r="140.5" gradientUnits="userSpaceOnUse">
	<stop  offset="0" style="stop-color:#00F9FB"/>
	<stop  offset="1" style="stop-color:#000C55"/>
</radialGradient>
<circle class="st19" cx="401.5" cy="327.5" r="140.5"/>
<path class="st20" d="M197.6,625.4C102.8,560.1,40.6,450.7,40.6,326.9c0-125,63.4-235.3,159.7-300.4"/>
<path class="st20" d="M613.4,30.7c93,65.6,153.7,173.8,153.7,296.2c0,120.9-59.2,227.9-150.2,293.7"/>
<linearGradient id="SVGID_2_" gradientUnits="userSpaceOnUse" x1="12.3212" y1="325.5997" x2="195.3005" y2="325.5997">
	<stop  offset="0" style="stop-color:#FFFFFF"/>
	<stop  offset="0" style="stop-color:#00DADC"/>
	<stop  offset="0.47" style="stop-color:#151535;stop-opacity:0"/>
	<stop  offset="1" style="stop-color:#000000;stop-opacity:0"/>
</linearGradient>
<path class="st21" d="M187.8,641C86.9,572.5,22.3,457.9,22.3,328c0-131.1,64.9-249.5,167.4-317.7"/>
<linearGradient id="SVGID_3_" gradientUnits="userSpaceOnUse" x1="795.7772" y1="325.6039" x2="618.0826" y2="325.6039">
	<stop  offset="0" style="stop-color:#FFFFFF"/>
	<stop  offset="0" style="stop-color:#00DADC"/>
	<stop  offset="0.47" style="stop-color:#151535;stop-opacity:0"/>
	<stop  offset="1" style="stop-color:#151535;stop-opacity:0"/>
</linearGradient>
<path class="st22" d="M623.8,15.3c98.9,68.2,162,184,162,311.3c0,125.7-61.1,241.1-157.9,309.5"/>
</svg>
