<?xml version="1.0" encoding="utf-8"?>
<!-- Generator: Adobe Illustrator 22.0.0, SVG Export Plug-In . SVG Version: 6.00 Build 0)  -->
<svg version="1.1" id="图层_1" xmlns="http://www.w3.org/2000/svg" xmlns:xlink="http://www.w3.org/1999/xlink" x="0px" y="0px"
	 viewBox="0 0 340.3 340.5" style="enable-background:new 0 0 340.3 340.5;" xml:space="preserve">
<style type="text/css">
	.st0{fill:none;stroke:#00F9FB;stroke-width:4;stroke-miterlimit:10;}
	.st1{fill:#00F9FB;}
</style>
<ellipse class="st0" cx="170.2" cy="170" rx="168.5" ry="168.5"/>
<path class="st1" d="M337.6,189.1l-13.3-2.2c-4.4,40.2-24.2,75.8-53.4,100.8l2.9,15.1C308.6,275.7,332.4,235.2,337.6,189.1z"/>
<path class="st1" d="M67.9,302.8l2.9-15.1c-29.2-25-49-60.6-53.4-100.8l-13.3,2.2C9.3,235.2,33.1,275.7,67.9,302.8z"/>
<path class="st1" d="M121.4,7.8l3,13.1c38.9-11.1,79.3-6.2,113.5,11.5l12.9-8.4C212.6,2,166.1-4.8,121.4,7.8z"/>
</svg>
